<svg width="184" height="245" viewBox="0 0 184 245" fill="none" xmlns="http://www.w3.org/2000/svg">
<path d="M22.5901 177.961C19.6522 140.479 16.7142 102.896 17.616 65.2552C17.8341 56.2364 18.2559 47.2032 18.9831 38.2134C19.3031 34.1245 21.1357 27.9476 20.3357 24.0182L20.7284 21.9303C17.2087 18.1749 15.7688 17.4354 16.4088 19.6828C16.3361 19.7553 16.6124 25.6712 16.6124 24.9317C16.7724 43.8537 16.7869 62.7758 16.8742 81.6978C16.9324 92.8915 34.3855 92.9205 34.3274 81.6978C34.2692 69.4021 34.211 57.0919 34.1528 44.7962C34.1092 35.0089 35.9709 23.0467 32.7857 13.651C29.8914 5.11068 20.2921 1.22478 12.2927 5.70517C2.80986 11.012 2.88258 23.0902 2.00992 32.5295C-2.44064 80.9583 1.35543 129.619 5.13695 177.961C6.00961 189.053 23.4628 189.14 22.5901 177.961Z" fill="#FF6021"/>
<path d="M26.6044 91.9345C50.1225 90.4411 73.597 88.3531 97.0133 85.6417C108.038 84.3657 108.169 66.9516 97.0133 68.2421C73.597 70.939 50.1225 73.0415 26.6044 74.535C15.4489 75.2454 15.3762 92.645 26.6044 91.9345Z" fill="#FF6021"/>
<path d="M106.307 77.1739C105.609 62.4568 107.064 47.9426 111.15 33.762C112.75 28.2521 114.51 20.7848 119.426 17.1454L117.637 16.9714L118.321 18.8274C118.03 20.3353 118.423 22.3943 118.408 23.9602C118.364 28.2086 118.175 32.457 118.044 36.6909C117.026 68.3001 115.194 99.8659 112.619 131.388C111.703 142.553 129.171 142.495 130.073 131.388C131.803 110.219 133.2 89.0201 134.232 67.8072C134.756 56.9614 135.192 46.1157 135.541 35.27C135.818 26.4542 137.505 15.8984 132.632 7.98163C128.371 1.0653 119.79 -1.96513 112.329 1.34079C104.867 4.64671 100.693 12.027 97.7988 19.0449C90.3376 37.1549 87.9523 57.7299 88.8686 77.1594C89.3922 88.3096 106.86 88.3676 106.322 77.1594L106.307 77.1739Z" fill="#FF6021"/>
<path d="M128.618 136.173C134.639 127.836 142.246 120.571 150.987 115.09C153.809 113.321 161.634 107.435 165.095 109.16C167.146 110.189 166.142 109.566 165.633 111.813C165.095 114.235 161.91 117.193 160.456 119.15C146.682 137.536 131.891 155.138 118.19 173.582C111.499 182.586 126.64 191.271 133.258 182.369C143.264 168.913 153.852 155.907 164.179 142.698C172.178 132.475 189.341 116.801 182.33 102.432C175.32 88.063 157.809 91.2384 146.217 97.6763C133.083 104.97 122.262 115.293 113.521 127.401C106.947 136.506 122.073 145.192 128.589 136.187L128.618 136.173Z" fill="#FF6021"/>
<path d="M14.0234 188.444C51.2277 186.24 88.5048 185.921 125.738 187.516C136.966 187.995 136.952 170.595 125.738 170.117C88.5048 168.522 51.2277 168.826 14.0234 171.045C2.86791 171.712 2.78064 189.111 14.0234 188.444Z" fill="#FF6021"/>
<path d="M65.9321 116.903C57.3655 112.582 46.1809 104.738 36.5526 110.799C26.9243 116.859 29.6441 127.067 35.7672 134.201C40.8577 140.146 50.5879 135.158 50.6606 128.053C50.777 118.28 45.7446 110.393 38.9961 103.679C32.9747 97.6909 23.041 91.8766 24.1609 82.2633L11.0274 89.7741C14.5471 92.1376 15.0416 99.3729 15.7834 103.244C16.9469 109.291 17.5432 115.424 18.1832 121.543C19.5649 134.593 20.8448 147.657 22.0229 160.721L38.2834 156.327C32.9165 147.526 32.1312 137.13 36.8726 127.836L20.9175 125.762C22.1974 133.302 22.7064 140.914 22.4883 148.556C22.3865 152.152 22.1392 155.733 21.6883 159.3C21.4265 161.359 20.5684 167.913 20.263 168.159L26.4298 165.607L25.1353 165.477L31.3021 168.029L30.4295 167.072L32.6693 175.54L32.9311 174.481L24.5099 180.861C58.2818 184.935 92.1555 188.865 126.233 187.371C137.432 186.878 137.505 170.32 126.233 169.972C105.129 169.319 84.0979 168.478 63.8086 162.069L65.8885 177.975C68.3174 176.656 70.4699 175.83 73.2479 175.54C84.4325 174.409 84.4906 159.242 73.2479 158.14C59.6781 156.82 46.1082 156.154 32.4802 156.139L34.8073 173.234C48.8862 171.103 63.2123 171.741 77.393 172.306V154.907C66.3248 156.168 55.6057 155.632 44.7847 152.949V169.725C54.064 167.405 63.2414 166.506 72.797 166.825C81.2473 167.115 84.9561 154.515 77.204 150.615C68.6374 146.308 60.6234 141.146 53.4967 134.723C49.977 131.548 46.6464 128.14 43.5775 124.53C40.9305 121.427 35.7818 116.294 35.2727 112.162L24.219 120.557C30.3131 122.63 33.1202 126.371 36.8871 131.127C37.3816 131.954 37.7889 132.824 38.0943 133.737L41.8758 129.213C41.8758 127.807 38.1961 126.603 38.0798 127.763C38.0798 127.734 44.7411 132.026 45.4101 133.099C47.4754 136.434 45.5992 134.158 42.1958 136.173L40.6541 136.507L41.2795 145.467L39.8542 143.829L39.5487 144.612C41.614 144.452 41.105 147.773 41.1923 145.148C41.2504 143.553 40.1596 141.161 39.8105 139.551C38.9233 135.521 38.167 131.446 37.6725 127.357C37.2507 123.819 36.9744 120.252 36.8144 116.685C36.7126 114.453 36.6835 112.22 36.6835 110.001C36.6835 106.724 38.1816 104.593 34.1964 108.435C30.2113 112.278 31.8548 110.204 34.2837 112.075C35.6654 113.133 36.9599 113.771 38.2252 115.091C39.127 116.033 39.6942 117.367 40.5814 118.237L41.4541 119.875L50.9951 113.96C51.3587 112.336 47.0245 105.724 46.3409 103.505C45.3083 100.127 45.6137 95.3565 44.232 92.3261L44.1447 89.8321L40.3196 93.1091C40.4359 93.3556 43.0394 93.9645 43.3594 94.095C44.9301 94.7765 46.4427 95.7625 47.7808 96.821C49.5989 98.2564 49.9625 100.417 48.9298 97.111L49.8025 90.4121C50.8642 88.4547 47.7081 90.2091 46.6173 90.3831C44.6393 90.6876 42.6176 90.7746 40.6105 90.6586C36.509 90.4121 32.6257 89.2232 28.975 87.3817L24.5681 103.592C41.3232 103.027 57.5691 105.173 73.597 110.074L75.924 92.9786C65.9757 94.037 56.1438 93.921 46.2246 92.6161L48.5517 109.711C60.2598 105.289 72.2734 102.374 84.767 101.374C95.8061 100.489 96.1552 83.8438 84.767 83.9743C80.6073 84.0178 76.4331 84.0758 72.2734 84.1193L74.6005 101.214C83.2398 99.8224 91.8792 98.4304 100.504 97.0385L95.8643 80.2624C82.3235 82.7708 68.4046 87.0772 59.009 97.7345C50.7479 107.116 47.3445 119.991 52.4059 131.707C56.2892 140.726 69.0155 152.369 79.182 145.09C89.9593 137.376 82.5126 119.977 75.7059 112.162C71.6917 107.565 65.6849 103.012 59.1545 104.636C52.9877 106.173 49.9916 112.075 49.0898 117.845C47.3009 129.329 51.8387 143.147 64.7104 145.322C78.5566 147.657 88.8539 134.274 93.0136 122.804C94.9189 117.57 96.3588 111.074 92.9845 106.101C88.8976 100.083 81.5382 100.446 76.2149 104.535C71.3135 108.29 66.703 115.7 68.7683 122.079C71.0517 129.141 79.1674 130.953 85.3051 127.807C97.8278 121.369 106.22 105.709 109.114 92.5726C110.06 88.2662 107.849 82.7998 103.02 81.8718C89.1303 79.2039 74.7896 93.4571 66.3394 103.027C60.9725 109.102 66.0048 120.499 74.8332 117.57C83.2107 114.786 95.0644 113.032 101.653 106.811C108.241 100.591 110.714 89.9046 112.983 81.8428C118.772 61.2388 121.651 39.6489 125.578 18.6389L108.431 16.3189C109.26 69.4021 106.991 122.659 96.3588 174.8L113.507 177.12C112.008 160.329 111.732 143.524 112.663 126.69L95.5152 129.01C96.257 134.491 95.0789 139.914 92.6064 144.8L108.561 146.874C106.438 132.809 109.434 118.672 112.27 104.941C114.525 94.066 98.1768 89.3682 95.4425 100.315C93.3045 108.885 90.5411 117.28 86.7305 125.255C85.0433 128.793 83.1817 132.244 81.2036 135.622C80.5491 136.753 79.8656 137.869 79.1674 138.971L81.8872 137.768C82.0181 137.463 76.9567 132.447 76.6658 132.084L66.0921 145.743C70.6008 148.005 74.266 150.832 76.8985 155.211C78.9202 158.575 79.4438 162.388 80.9709 165.941C85.3924 176.221 94.8316 176.047 104.518 174.568C123.775 171.654 139.119 156.951 133.447 136.39C131.585 129.648 120.793 127.314 117.492 134.317C114.932 139.754 112.663 145.322 111.165 151.151C109.958 155.849 107.951 162.722 109.245 167.594C112.387 179.44 125.113 175.627 130.422 168.145C142.93 150.499 152.602 131.272 170.04 117.715C178.403 111.205 167.742 100.257 159.467 104.056C143.861 111.205 128.676 119.15 113.899 127.894C104.242 133.607 113.012 148.643 122.713 142.915C137.49 134.187 152.674 126.241 168.28 119.078L157.707 105.419C148.471 112.611 141.024 121.456 134.232 130.924C131.032 135.39 128.022 139.986 125.04 144.597C123.324 147.236 121.637 149.89 119.921 152.514C118.786 154.254 117.128 158.241 115.295 159.285L122.015 158.415L120.648 158.14L125.869 162.142C127.091 164.476 126.495 163.113 126.887 160.924C127.28 158.734 127.789 156.646 128.371 154.53C129.447 150.6 130.858 146.816 132.589 143.118L116.634 141.045C118.103 146.352 116.488 151.644 111.645 154.544C108.809 156.241 105.376 156.922 102.147 157.473C100.795 157.705 99.0059 157.603 97.7405 158.067L95.6316 158.241C97.0569 160.112 97.4787 160.315 96.8969 158.865C97.4205 157.226 95.0062 152.775 94.3517 151.253C93.0863 148.28 91.5301 145.554 89.5812 142.973C85.6833 137.782 80.7382 133.665 74.9205 130.75C65.8594 126.197 57.9764 136.825 64.3468 144.409C68.2883 149.107 73.3643 155.269 79.8946 156.081C86.8905 156.936 91.5301 152.05 94.948 146.671C103.02 133.955 108.663 119.527 112.299 104.97L95.4716 100.344C91.9373 117.41 89.1303 134.129 91.7628 151.528C92.8827 158.923 104.518 159.923 107.718 153.602C112.503 144.148 113.797 134.825 112.387 124.399C110.976 113.974 95.7625 117.454 95.2389 126.719C94.3081 143.553 94.5989 160.358 96.0825 177.149C96.8824 186.226 111.121 189.778 113.23 179.469C124.168 125.806 126.785 71.0116 125.927 16.3624C125.782 6.92318 110.656 4.08125 108.78 14.0425C105.478 31.6451 102.569 49.3781 98.7295 66.8937C96.9406 75.0715 95.0207 83.9308 91.181 91.4416C88.1267 97.4155 76.3167 98.8074 70.2081 100.837L78.702 115.381C81.8581 111.799 85.2179 108.377 88.9703 105.419C90.8756 103.911 92.9118 102.534 94.9916 101.243C95.8352 100.721 100.213 99.0539 98.4241 98.7059L92.33 88.0052C91.1956 93.1381 89.523 97.8214 86.6868 102.258C85.2033 104.578 79.8219 112.104 78.1639 111.988L84.3307 114.54C84.2289 120.006 84.8833 121.528 86.3087 119.121C87.065 118.295 87.1959 118.063 86.6723 118.44L79.9528 117.57C78.033 113.873 76.9422 113.713 76.6658 117.106C76.1277 118.715 75.415 120.252 74.5278 121.702C73.597 123.283 70.8045 128.126 68.5065 128.097C66.0921 128.053 65.2194 120.948 65.9321 120.615L59.2126 121.485C62.3688 121.934 64.4486 125.646 65.6121 128.3C66.0339 129.271 66.2375 131.707 66.863 132.403C66.892 134.39 67.9683 134.158 70.0627 131.678C73.3061 130.939 74.0915 130.243 72.448 129.59C72.1571 128.401 68.841 126.139 68.1719 124.37C67.212 121.818 67.2411 119.194 67.9538 116.598C71.6771 103.027 88.6794 99.3004 100.548 97.111C111.659 95.052 106.845 78.5659 95.9079 80.3349C87.2686 81.7268 78.6293 83.1188 70.0045 84.5108C60.1726 86.0912 62.6742 101.707 72.3316 101.606C76.4913 101.562 80.6655 101.504 84.8252 101.461V84.0613C70.7754 85.1923 57.1619 88.0342 43.9702 93.0221C34.4001 96.6325 36.5381 108.827 46.2973 110.117C56.0565 111.408 66.0485 111.538 75.9968 110.48C85.436 109.479 88.2722 96.4295 78.3239 93.3846C60.9289 88.0632 42.8358 85.6707 24.6554 86.2797C16.4815 86.5552 12.1618 98.4014 20.2485 102.49C30.0222 107.435 40.5232 109.305 51.3733 107.275C61.307 105.419 71.2553 97.1545 62.8633 87.1787C57.4819 80.7699 47.2281 75.028 38.6761 76.014C26.5898 77.4204 26.1389 88.9477 27.5061 98.5609C28.8732 108.174 32.2911 121.456 40.2032 127.72C48.6244 134.39 60.8125 127.749 58.7472 116.874C57.0746 108.058 49.1625 99.9964 41.3232 96.2265C33.4838 92.4566 22.3428 92.1666 19.783 102.432C17.2232 112.698 19.8848 127.038 21.7465 137.724C23.2737 146.497 24.8881 158.357 34.6182 161.794C56.4929 169.522 67.2847 130.402 42.8939 128.314C34.3273 127.575 25.8335 133.824 26.5898 142.944C27.4915 153.616 38.4725 154.907 46.9082 153.065C56.1874 151.035 64.7104 144.612 64.3032 134.346C63.8959 124.08 54.253 115.801 45.6574 112.205C35.4473 107.942 23.6227 112.539 22.4737 124.428C21.4411 135.013 31.5494 148.106 42.8212 147.715C55.4602 147.28 57.6564 134.709 53.3804 125.226C48.668 114.801 39.6506 107.536 28.9314 103.897C24.0154 102.229 17.2087 106.797 17.8777 112.292C19.4049 124.805 29.0187 135.289 37.7598 143.901C46.5009 152.514 57.1764 160.112 68.4483 165.767L72.8552 149.556C61.8161 149.179 50.9224 150.397 40.2032 153.065C31.8984 155.139 31.8694 167.782 40.2032 169.841C52.4641 172.886 64.8849 173.858 77.4512 172.422C88.3885 171.175 88.9412 155.472 77.4512 155.023C61.5979 154.399 45.9628 154.196 30.2258 156.574C20.3357 158.067 22.9537 173.655 32.5529 173.669C46.1809 173.669 59.7653 174.351 73.3206 175.67V158.27C67.372 158.879 62.4124 160.228 57.1474 163.084C50.2824 166.796 52.3477 176.801 59.2272 178.99C80.9128 185.849 103.704 186.82 126.291 187.516V170.117C92.2137 171.61 58.34 167.681 24.5681 163.606C20.9029 163.171 16.9905 166.622 16.147 169.986C14.5035 176.598 18.7213 182.934 25.8044 183.094C32.8875 183.253 36.2181 176.932 37.4544 170.784C40.7559 154.356 40.5668 137.753 37.7598 121.282C36.509 113.945 25.0626 112.829 21.8047 119.208C14.2562 133.969 14.518 151.006 23.2155 165.259C27.4188 172.147 40.2905 169.87 39.476 160.866C37.978 144.307 36.5235 127.72 34.4728 111.219C32.8729 98.2854 31.593 82.7998 19.8412 74.883C13.7762 70.8086 7.40583 76.42 6.70771 82.3938C5.60234 91.9926 10.6928 100.431 17.1069 107.174C22.7646 113.119 33.3238 118.991 33.222 128.184L48.1153 122.036C44.072 124.457 43.4466 126.009 46.2391 126.676C47.519 127.183 48.7698 127.763 49.977 128.445C52.3768 129.619 54.7475 130.852 57.1328 132.055C67.1247 137.101 75.9822 122.094 65.9467 117.033L65.9321 116.903Z" fill="#FF6021"/>
<path d="M41.5268 73.1283C41.1051 70.7214 43.1267 61.9491 47.1409 62.8916C50.2825 63.631 50.9952 78.3627 51.4461 81.1321C53.1041 91.4124 67.852 87.9324 68.5938 78.8122C68.9138 74.7958 70.5427 71.1999 72.4335 67.7054C73.2043 66.2845 75.5314 60.5281 77.2913 60.0931C82.949 58.7012 81.4655 73.3168 81.2764 75.9412L98.4242 73.6213C95.7189 65.3565 91.5302 55.0618 82.2945 52.2488C70.5573 48.6674 66.1213 63.2396 64.5796 71.9103L73.0007 65.5305C71.7499 65.6175 59.9981 66.1105 59.9545 66.473C59.9545 66.5455 66.7903 72.2003 61.7871 65.9655C60.4781 64.3415 59.14 62.8046 57.5547 61.4416C52.6387 57.1932 46.0792 55.4677 40.4651 59.4986C35.5782 63.0076 33.7747 69.6049 35.491 75.2743C36.4363 78.3772 38.5016 81.1901 41.1632 83.0316C43.8248 84.873 46.8646 84.67 49.4535 86.091C59.3 91.4849 68.1284 76.4632 58.2673 71.0694C53.9186 68.6914 51.8388 67.6329 48.2754 71.3014C44.712 74.9698 46.2537 74.4478 48.9154 77.6667C49.9044 78.8702 50.7043 80.1026 51.9115 81.1176C57.4383 85.7865 66.4122 83.3941 73.0153 82.9301C76.5641 82.6691 80.7383 80.4361 81.4364 76.5502C81.9309 73.7373 82.4254 68.7929 84.5053 66.5455L76.0114 68.7784C79.2839 69.2859 80.7528 75.6368 81.6109 78.2612C84.7234 87.7875 98.0315 85.7285 98.7587 75.9412C99.835 61.4561 95.0353 41.5191 76.4332 42.5776C60.769 43.462 52.2024 65.806 51.1552 78.8122L68.3029 76.4922C66.1794 63.2686 62.5143 41.9831 43.7521 45.8545C29.1933 48.8559 22.3138 64.269 24.7136 77.7392C26.6771 88.7444 43.5049 84.0755 41.5414 73.1138L41.5268 73.1283Z" fill="#FF6021"/>
<path d="M39.5779 110.248C30.9386 110.248 22.9538 109.494 18.9687 117.845C14.9835 126.197 17.3688 132.07 25.4845 136.332C32.6548 140.088 42.7922 138.884 49.7153 135.26C56.6384 131.635 60.0854 124.037 55.3294 117.715C52.3915 113.815 46.1374 109.247 39.5779 110.248Z" fill="white"/>
<mask id="mask0_41_700" style="mask-type:luminance" maskUnits="userSpaceOnUse" x="17" y="110" width="41" height="29">
<path d="M39.5779 110.248C30.9386 110.248 22.9538 109.494 18.9687 117.845C14.9835 126.197 17.3688 132.07 25.4845 136.332C32.6548 140.088 42.7922 138.884 49.7153 135.26C56.6384 131.635 60.0854 124.037 55.3294 117.715C52.3915 113.815 46.1374 109.247 39.5779 110.248Z" fill="white"/>
</mask>
<g mask="url(#mask0_41_700)">
<path d="M36.3055 117.512C35.5637 117.642 34.7929 117.512 34.0366 117.468C33.2803 117.425 32.4513 117.541 31.9131 118.034C31.2586 118.628 31.2586 119.658 31.7531 120.368C32.2476 121.079 33.1203 121.499 34.022 121.688C34.9238 121.876 35.8546 121.833 36.7709 121.818C38.8944 121.775 41.2942 121.731 42.705 120.281C43.0977 119.875 43.3886 119.295 43.1849 118.773C42.9668 118.208 42.2541 117.947 41.6142 117.816C40.727 117.642 39.8107 117.613 38.9089 117.7" fill="white"/>
<path d="M36.3054 108.45C33.2947 108.667 30.5459 108.363 27.7679 109.914C24.3936 111.799 22.2411 115.554 22.2992 119.426C22.4447 127.285 29.775 131.011 36.7563 130.895C42.9376 130.779 49.7444 128.851 51.7951 122.239C53.1768 117.787 51.3879 112.944 47.3882 110.479C44.9156 108.957 41.7595 108.45 38.8798 108.638C34.1383 108.957 29.5569 112.582 29.7896 117.7C29.9932 122.34 33.8038 127.111 38.8798 126.763C39.3306 126.719 39.7815 126.705 40.2324 126.719C39.5052 126.705 38.8216 126.502 38.1962 126.125L34.9382 122.877L35.3019 123.355L34.0656 118.773C34.2547 115.743 35.4618 113.8 37.658 112.93C38.3852 112.64 38.3562 112.611 37.5708 112.843C39.8397 112.321 38.0798 112.727 37.3962 112.741C37.0472 112.741 35.52 112.959 35.3746 112.77L36.4218 112.959C39.2725 114.191 40.5814 116.83 40.3487 120.861L38.0071 124.863L35.2873 126.313C33.8911 126.473 33.5856 126.56 34.4001 126.574C34.9673 126.719 35.7236 126.632 36.2909 126.574C41.0323 126.241 45.6138 122.645 45.3811 117.512C45.1774 112.886 41.3668 108.087 36.2909 108.45H36.3054Z" fill="black"/>
</g>
<path d="M88.083 110.248C96.7224 110.248 104.707 109.494 108.692 117.845C112.677 126.197 110.292 132.07 102.176 136.332C95.0061 140.088 84.8687 138.884 77.9457 135.26C71.0226 131.635 67.5756 124.037 72.3316 117.715C75.2695 113.815 81.5236 109.247 88.083 110.248Z" fill="white"/>
<mask id="mask1_41_700" style="mask-type:luminance" maskUnits="userSpaceOnUse" x="70" y="110" width="41" height="29">
<path d="M88.083 110.248C96.7224 110.248 104.707 109.494 108.692 117.845C112.677 126.197 110.292 132.07 102.176 136.332C95.0061 140.088 84.8687 138.884 77.9457 135.26C71.0226 131.635 67.5756 124.037 72.3316 117.715C75.2695 113.815 81.5236 109.247 88.083 110.248Z" fill="white"/>
</mask>
<g mask="url(#mask1_41_700)">
<path d="M91.3555 117.512C92.0972 117.642 92.8681 117.512 93.6244 117.468C94.3807 117.425 95.2097 117.541 95.7478 118.034C96.4023 118.628 96.4023 119.658 95.9078 120.368C95.4133 121.079 94.5406 121.499 93.6389 121.688C92.7372 121.876 91.8063 121.833 90.89 121.818C88.7666 121.775 86.3668 121.731 84.956 120.281C84.5633 119.875 84.2724 119.295 84.476 118.773C84.6942 118.208 85.4068 117.947 86.0468 117.816C86.934 117.642 87.8503 117.613 88.752 117.7" fill="white"/>
<path d="M91.3554 126.574C91.9518 126.618 92.6644 126.734 93.2462 126.574C93.8425 126.574 93.7552 126.516 92.9844 126.429C91.7336 126.255 90.6282 125.733 89.6247 124.863L87.283 120.861C86.9921 116.975 88.1557 114.423 90.7737 113.176C91.2245 112.886 91.719 112.756 92.2717 112.756C92.2717 112.741 90.3664 112.741 90.2501 112.727C89.581 112.712 87.7194 112.306 90.0755 112.828L89.4647 112.683C91.9227 113.539 93.2898 115.569 93.5807 118.759L92.3444 123.341L92.7081 122.862L89.4501 126.11C88.8247 126.487 88.1557 126.69 87.4139 126.705C87.8648 126.69 88.3157 126.705 88.7665 126.748C93.5225 127.067 98.0749 122.34 97.8567 117.686C97.624 112.495 93.8571 108.972 88.7665 108.624C85.9013 108.421 82.7452 108.928 80.2581 110.465C76.2584 112.93 74.4695 117.773 75.8512 122.224C77.9165 128.822 84.7087 130.765 90.89 130.881C97.8713 131.011 105.202 127.285 105.347 119.411C105.42 115.554 103.267 111.799 99.8784 109.9C97.1004 108.348 94.3516 108.653 91.3409 108.435C86.5849 108.102 82.0325 112.843 82.2507 117.497C82.4834 122.703 86.2504 126.197 91.3409 126.56L91.3554 126.574Z" fill="black"/>
</g>
<path d="M75.255 180.933C75.2841 198.261 75.2987 215.588 75.3278 232.915C75.3278 237.047 78.0912 239.918 81.7272 241.31C88.214 243.775 95.8352 244.442 101.275 239.222C106.714 234.002 106.336 225.897 101.653 220.256C92.2864 208.976 73.2334 215.472 78.0621 231.131C81.8436 243.412 100.809 249.488 108.721 237.598C112.445 232.001 111.194 224.36 105.813 220.358C100.053 216.081 92.1846 215.921 85.5233 217.777L95.3844 221.779L94.7299 220.256L95.6025 226.955C91.7046 226.723 90.6138 227.912 92.33 230.522C92.6937 232.045 92.7809 233.582 92.6064 235.133C92.4028 242.673 102.293 246.617 107.5 241.281C118.233 230.29 108.198 216.777 95.8061 213.862C84.8834 211.296 80.2146 228.072 91.1665 230.638C92.0828 230.769 92.9555 231.015 93.8136 231.363C95.108 232.117 95.5589 231.334 95.1662 228.971L110.06 235.119C110.336 224.896 106.307 212.673 94.5262 211.629C82.7453 210.585 75.8223 220.01 80.3019 230.551C81.7709 234.017 86.7887 235.481 90.1629 234.553C92.8682 233.799 102.22 235.104 95.7334 226.68C94.0899 224.548 89.1303 225.563 86.3669 224.519L92.7664 232.915C92.7373 215.588 92.7227 198.261 92.6937 180.933C92.6791 169.74 75.2259 169.725 75.2405 180.933H75.255Z" fill="#FF6021"/>
<path d="M39.8251 180.933C39.796 198.26 39.7814 215.587 39.7523 232.915L46.1518 224.519C44.2611 225.23 37.7598 225.172 36.7853 226.68L37.7307 234.162C39.316 233.756 40.8577 233.9 42.3558 234.553C45.6719 235.481 50.7333 234.031 52.2168 230.551C56.6965 220.024 49.5552 210.6 37.9925 211.629C26.4298 212.659 22.1828 224.882 22.4592 235.118L37.3525 228.971C36.9453 231.32 37.3962 232.117 38.7052 231.363C39.5487 231.015 40.4359 230.769 41.3522 230.638C52.275 228.072 47.6499 211.296 36.7126 213.862C24.3208 216.776 14.2998 230.305 25.019 241.281C30.2113 246.602 40.1159 242.673 39.9123 235.133C39.7378 233.582 39.8251 232.045 40.1887 230.522C41.9049 227.927 40.8141 226.738 36.9162 226.955L37.7889 220.256L37.1344 221.779L46.9954 217.777C35.5781 214.601 14.5034 221.286 23.3609 236.786C30.6912 249.618 50.5588 243.775 54.4566 231.131C59.0526 216.196 41.294 208.932 31.5348 219.372C26.5316 224.722 25.3826 232.9 30.6331 238.482C35.8836 244.065 43.7666 243.949 50.7624 241.295C54.413 239.918 57.1619 236.989 57.1619 232.9C57.191 215.573 57.2055 198.246 57.2346 180.919C57.2491 169.725 39.796 169.711 39.7814 180.919L39.8251 180.933Z" fill="#FF6021"/>
<path d="M66.1006 110.373L8.60156 97.0332L5.18311 111.678L62.6821 125.017L66.1006 110.373Z" fill="#FF6021"/>
<path d="M64.7764 124.122L122.275 110.782L118.857 96.1374L61.3579 109.477L64.7764 124.122Z" fill="#FF6021"/>
</svg>
