<svg width="155" height="251" viewBox="0 0 155 251" fill="none" xmlns="http://www.w3.org/2000/svg">
<g clip-path="url(#clip0_41_760)">
<path d="M22.0373 187.089C18.8153 160.023 15.5636 132.831 16.3617 105.541C16.5539 99.199 16.9529 92.857 17.6181 86.5571C18.0171 82.7266 18.4605 78.8681 19.1995 75.0797C19.3473 74.1256 19.5543 73.1856 19.8203 72.2595C18.1501 70.9125 17.7511 71.6141 18.6083 74.3501C17.2486 80.0186 18.697 87.89 18.7414 93.6708C18.7857 101.037 18.8448 108.389 18.8892 115.756C18.9631 125.732 35.2952 125.76 35.2213 115.756C35.1474 105.751 35.0883 96.4349 35.0144 86.7675C34.97 79.5837 36.8471 69.4674 32.6791 62.985C28.7919 56.9377 20.4706 55.3662 13.8639 57.9058C6.6068 60.698 4.07939 66.7313 2.97087 73.6346C-3.10379 111.378 1.18247 149.402 5.66087 187.061C6.82851 196.869 23.1754 196.981 21.993 187.061L22.0373 187.089Z" fill="#FF6021"/>
<path d="M26.2349 103.843C50.1345 102.398 73.9897 100.378 97.7859 97.7538C108.989 96.5191 109.122 79.6679 97.7859 80.9167C73.9897 83.5264 50.1345 85.5609 26.2349 87.0061C14.8985 87.6936 14.8246 104.531 26.2349 103.843Z" fill="#FF6021"/>
<path d="M96.8841 75.8375C91.4598 62.5923 88.0012 48.7718 87.3509 34.5444C87.2031 31.2331 87.0553 27.8376 87.41 24.5403C87.5874 22.8426 87.8534 21.1588 88.4151 19.5312C88.5629 18.7736 88.8585 18.072 89.2723 17.4266C89.967 16.3743 89.967 16.2059 89.3019 16.9075C89.5827 17.0899 91.0607 22.6461 91.4154 23.7405C92.6865 27.6692 93.9429 31.5979 95.1844 35.5406C104.289 64.4163 112.61 93.5166 120.237 122.771C122.971 133.28 140.087 128.833 137.338 118.295C132.135 98.3432 126.622 78.4754 120.739 58.6917C117.739 48.5894 114.635 38.5011 111.443 28.4409C109.048 20.8782 107.393 11.5897 101.555 5.58447C96.1747 0.0141726 87.0701 -1.93613 80.1529 2.27316C73.2358 6.48245 70.5162 15.7429 69.7624 23.3196C67.8853 42.3316 72.5559 62.6905 79.7686 80.3274C83.8628 90.3175 101.023 85.9679 96.8693 75.8516L96.8841 75.8375Z" fill="#FF6021"/>
<path d="M116.882 80.8606C127.612 65.637 136.067 47.972 139.377 29.83C140.781 22.0849 141.21 12.9226 136.155 6.21585C131.1 -0.490957 121.39 -1.68359 114.014 2.45555C106.639 6.59468 102.9 15.0974 98.8796 21.9025C93.47 31.0647 88.1344 40.269 82.8726 49.5154C72.3639 68.0082 62.2099 86.6694 52.3663 105.485C47.3114 115.152 62.5942 123.697 67.6786 113.988C82.2371 86.1783 97.4754 58.6917 113.482 31.5979C116.483 26.5187 119.114 20.9624 123.296 16.7391L121.907 16.2059C122.232 17.0898 122.424 18.0019 122.454 18.9419C122.424 20.6537 122.602 22.2953 122.41 24.0211C122.055 27.3044 121.168 30.5455 120.281 33.7165C116.394 47.6072 109.98 60.4315 101.57 72.3578C95.1993 81.3938 110.556 89.8264 116.882 80.8606Z" fill="#FF6021"/>
<path d="M13.4648 197.233C51.2726 195.101 89.1542 194.792 126.992 196.335C138.402 196.798 138.387 179.961 126.992 179.498C89.1542 177.955 51.2726 178.25 13.4648 180.396C2.12838 181.042 2.0397 197.879 13.4648 197.233Z" fill="#FF6021"/>
<path d="M65.5206 125.297C56.7116 120.891 45.2422 113.034 35.2508 119.109C25.4072 125.1 28.1711 135.371 34.4083 142.569C39.6405 148.602 49.8832 143.425 49.9571 136.451C50.0753 126.672 44.9318 118.73 37.9556 111.869C31.6149 105.639 21.6678 99.8025 22.8059 90.0369L9.08982 97.5014C12.711 99.9147 13.1544 107.52 13.8786 111.252C15.1349 117.776 15.7557 124.399 16.4504 130.993C17.8249 143.846 19.0812 156.698 20.2489 169.564C25.9097 168.105 31.5705 166.66 37.2313 165.201C31.7183 156.263 30.935 145.543 35.7829 136.157L19.1256 134.094C20.441 141.755 20.9583 149.486 20.7218 157.245C20.6184 160.823 20.3819 164.415 19.9385 167.979C19.702 169.887 19.4064 171.767 19.0517 173.661C18.8891 174.517 17.9136 177.702 18.5048 177.239L24.949 174.7L23.6188 174.559L30.0629 177.099L29.1761 176.131L31.5262 184.55L31.7922 183.469L23.0128 189.825C57.5837 193.95 92.2728 197.935 127.198 196.434C138.89 195.929 138.963 179.484 127.198 179.134C105.575 178.474 84.0402 177.604 63.3184 171.122L65.4911 186.935C67.915 185.63 70.1321 184.718 72.9403 184.437C84.6167 183.259 84.6758 168.274 72.9403 167.137C59.0469 165.79 45.1387 165.117 31.1862 165.103L33.6102 182.094C48.0061 179.947 62.6681 180.579 77.1674 181.14V163.84C65.831 165.117 54.8789 164.555 43.8233 161.847V178.53C53.3122 176.173 62.6681 175.247 72.4673 175.584C81.3798 175.892 85.0453 163.433 77.064 159.462C67.915 154.916 59.4903 149.416 52.0263 142.611C48.5973 139.482 45.3161 136.157 42.3453 132.621C39.7292 129.52 34.6152 124.399 34.2162 120.33L22.6876 128.664C29.6047 130.993 31.7774 135.399 36.0637 140.366L36.7731 142.134C41.1185 140.478 42.3157 138.809 40.3943 137.125C39.6996 135.61 39.1823 135.118 37.8521 135.441C35.3542 136.044 39.6109 137.223 40.4534 137.798C41.6358 138.598 42.6704 139.594 43.6607 140.605C46.4394 143.467 45.8925 143.565 42.227 144.547C41.1037 144.828 39.9804 145.052 38.8276 145.235L40.2169 153.878C40.3795 153.639 37.9112 152.194 38.4285 153.008C38.8424 153.653 39.7587 155.225 40.5569 154.355C40.5717 154.341 39.005 148.7 39.1823 149.416C38.2364 145.389 37.453 141.306 36.9062 137.223C36.3593 133.14 36.0046 129.001 35.8272 124.862C35.7533 123.052 35.709 121.242 35.6942 119.432C35.6646 116.078 37.926 112.094 33.0485 116.415C28.7179 120.246 30.5211 118.127 32.9746 120.035C34.3196 121.073 35.7977 121.859 36.9653 123.122C37.9112 124.118 38.4729 125.339 39.3597 126.349L40.2317 128.061C49.2033 127.233 52.3663 124.946 49.7502 121.186C48.8633 117.931 46.5576 114.802 45.5378 111.462C44.518 108.123 43.779 104.657 43.5129 101.149C43.306 98.5818 44.5771 96.7017 41.3107 99.2272C38.0442 101.753 39.8918 100.771 42.2862 101.823C43.5573 102.384 44.9023 103.156 46.0256 103.956C46.8532 104.573 47.6366 105.246 48.3608 105.976C49.6024 107.253 49.4546 106.916 47.9322 104.98L48.8486 98.3152C49.898 96.407 46.9419 98.1749 45.7152 98.3573C43.6903 98.666 41.6358 98.7642 39.5814 98.6379C35.369 98.3854 31.4671 97.1506 27.7572 95.2985L23.1606 111.42C40.3352 110.831 56.9629 113.034 73.3246 118.001L75.7485 101.009C66.4518 101.991 57.0516 102.16 47.7548 100.953V117.636C59.6972 113.174 71.9944 110.199 84.794 109.175C96.3078 108.263 96.6921 91.7347 84.794 91.875C80.5225 91.9311 76.2658 91.9732 71.9944 92.0293L74.4183 109.021C83.2569 107.604 92.1102 106.201 100.949 104.783L96.1009 88.1007C82.3996 90.6122 68.388 94.9057 58.8548 105.134C50.2379 114.381 46.3212 127.163 51.036 139.005C54.7607 148.35 68.0628 161.09 79.1628 153.527C90.2627 145.964 82.843 128.636 75.985 120.793C71.7579 115.952 65.5945 111.294 58.5148 112.823C52.0854 114.226 49.0112 120.358 48.1096 125.942C46.4098 136.437 49.9423 150.174 62.1803 153.387C76.4875 157.133 87.7205 144.519 92.4945 133.336C94.8593 127.808 97.0025 121.073 94.0612 115.391C91.1199 109.708 83.5525 108.025 77.7734 111.322C71.9944 114.619 66.7474 122.463 68.0776 129.155C69.4078 135.848 76.7388 138.977 83.2864 136.858C97.6528 132.2 107.053 113.3 109.92 100.364C110.881 96.0422 108.62 90.6824 103.55 89.7283C89.1246 86.9922 74.3444 101.57 65.8162 111.125C60.451 117.145 65.3433 128.65 74.6844 125.577C83.2717 122.757 95.5097 120.863 102.235 114.717C109.181 108.375 111.975 96.5333 114.281 88.0305C119.867 67.5313 122.838 46.2323 126.785 25.4103L108.886 23.1092C109.743 76.9039 107.437 130.895 96.5295 183.806L114.428 186.107C112.891 169.087 112.61 152.04 113.556 134.978H95.3323C96.2191 141.446 95.7314 147.48 92.7014 153.415L109.359 155.477C107.171 141.222 110.246 126.826 113.157 112.879C115.419 102.061 98.3327 97.3611 95.5836 108.277C93.3222 117.243 90.3809 126.026 86.2868 134.389C84.7053 137.616 80.9068 141.966 80.2565 145.375C78.0838 147.382 78.4681 148.195 81.4389 147.788C84.6167 148.63 84.794 148.139 82.0006 146.315C80.8477 144.295 78.1873 142.358 76.6501 140.562L65.6093 154.144C70.2651 156.46 73.9897 159.406 76.6058 163.798C78.6602 167.249 79.1775 171.108 80.759 174.714C85.2522 184.914 95.0367 184.844 105.087 183.343C125.41 180.326 140.501 165.159 134.825 144.842C132.963 138.163 121.508 135.792 118.168 142.779C113.734 152.082 109.359 162.928 109.388 173.311C109.418 184.227 122.617 187.384 129.608 179.625C137.19 171.206 124.346 158.915 116.719 167.39L115.965 168.147L122.986 167.277L121.582 166.997L127.021 170.968C128.529 173.83 127.849 170.925 128.233 168.891C128.617 166.856 129.076 164.948 129.622 162.998C130.716 159.055 132.135 155.225 133.909 151.521L117.251 149.458C118.729 154.748 117.251 160.29 112.211 163.335C109.344 165.075 105.826 165.748 102.53 166.323C101.156 166.562 99.3673 166.478 98.0666 166.927L95.9087 167.109C97.505 168.905 97.9927 169.073 97.372 167.614C97.978 166.057 95.4062 161.398 94.7559 159.925C93.4552 156.937 91.8737 154.158 89.8636 151.549C85.873 146.357 80.7886 142.19 74.7878 139.215C65.225 134.459 57.3767 145.305 63.747 152.797C67.9446 157.736 73.6054 164.541 80.9807 164.738C88.3561 164.934 92.6867 159.448 95.9826 154.116C103.875 141.348 109.521 127.261 113.157 112.879L95.5836 108.277C91.9772 125.549 89.0803 142.485 91.7851 160.065C92.9084 167.362 105.191 168.484 108.442 162.128C112.847 153.513 114.887 144.519 113.571 134.95C112.093 124.174 95.9826 123.515 95.3471 134.95C94.3864 152.012 94.682 169.059 96.2191 186.079C97.032 195.101 112.004 198.637 114.118 188.38C125.336 133.94 127.997 78.4333 127.125 23.0812C126.977 13.7085 111.103 10.8602 109.226 20.7801C105.9 38.3469 102.929 56.0118 99.1308 73.4944C97.3276 81.7727 95.2141 90.1492 91.7851 97.9644C89.9228 102.216 88.43 102.749 83.8185 104.278C79.2071 105.808 74.507 107.337 69.866 108.866L78.7341 123.318C81.971 119.698 85.4 116.261 89.2429 113.216C91.1939 111.673 93.2335 110.27 95.3619 108.951C96.293 108.375 100.89 106.776 98.7318 106.369L92.3615 95.7335C91.2086 100.911 89.5089 105.695 86.5972 110.227C85.3705 112.136 84.055 113.904 82.5179 115.587C81.6902 116.499 77.7291 120.147 78.0099 120.161L84.4541 122.701C84.4689 128.033 85.1635 129.506 86.5233 127.107C87.3214 126.321 87.4101 126.082 86.7746 126.377L79.754 125.507C76.5171 124.09 78.5863 121.368 76.5023 124.637C75.6155 126.04 75.2017 128.019 74.3592 129.52C73.3689 131.26 70.5163 136.395 68.0333 136.465C65.5502 136.536 65.2694 128.734 65.5798 128.594L58.5592 129.464C61.3822 129.871 63.4071 133.21 64.5451 135.455C65.1955 136.732 65.3285 138.921 66.1857 140.015L66.4666 141.727L72.8664 138.346C72.8368 138.598 68.2254 133.308 67.9594 132.593C67.0134 130.067 66.9987 127.443 67.6638 124.862C71.1667 111.097 88.4447 107.042 100.993 104.741C112.581 102.623 107.57 86.2345 96.1452 88.0586C87.3067 89.4757 78.4533 90.8788 69.6148 92.2959C59.3573 93.9375 61.9586 109.4 72.0387 109.287C76.3102 109.231 80.5669 109.189 84.8384 109.133V91.8329C70.3981 92.9834 56.4456 95.8598 42.9513 100.911C35.7681 103.605 32.9451 116.303 42.9513 117.594C53.9625 119.025 64.7225 119.432 75.7929 118.267C85.6808 117.229 88.5482 104.419 78.2168 101.276C60.4362 95.8738 41.8575 93.4465 23.2049 94.0779C14.5881 94.3725 10.2722 106.018 18.6083 110.199C28.8805 115.349 40.3795 117.313 51.8194 114.816C61.7517 112.655 70.8415 104.18 62.4611 94.9338C56.5934 88.4655 45.7152 81.9551 36.3445 83.8212C24.3282 86.2205 24.609 97.5716 26.0279 106.902C27.4468 116.233 30.9054 129.604 39.005 135.792C47.9026 142.583 60.3328 135.61 58.2783 124.96C56.5934 116.191 48.5382 107.969 40.3647 104.124C31.6001 99.9989 20.0124 100.574 17.884 111.462C15.7557 122.35 18.1649 135.231 20.0567 146.006C21.6234 154.93 23.3823 167.951 34.4231 170.743C56.1943 176.243 66.5405 140.52 43.0843 136.844C33.758 135.385 24.1952 141.867 25.0081 151.324C25.9245 161.875 37.2018 163.335 46.0403 161.441C56.0909 159.28 65.1216 152.18 63.8505 141.615C62.7124 132.13 53.6374 123.95 44.784 120.344C33.5954 115.784 21.1652 121.48 20.6332 133.757C20.2045 143.663 30.1221 155.772 40.9707 155.968C54.6867 156.207 57.2733 143.228 52.7801 133.477C47.9618 123.038 38.8276 115.7 27.6242 111.939C22.3772 110.171 15.5636 114.886 16.0956 120.274C17.2928 132.453 27.2695 143.046 35.8863 151.577C45.1683 160.753 56.1057 168.442 67.9742 174.335L72.5708 158.213C61.2492 157.807 50.0458 159.041 39.0789 161.777C30.4324 163.924 30.3733 176.327 39.0789 178.46C51.6272 181.547 64.3973 182.515 77.2709 181.07C88.6664 179.793 89.2872 164.233 77.2709 163.77C61.0127 163.138 44.9762 162.928 28.8657 165.341C18.5344 166.885 21.2687 182.319 31.2897 182.333C45.257 182.333 59.1651 183.02 73.0438 184.367V167.067C66.8952 167.684 61.796 169.017 56.3865 171.922C49.2624 175.738 51.3464 185.476 58.5592 187.735C80.7295 194.68 104.127 195.662 127.287 196.364V179.063C92.3763 180.579 57.6871 176.58 23.1015 172.455C19.3029 172.006 15.1645 175.457 14.322 178.811C12.6666 185.377 16.9381 191.719 24.3873 191.874C31.8366 192.028 35.236 185.644 36.4775 179.512C39.8622 162.872 39.6701 146.105 36.7879 129.422C35.5464 122.168 23.4414 120.947 20.1306 127.359C12.3858 142.344 12.6371 159.378 21.5791 173.872C25.8949 180.873 39.3597 178.362 38.5616 169.508C37.0687 153.162 35.5759 136.788 33.5954 120.47C31.9696 107.113 30.935 90.8648 18.3718 82.4883C12.1198 78.3211 5.35043 84.1018 4.65576 89.9528C3.53247 99.592 8.72032 108.053 15.3566 114.956C21.3131 121.158 31.9105 127.009 31.807 136.367L47.3558 130.25C43.0991 132.481 42.3896 133.954 45.2422 134.683C46.5429 135.217 47.814 135.806 49.0407 136.479C51.4942 137.672 53.933 138.921 56.3717 140.142C66.7474 145.319 75.9702 130.39 65.565 125.199L65.5206 125.297Z" fill="#FF6021"/>
<path d="M73.3836 78.2927C68.4618 78.6294 63.2148 79.4432 58.3078 79.0504L62.7862 80.2009C65.3432 82.039 63.7174 80.8042 62.4019 79.1907C61.3821 77.9279 60.3327 76.6932 59.1355 75.5847C57.0515 73.6484 54.6571 71.8244 51.8784 70.9264C45.922 68.9902 39.5813 71.2912 36.4627 76.5388C33.9352 80.8042 34.1126 86.4026 36.5957 90.6399C37.9111 92.8709 39.9951 94.8212 42.36 96.0419C44.577 97.1924 47.4148 97.01 49.4692 98.1746C59.3129 103.717 68.2401 89.1667 58.426 83.6385C56.682 82.6563 54.258 81.3374 52.1297 81.3935C49.9274 80.6639 49.9865 81.2252 52.3366 83.0773C52.3662 84.1155 52.0262 85.0416 51.2872 85.8554L46.8088 87.0059L48.4642 87.034L43.9858 85.8834C48.6563 87.8618 50.0752 93.2637 54.9084 95.1579C60.244 97.2766 67.7967 95.5087 73.4132 95.1158C84.7348 94.3441 84.8235 77.507 73.4132 78.2787L73.3836 78.2927Z" fill="#FF6021"/>
<path d="M47.7254 82.7825C47.1637 79.9903 49.9867 72.0348 53.4305 72.8345C56.3274 73.508 57.3325 87.7074 57.8055 90.5276C58.5592 95.0175 64.4566 97.515 68.7132 96.4066C73.7533 95.0877 75.6747 90.5557 74.9062 86.0517C73.7385 79.1345 73.369 71.3192 69.4375 65.1877C65.5059 59.0561 58.2489 55.0292 50.4745 56.3482C35.5317 58.8878 27.9347 74.0833 30.6247 87.2584C32.7974 97.8798 49.8833 93.3899 47.7254 82.7825Z" fill="#FF6021"/>
<path d="M75.6747 189.965C75.7043 206.732 75.719 223.499 75.7486 240.266C75.7486 244.265 78.5568 247.043 82.2519 248.39C88.8439 250.775 96.5887 251.421 102.116 246.37C107.644 241.318 107.26 233.475 102.501 228.017C92.9823 217.101 73.6203 223.387 78.5273 238.54C82.3701 250.425 101.644 256.304 109.684 244.798C113.468 239.382 112.197 231.988 106.728 228.115C100.875 223.976 92.8789 223.822 86.1095 225.618L96.1305 229.49L95.4654 228.017L96.3522 234.499C92.3911 234.275 91.2826 235.425 93.0267 237.951C93.3962 239.424 93.4849 240.912 93.3075 242.413C93.1006 249.709 103.151 253.525 108.442 248.362C119.35 237.727 109.152 224.65 96.5591 221.829C85.4592 219.346 80.7148 235.58 91.8442 238.063C92.7754 238.19 93.6622 238.428 94.5342 238.765C95.8497 239.494 96.3079 238.737 95.9088 236.45L111.044 242.399C111.325 232.507 107.23 220.679 95.2585 219.669C83.2865 218.658 76.2511 227.779 80.8034 237.979C82.2962 241.333 87.3954 242.75 90.8244 241.852C93.5735 241.122 103.077 242.385 96.4852 234.233C94.8151 232.17 89.775 233.152 86.9668 232.142L93.4701 240.266C93.4405 223.499 93.4257 206.732 93.3962 189.965C93.3814 179.133 75.6451 179.119 75.6599 189.965H75.6747Z" fill="#FF6021"/>
<path d="M39.6702 189.965C39.6406 206.732 39.6258 223.5 39.5963 240.267L46.0995 232.143C44.1781 232.83 37.5714 232.774 36.5811 234.233L37.5418 241.473C39.1528 241.08 40.7195 241.221 42.2419 241.852C45.6118 242.75 50.7553 241.347 52.2629 237.979C56.8152 227.793 49.5581 218.673 37.8078 219.669C26.0576 220.665 21.7418 232.493 22.0226 242.399L37.1575 236.45C36.7437 238.723 37.2019 239.495 38.5321 238.765C39.3893 238.428 40.2909 238.19 41.2221 238.064C52.322 235.58 47.6219 219.346 36.5072 221.83C23.9145 224.65 13.7309 237.741 24.6239 248.362C29.9004 253.512 39.9658 249.709 39.7588 242.413C39.5815 240.912 39.6702 239.425 40.0397 237.951C41.7837 235.44 40.6752 234.289 36.7141 234.5L37.6009 228.017L36.9358 229.491L46.9568 225.618C35.3543 222.545 13.9378 229.014 22.939 244.013C30.3882 256.43 50.5779 250.776 54.539 238.541C59.2096 224.089 41.163 217.059 31.2454 227.162C26.161 232.339 24.9934 240.252 30.3291 245.654C35.6647 251.056 43.6756 250.944 50.7849 248.376C54.4947 247.043 57.2882 244.209 57.2882 240.252C57.3177 223.485 57.3325 206.718 57.3621 189.951C57.3768 179.12 39.6406 179.106 39.6258 189.951L39.6702 189.965Z" fill="#FF6021"/>
<path d="M131.263 144.533C135.283 144.407 138.165 149.935 137.264 153.499C136.362 157.063 130.007 155.688 126.903 155.491V172.328C136.347 172.258 145.201 167.067 147.861 158.087C150.211 150.173 146.945 140.197 137.84 137.896C127.716 135.329 120.68 144.014 119.927 152.643C119.513 157.47 120.074 162.338 120.488 167.137C120.872 171.543 123.016 180.214 121.124 184.227L126.43 180.354C125.307 180.438 124.198 180.41 123.075 180.27C118.301 179.653 113.615 181.364 112.167 186.149C110.985 190.078 113.615 195.886 118.36 196.504C123.695 197.205 130.76 198.524 135.061 194.413C139.362 190.302 138.993 183.497 138.963 178.376C138.934 172.09 137.929 165.86 137.648 159.588C137.485 155.884 139.732 148.321 130.967 152.503C130.967 153.387 130.613 154.144 129.918 154.776C129.031 155.421 128.026 155.66 126.903 155.477C115.389 155.575 115.611 171.585 126.903 172.314C140.56 173.184 154.926 168.764 155 153.485C155.059 140.59 145.954 127.205 131.263 127.682C119.882 128.047 119.823 144.884 131.263 144.519V144.533Z" fill="#FF6021"/>
<path d="M79.8278 19.2644C79.5469 30.882 79.6061 42.4295 82.163 53.8647C84.72 65.3 88.2821 75.7671 91.4598 86.6411C94.6375 97.5151 111.25 92.7025 108.56 82.1652C107.319 77.2824 105.176 69.2567 107.156 64.2757L98.5986 70.4494C95.8791 69.6215 95.48 69.6356 97.4014 70.5195C103.417 73.6484 110.497 69.7057 110.748 63.2515C110.881 59.9261 110.837 56.6569 110.63 53.3456C109.965 42.5698 92.2136 42.4997 92.8935 53.3456C93.1004 56.6569 93.1447 59.9402 93.0117 63.2515L106.358 55.9834C103.786 54.6505 101.673 53.3737 98.5986 53.6262C94.3419 53.963 91.5337 56.0676 90.0409 59.7998C86.9223 67.6011 89.4497 78.8118 91.445 86.6411L108.546 82.1652C105.604 72.105 102.353 62.0869 99.8402 51.9285C97.1797 41.1387 97.2684 30.2927 97.5345 19.2784C97.8005 8.2641 80.0643 8.4465 79.7982 19.2784L79.8278 19.2644Z" fill="#FF6021"/>
<path d="M116.882 123.08C117.961 129.857 120.621 136.143 124.671 141.811C130.228 149.584 143.324 144.898 140.885 135.329C140.102 132.242 139.304 129.155 138.52 126.068L121.419 130.544C122.484 132.972 123.459 135.399 124.213 137.938C124.553 139.019 124.848 140.099 125.085 141.208C129.504 136.339 132.017 136.199 132.593 140.801L128.204 148.069C124.435 150.061 127.332 149.598 130.347 150.707C135.579 152.629 141.89 147.676 141.58 142.583C141.225 136.956 141.58 130.741 139.614 125.381C137.648 120.021 136.052 114.998 134.5 109.484C131.573 99.0166 114.458 103.464 117.399 113.96C118.7 118.604 119.262 123.332 121.346 127.766C123.622 132.635 123.504 137.265 123.843 142.597L135.076 134.473C128.913 132.214 120.281 129.744 116.084 136.549C112.211 142.835 117.473 149.823 123.356 152.657C129.962 155.842 138.372 153.33 141.58 146.946C144.787 140.562 141.225 132.186 138.535 126.082C134.249 116.373 118.656 119.684 121.434 130.558C122.218 133.645 123.016 136.732 123.799 139.819L140.013 133.336C136.673 128.664 134.899 124.216 134.012 118.618C132.312 107.94 115.212 112.472 116.912 123.094L116.882 123.08Z" fill="#FF6021"/>
<path d="M42.966 150.889C36.4775 147.564 33.0928 152.587 26.8851 153.583C21.18 154.481 16.199 150.777 15.6226 145.361C14.8097 137.897 20.1454 133.266 26.7078 131.386C35.9011 127.654 48.2425 126.924 55.4257 133.912C64.2643 142.485 54.6867 156.881 42.966 150.875V150.889Z" fill="white"/>
<mask id="mask0_41_760" style="mask-type:luminance" maskUnits="userSpaceOnUse" x="15" y="128" width="44" height="26">
<path d="M42.966 150.889C36.4775 147.564 33.0928 152.587 26.8851 153.583C21.18 154.481 16.199 150.777 15.6226 145.361C14.8097 137.897 20.1454 133.266 26.7078 131.386C35.9011 127.654 48.2425 126.924 55.4257 133.912C64.2643 142.485 54.6867 156.881 42.966 150.875V150.889Z" fill="white"/>
</mask>
<g mask="url(#mask0_41_760)">
<path d="M18.0021 135.778C20.3079 138.233 21.9485 141.124 24.8454 143.046C27.9788 145.122 31.5556 145.824 35.3098 146.063C43.1581 146.568 50.8881 144.056 54.8196 137.167C63.6582 121.691 36.4478 116.85 26.8703 124.329C21.4755 128.538 20.2931 135.82 26.3677 140.029C31.2009 143.369 42.4634 145.67 47.2522 141.053C52.4252 136.058 49.8239 127.008 43.7049 124.034C37.5859 121.059 27.9788 120.751 22.4214 124.343C15.3269 128.917 15.4008 138.696 22.8796 142.92C30.3584 147.143 40.4681 145.74 47.8286 142.92C55.6621 139.931 52.2331 127.724 44.2961 130.755C41.8131 131.709 39.3152 132.481 36.64 132.705C35.2506 132.817 33.5361 132.382 32.2207 132.663L30.7575 132.41L29.9445 134.655C29.8263 134.529 34.7186 134.866 35.1915 134.824C35.7088 134.866 36.2261 134.936 36.7287 135.048C37.6598 135.371 37.645 134.95 36.6843 133.785L40.3942 130.797L38.6501 130.755L36.906 130.657C35.1767 129.787 34.6299 130.278 35.295 132.158C35.1767 135.469 35.2654 133.336 36.9356 133.435C38.0145 133.491 40.0099 133.364 41.0297 133.252L43.025 133.449L43.0694 131.386C43.2467 131.498 40.3646 133.224 39.936 133.35C33.344 135.203 31.0826 130.825 27.3876 126.868C21.712 120.779 12.3413 129.73 18.0021 135.778Z" fill="black"/>
</g>
<path d="M88.9619 151.043C95.347 147.536 98.8794 152.461 105.117 153.288C110.837 154.032 115.699 150.188 116.128 144.758C116.704 137.265 111.236 132.803 104.599 131.105C95.3026 127.64 82.9464 127.247 75.9701 134.431C67.3976 143.256 77.4334 157.371 88.9619 151.043Z" fill="white"/>
<mask id="mask1_41_760" style="mask-type:luminance" maskUnits="userSpaceOnUse" x="72" y="128" width="45" height="26">
<path d="M88.9619 151.043C95.347 147.536 98.8794 152.461 105.117 153.288C110.837 154.032 115.699 150.188 116.128 144.758C116.704 137.265 111.236 132.803 104.599 131.105C95.3026 127.64 82.9464 127.247 75.9701 134.431C67.3976 143.256 77.4334 157.371 88.9619 151.043Z" fill="white"/>
</mask>
<g mask="url(#mask1_41_760)">
<path d="M103.92 126.461C100.343 130.53 98.244 134.936 91.6224 133.476C91.386 133.42 87.7057 131.652 88.1491 131.456V133.659C88.8142 133.561 89.4645 133.462 90.1296 133.35C91.4599 133.561 92.864 133.112 94.2385 133.392C94.2829 133.392 96.4851 134.108 96.3521 134.164L96.2043 130.207L94.5341 130.6C93.6769 130.712 92.8196 130.797 91.9624 130.825C90.3661 130.712 90.6765 131.246 92.8935 132.41C94.6672 132.915 95.1549 133.645 94.342 134.571C93.6325 135.441 93.9725 135.539 95.3914 134.908C96.5886 134.936 97.8597 134.473 99.0569 134.403C101.097 135.104 101.747 134.739 101.023 133.308C101.2 132.256 100.875 131.933 100.047 132.354C99.249 132.115 96.6034 132.747 95.7904 132.733C92.7753 132.719 89.9966 132.003 87.1884 131.021C79.1627 128.215 75.6894 140.394 83.6559 143.186C90.4696 145.571 98.7613 146.357 105.708 143.901C112.655 141.446 116.734 134.108 112.581 127.682C105.457 116.653 78.2463 121.227 81.7345 136.283C85.1339 151.029 116.261 141.362 107.807 127.808C101.259 117.299 74.9356 117.607 75.0834 132.522C75.1573 140.73 85.0009 146.118 92.6275 146.189C96.5442 146.231 101.008 145.796 104.54 144.084C108.649 142.091 110.482 138.57 113.305 135.357C118.744 129.169 109.403 120.203 103.92 126.447V126.461Z" fill="black"/>
</g>
</g>
<defs>
<clipPath id="clip0_41_760">
<rect width="155" height="251" fill="white"/>
</clipPath>
</defs>
</svg>
