<svg width="345" height="226" viewBox="0 0 345 226" fill="none" xmlns="http://www.w3.org/2000/svg">
<g clip-path="url(#clip0_41_827)">
<path d="M21.067 163.855C18.3268 128.587 15.5865 93.224 16.4276 57.8062C16.6311 49.3201 17.0245 40.8204 17.7028 32.3616C18.0012 28.5142 19.7105 22.7022 18.9644 19.0049L19.3306 17.0403C16.0478 13.5067 14.7048 12.8109 15.3017 14.9256C15.2338 14.9938 15.4916 20.5602 15.4916 19.8644C15.6408 37.6688 15.6544 55.4732 15.7358 73.2776C15.79 83.8102 32.0687 83.8375 32.0145 73.2776C31.9602 61.7082 31.9059 50.1251 31.8517 38.5556C31.811 29.3465 33.5474 18.0908 30.5765 9.24999C27.877 1.20049 18.9237 -2.4559 11.4626 1.7735C2.61785 6.76692 2.68567 18.1317 1.87174 27.0135C-2.27933 72.5818 1.26129 118.368 4.78834 163.855C5.60228 174.292 21.881 174.374 21.067 163.855Z" fill="#FF6021"/>
<path d="M49.7312 163.855C46.991 128.587 44.2507 93.224 45.0918 57.8062C45.2953 49.3201 45.6887 40.8204 46.3669 32.3615C46.6654 28.5142 48.3747 22.7022 47.6285 19.0048L47.9948 17.0402C44.7119 13.5066 43.369 12.8108 43.9658 14.9255C43.898 14.9937 44.1558 20.5602 44.1558 19.8644C44.305 37.6688 44.3185 55.4732 44.3999 73.2776C44.4542 83.8102 60.7329 83.8374 60.6786 73.2776C60.6244 61.7081 60.5701 50.125 60.5159 38.5556C60.4752 29.3464 62.2116 18.0907 59.2407 9.24993C56.5411 1.21407 47.5879 -2.44231 40.1268 1.77344C31.282 6.76686 31.3498 18.1453 30.5495 27.0271C26.3984 72.5954 29.939 118.382 33.4661 163.869C34.28 174.306 50.5587 174.388 49.7448 163.869L49.7312 163.855Z" fill="#FF6021"/>
<path d="M78.3958 163.855C75.6555 128.587 72.9153 93.224 73.7563 57.8062C73.9598 49.3201 74.3532 40.8204 75.0315 32.3615C75.3299 28.5142 77.0392 22.7022 76.2931 19.0048L76.6594 17.0402C73.3765 13.5066 72.0335 12.8108 72.6304 14.9255C72.5626 14.9937 72.8203 20.5602 72.8203 19.8644C72.9695 37.6688 72.9831 55.4732 73.0645 73.2776C73.1188 83.8102 89.3975 83.8374 89.3432 73.2776C89.2889 61.7081 89.2347 50.125 89.1804 38.5556C89.1397 29.3464 90.8761 18.0907 87.9052 9.24993C85.2057 1.21407 76.2524 -2.44231 68.7913 1.77344C59.9466 6.76686 60.0144 18.1453 59.214 27.0271C55.063 72.5954 58.6036 118.382 62.1306 163.869C62.9446 174.306 79.2233 174.388 78.4093 163.869L78.3958 163.855Z" fill="#FF6021"/>
<path d="M24.8115 82.91C46.747 81.5048 68.6419 79.5401 90.4825 76.9888C100.765 75.7882 100.887 59.4027 90.4825 60.617C68.6419 63.1546 46.747 65.1329 24.8115 66.5381C14.4067 67.2067 14.3388 83.5785 24.8115 82.91Z" fill="#FF6021"/>
<path d="M13.0773 173.719C47.7781 171.646 82.5467 171.346 117.275 172.846C127.747 173.296 127.734 156.925 117.275 156.474C82.5467 154.974 47.7781 155.26 13.0773 157.348C2.67252 157.975 2.59112 174.347 13.0773 173.719Z" fill="#FF6021"/>
<path d="M61.4926 106.403C53.5025 102.338 43.0706 94.9568 34.0901 100.66C25.1097 106.363 27.6465 115.967 33.3576 122.68C38.1056 128.274 47.1809 123.58 47.2488 116.895C47.3573 107.7 42.6636 100.278 36.3692 93.9608C30.753 88.3262 21.4877 82.8552 22.5323 73.8098L10.2825 80.877C13.5654 83.1008 14.0266 89.9088 14.7185 93.5515C15.8037 99.2407 16.3599 105.012 16.9568 110.769C18.2455 123.048 19.4393 135.341 20.5381 147.633L35.7044 143.499C30.6987 135.218 29.9662 125.436 34.3886 116.69C29.4236 116.036 24.4721 115.381 19.5071 114.739C20.7009 121.834 21.1757 128.997 20.9722 136.187C20.8773 139.57 20.6466 142.94 20.2261 146.296C19.9819 148.234 19.1816 154.4 18.8967 154.632L24.6485 152.231L23.4412 152.108L29.193 154.509L28.379 153.609L30.4681 161.577L30.7123 160.581L22.8578 166.584C54.3571 170.417 85.9514 174.115 117.736 172.709C128.181 172.246 128.249 156.665 117.736 156.338C98.0519 155.724 78.436 154.932 59.5121 148.902L61.4519 163.869C63.7174 162.627 65.7251 161.849 68.3161 161.577C78.7481 160.512 78.8023 146.242 68.3161 145.205C55.6594 143.963 43.0027 143.336 30.2918 143.322L32.4623 159.407C45.5938 157.402 58.9559 158.002 72.1823 158.534V142.162C61.8589 143.349 51.8611 142.844 41.7683 140.32V156.106C50.4231 153.923 58.983 153.077 67.8956 153.377C75.7772 153.65 79.2364 141.794 72.006 138.124C64.0158 134.072 56.5412 129.215 49.894 123.171C46.6112 120.183 43.5047 116.977 40.6423 113.58C38.1734 110.66 33.3712 105.83 32.8964 101.942L22.5865 109.842C28.2705 111.793 30.8887 115.312 34.4021 119.787C34.8634 120.565 35.2432 121.384 35.5281 122.243L39.0551 117.987C39.0551 116.663 35.6231 115.531 35.5145 116.622C35.5145 116.595 41.7276 120.633 42.3516 121.643C44.2779 124.781 42.5279 122.639 39.3536 124.535L37.9156 124.849L38.499 133.281L37.1695 131.739L36.8846 132.476C38.811 132.326 38.3362 135.45 38.4176 132.98C38.4718 131.48 37.4544 129.229 37.1288 127.714C36.3013 123.921 35.5959 120.088 35.1347 116.24C34.7413 112.911 34.4835 109.555 34.3343 106.199C34.2394 104.098 34.2122 101.997 34.2122 99.9093C34.2122 96.8259 35.6095 94.8203 31.8925 98.4358C28.1755 102.051 29.7085 100.1 31.9739 101.86C33.2626 102.856 34.47 103.456 35.6502 104.698C36.4912 105.585 37.0203 106.84 37.8478 107.659L38.6617 109.2L47.5608 103.634C47.8999 102.106 43.8574 95.8845 43.2198 93.7971C42.2566 90.6182 42.5415 86.1296 41.2528 83.2782L41.1714 80.9315L37.6036 84.0149C37.7121 84.2468 40.1404 84.8199 40.4388 84.9426C41.9039 85.5839 43.3147 86.5116 44.5628 87.5076C46.2585 88.8582 46.5976 90.8911 45.6345 87.7804L46.4484 81.4773C47.4387 79.6354 44.4949 81.2863 43.4775 81.45C41.6326 81.7365 39.747 81.8183 37.8749 81.7092C34.0494 81.4773 30.4274 80.3585 27.0225 78.6258L22.9121 93.879C38.5397 93.3469 53.6924 95.3661 68.6417 99.9775L70.8122 83.8921C61.5333 84.8881 52.363 84.7789 43.1113 83.551L45.2817 99.6364C56.202 95.4752 67.4072 92.7329 79.0601 91.7915C89.3563 90.9593 89.6819 75.2969 79.0601 75.4197C75.1803 75.4606 71.287 75.5152 67.4072 75.5561L69.5777 91.6415C77.6357 90.3317 85.6936 89.022 93.738 87.7122L89.4106 71.927C76.781 74.2873 63.7988 78.3393 55.0354 88.3671C47.3302 97.1943 44.1558 109.309 48.8766 120.333C52.4986 128.819 64.3685 139.775 73.8509 132.926C83.903 125.668 76.9574 109.296 70.6087 101.942C66.8646 97.6172 61.262 93.3332 55.1711 94.8613C49.4193 96.3074 46.6247 101.86 45.7837 107.29C44.1151 118.096 48.3476 131.098 60.3531 133.144C73.2676 135.341 82.872 122.748 86.7517 111.956C88.5288 107.031 89.8718 100.919 86.7246 96.2392C82.9127 90.5773 76.0485 90.9184 71.0835 94.7658C66.5119 98.2994 62.2116 105.271 64.1379 111.274C66.2677 117.918 73.8373 119.624 79.562 116.663C91.242 110.606 99.0693 95.8709 101.769 83.5101C102.651 79.4581 100.589 74.3146 96.0849 73.4414C83.1297 70.9311 69.7541 84.3423 61.8725 93.3469C56.8668 99.0634 61.5605 109.787 69.7948 107.031C80.4031 103.47 93.6838 101.683 99.0829 90.6728C103.709 81.259 89.6684 72.9502 85.0289 82.405C82.2751 88.0124 71.0971 89.3494 65.4673 91.2458L73.3896 104.93C76.3334 101.56 79.467 98.3403 82.9669 95.5571C84.744 94.1382 86.6432 92.8421 88.5831 91.6278C89.3699 91.1367 93.4532 89.5677 91.7846 89.2403L86.1006 79.1716C85.0425 84.0013 83.4824 88.408 80.8372 92.5828C79.4535 94.7658 74.4342 101.847 72.8877 101.737L78.6395 104.139C78.5446 109.282 79.155 110.715 80.4845 108.45C81.1899 107.672 81.312 107.454 80.8236 107.809L74.5563 106.99C72.7656 103.511 71.7482 103.361 71.4905 106.554C70.9885 108.068 70.3238 109.514 69.4963 110.878C68.6281 112.366 66.0235 116.922 63.8802 116.895C61.6283 116.854 60.8143 110.169 61.4791 109.855L55.2118 110.674C58.1555 111.097 60.0954 114.589 61.1806 117.086C61.574 118 61.7639 120.292 62.3473 120.947C62.3744 122.816 63.3782 122.598 65.3317 120.265C68.3568 119.569 69.0894 118.914 67.5564 118.3C67.2851 117.182 64.1922 115.053 63.5682 113.389C62.6728 110.988 62.7 108.518 63.3647 106.076C66.8375 93.3059 82.6956 89.7996 93.7652 87.7395C104.129 85.8022 99.6391 70.2898 89.4377 71.9543C81.3798 73.264 73.3218 74.5738 65.2774 75.8835C56.1071 77.3707 58.4404 92.0644 67.4479 91.9689C71.3277 91.928 75.221 91.8734 79.1008 91.8325V75.4606C65.9964 76.5248 53.299 79.1988 40.995 83.8921C32.0689 87.2893 34.063 98.7632 43.1655 99.9775C52.268 101.192 61.5876 101.315 70.8664 100.319C79.6705 99.3772 82.3158 87.0983 73.0369 84.2332C56.8125 79.2261 39.9369 76.975 22.9799 77.548C15.3561 77.8072 11.3271 88.9537 18.8696 92.8011C27.9856 97.4535 37.78 99.2135 47.8999 97.3034C57.1652 95.5571 66.4441 87.7804 58.6167 78.3939C53.5975 72.3636 44.0337 66.9609 36.0571 67.8886C24.7841 69.212 24.3636 80.0584 25.6388 89.1038C26.9139 98.1493 30.1019 110.646 37.4815 116.54C45.336 122.816 56.704 116.568 54.7777 106.335C53.2176 98.0401 45.8379 90.4545 38.5261 86.9073C31.2142 83.36 20.823 83.0872 18.4355 92.7466C16.0479 102.406 18.5304 115.899 20.2668 125.954C21.6912 134.208 23.197 145.368 32.2724 148.602C52.675 155.874 62.7407 119.064 39.9912 117.1C32.001 116.404 24.0787 122.284 24.7841 130.866C25.6252 140.907 35.8672 142.121 43.7353 140.389C52.3901 138.479 60.3396 132.435 59.9597 122.775C59.5799 113.116 50.5859 105.326 42.5686 101.942C33.0456 97.931 22.0168 102.256 20.9451 113.443C19.9819 123.403 29.41 135.723 39.9233 135.354C51.7118 134.945 53.7602 123.116 49.772 114.194C45.3767 104.384 36.966 97.549 26.9682 94.1245C22.383 92.5556 16.0343 96.8532 16.6584 102.024C18.0827 113.798 27.0496 123.662 35.2025 131.766C43.3554 139.87 53.3126 147.019 63.8259 152.34L67.9363 137.087C57.64 136.732 47.4794 137.878 37.4815 140.389C29.7356 142.34 29.7085 154.237 37.4815 156.174C48.9173 159.039 60.5023 159.953 72.223 158.602C82.4243 157.429 82.9398 142.653 72.223 142.231C57.4365 141.644 42.8535 141.453 28.1755 143.69C18.9509 145.096 21.3928 159.762 30.346 159.776C43.057 159.776 55.7273 160.417 68.3704 161.658V145.287C62.8221 145.86 58.1962 147.128 53.2854 149.816C46.8825 153.309 48.8088 162.723 55.2253 164.783C75.4516 171.236 96.7089 172.15 117.776 172.805V156.433C85.9921 157.838 54.3978 154.141 22.8985 150.307C19.48 149.898 15.8309 153.145 15.0441 156.31C13.5111 162.532 17.4452 168.494 24.0516 168.644C30.658 168.794 33.7646 162.845 34.9176 157.061C37.997 141.603 37.8207 125.981 35.2025 110.483C34.0359 103.579 23.3598 102.529 20.3211 108.532C13.2805 122.421 13.5247 138.451 21.6369 151.863C25.5574 158.343 37.5629 156.201 36.8033 147.729C35.406 132.148 34.0494 116.54 32.1367 101.014C30.6445 88.8446 29.4507 74.2736 18.4897 66.8244C12.8329 62.9907 6.89114 68.2706 6.23999 73.8916C5.20901 82.9234 9.95696 90.8638 15.9394 97.2079C21.2164 102.802 31.065 108.327 30.9701 116.977L44.8612 111.192C41.09 113.471 40.5067 114.93 43.1113 115.558C44.305 116.036 45.4717 116.581 46.5976 117.223C48.8359 118.328 51.0471 119.487 53.2719 120.62C62.5914 125.368 70.8529 111.247 61.4926 106.485V106.403Z" fill="#FF6021"/>
<path d="M70.1884 166.652C70.2155 182.956 70.2291 199.259 70.2562 215.563C70.2562 219.451 72.8337 222.153 76.2251 223.462C82.2753 225.782 89.3837 226.409 94.4572 221.498C99.5986 216.518 99.178 208.96 94.8099 203.653C86.0737 193.038 68.3028 199.15 72.8065 213.885C76.3336 225.441 94.0231 231.157 101.403 219.97C104.876 214.704 103.709 207.514 98.6897 203.748C93.3177 199.723 85.9787 199.573 79.7657 201.32L88.9632 205.085L88.3527 203.653L89.1666 209.956C85.5311 209.737 84.5136 210.856 86.1144 213.312C86.4535 214.744 86.5349 216.191 86.3721 217.65C86.1822 224.745 95.4068 228.456 100.263 223.435C110.275 213.094 100.914 200.378 89.3566 197.636C79.1688 195.221 74.8142 211.006 85.0291 213.421C85.8838 213.544 86.6977 213.776 87.4981 214.103C88.7054 214.813 89.1259 214.076 88.7597 211.852L102.651 217.637C102.909 208.018 99.1509 196.517 88.1628 195.535C77.4188 194.58 70.7174 203.421 74.8956 213.339C76.2658 216.6 80.9459 217.978 84.0931 217.105C86.6163 216.395 95.339 217.623 89.2887 209.696C87.7558 207.691 83.13 208.646 80.5525 207.664L86.5213 215.563C86.4942 199.259 86.4806 182.956 86.4535 166.652C86.44 156.12 70.1612 156.106 70.1748 166.652H70.1884Z" fill="#FF6021"/>
<path d="M37.1424 166.652C37.1152 182.956 37.1017 199.259 37.0745 215.563L43.0434 207.664C41.2799 208.332 35.216 208.278 34.3072 209.696L35.1889 216.736C36.6676 216.354 38.1055 216.491 39.5028 217.105C42.5957 217.978 47.3166 216.614 48.7002 213.339C52.8784 203.434 46.2177 194.566 35.4331 195.535C24.6485 196.503 20.6873 208.005 20.945 217.637L34.8362 211.852C34.4564 214.062 34.8769 214.813 36.0978 214.103C36.8846 213.776 37.7121 213.544 38.5667 213.421C48.7545 211.006 44.4406 195.221 34.2393 197.636C22.6814 200.378 13.3348 213.107 23.3326 223.435C28.1755 228.442 37.4137 224.745 37.2238 217.65C37.061 216.191 37.1424 214.744 37.4815 213.312C39.0822 210.87 38.0648 209.751 34.4292 209.956L35.2432 203.653L34.6327 205.085L43.8302 201.32C33.1812 198.332 13.5247 204.621 21.7861 219.206C28.6232 231.28 47.1538 225.782 50.7893 213.885C55.0761 199.832 38.5125 192.997 29.41 202.82C24.7434 207.855 23.6717 215.549 28.5689 220.802C33.4661 226.055 40.8186 225.946 47.3437 223.449C50.7486 222.153 53.3125 219.397 53.3125 215.549C53.3397 199.246 53.3532 182.942 53.3804 166.638C53.3939 156.106 37.1152 156.092 37.1017 166.638L37.1424 166.652Z" fill="#FF6021"/>
<path d="M125.482 160.908L124.803 142.135L114.493 150.034C122.497 152.968 130.487 155.901 138.491 158.834C144.351 160.976 150.51 163.391 156.845 163.405C171.103 163.418 176.312 146.46 169.448 135.586C166.273 130.552 160.644 127.196 155.773 124.044C149.153 119.774 142.479 115.462 136.293 110.565C123.677 100.564 112.716 87.2756 113.951 70.1943C114.521 62.2676 117.112 53.9043 120.164 46.5915C123.555 38.4738 127.869 36.7274 136.293 36.6319C141.231 36.5774 148.964 34.9402 153.142 38.3646C155.679 40.452 156.804 44.3131 158.853 46.8917C161.281 49.9614 164.32 52.3489 168.159 53.3858C184.641 57.8335 188.48 36.2499 183.854 25.0216C177.763 10.2323 160.657 6.04384 146.088 6.08477C137.799 6.09841 129.388 8.18583 121.195 9.31821C113.001 10.4506 106.001 13.0019 99.5984 17.7634C86.9417 27.1636 79.44 42.6077 80.3353 58.4611C80.9322 68.9391 97.2109 69.0073 96.614 58.4611C96.0171 47.9149 100.521 37.164 109.352 30.7654C114.154 27.2863 119.73 25.8129 125.536 25.1853C131.966 24.5031 138.369 22.634 144.826 22.4839C150.931 22.3475 157.89 23.016 163.465 25.7037C165.866 26.8634 167.765 28.5824 168.851 31.0655C169.258 31.9933 169.597 33.303 169.692 34.2853C169.814 35.4859 168.661 38.2691 170.587 37.2868C172.391 36.3591 170.967 35.8679 170.058 34.3262C169.353 33.1256 168.674 31.9387 167.888 30.7926C166.138 28.255 164.089 26.0039 161.525 24.2848C156.723 21.0514 150.944 20.0964 145.26 20.0554C133.892 19.9736 121.141 19.5233 112.513 28.255C103.885 36.9867 100.331 51.7623 98.486 63.168C93.9551 91.2321 110.6 112.147 132.047 127.7C137.582 131.712 143.32 135.395 149.018 139.147C150.985 140.443 158.188 144.154 156.14 147.592C157.035 146.078 156.14 147.319 154.702 146.828C153.454 146.392 152.07 146.201 150.781 145.832C148.082 145.041 145.437 144.031 142.791 143.063C134.788 140.129 126.797 137.196 118.794 134.263C113.883 132.462 108.308 137.142 108.484 142.162L109.162 160.935C109.542 171.441 125.821 171.495 125.441 160.935L125.482 160.908Z" fill="#FF6021"/>
<path d="M134.638 20.4103C120.109 17.4634 104.428 21.6791 95.2709 33.9717C86.1141 46.2642 85.5037 66.1561 88.054 81.0817C89.3292 88.5582 92.2051 95.7619 96.8174 101.792C101.932 108.464 109.298 112.461 114.955 118.546C119.987 123.949 123.202 129.665 129.483 133.881C134.896 137.524 142.886 140.102 146.739 145.614L155.936 133.595C135.479 126.023 115.022 118.423 94.5519 110.851L90.2245 126.636C102.176 129.774 113.869 133.608 125.359 138.151C134.258 141.671 139.061 127.96 131.627 123.185C121.398 116.622 111.17 110.046 100.941 103.484C97.1565 101.055 93.0868 97.5764 88.3253 97.8902C83.2382 98.2176 80.6065 101.983 78.124 105.994C72.6978 114.767 64.5448 124.726 63.8801 135.436C63.3104 144.591 68.7637 151.89 77.0523 155.164C83.3603 157.661 93.9415 159.762 99.9646 155.765C107.439 150.799 105.852 136.105 102.935 128.997C99.6933 121.111 91.7981 115.026 82.994 116.868C74.5834 118.628 68.8044 126.718 71.2327 135.286C77.0252 155.778 121.195 151.972 112.418 128.983L97.5363 135.286C99.8561 140.334 99.0421 145.601 96.2612 150.239C90.8349 159.285 104.902 167.525 110.315 158.507C116.284 148.547 116.379 137.442 111.59 127.032C107.765 118.71 93.3988 124.658 96.7088 133.335C98.0925 132.053 97.8212 131.753 95.8949 132.435C94.579 132.435 93.2632 132.367 91.9609 132.217C90.2381 131.971 86.1684 129.542 86.3176 132.79C86.3176 132.912 87.3486 133.963 87.6877 134.659C89.1664 137.715 87.9455 140.662 88.6102 143.69L88.4474 146.174C93.643 142.64 94.4569 141.016 90.8756 141.33C89.4648 140.88 87.6742 141.126 86.1819 140.825C81.963 140.007 79.3313 139.011 80.5658 134.29C81.8817 129.229 86.0599 124.29 88.7187 119.924C89.3699 118.86 93.9415 112.857 93.5616 111.956C86.8738 112.188 85.0696 113.089 88.1761 114.671L91.5811 116.854C102.189 123.662 112.798 130.484 123.392 137.292L129.66 122.325C118.17 117.782 106.476 113.948 94.5248 110.81C84.2421 108.109 80.498 123.007 90.1974 126.596C110.654 134.168 131.111 141.767 151.582 149.339C158.066 151.74 164.754 143.022 160.779 137.319C154.146 127.81 143.469 125.272 135.262 117.864C130.731 113.771 127.978 108.068 123.325 103.961C118.265 99.5001 112.201 95.9119 108.484 90.1272C101.837 79.7856 101.959 64.6553 104.509 53.004C107.195 40.6978 117.871 33.6443 130.297 36.1682C140.526 38.242 144.907 22.4705 134.625 20.383L134.638 20.4103Z" fill="#FF6021"/>
<path d="M101.105 38.7879C110.6 28.1734 119.92 21.802 134.245 20.4514C140.852 19.8238 148.53 18.0092 155.096 19.319C160.128 20.3149 167.169 26.3043 166.993 31.8298L177.302 23.9304C176.543 23.7121 173.803 18.0502 173.314 17.3816C171.469 14.8713 169.462 12.6065 167.196 10.4918C159.518 3.34277 147.974 14.8986 155.679 22.0749C161.919 27.8869 164.185 37.1507 172.975 39.7292C178.198 41.2573 183.122 37.0552 183.285 31.8298C183.583 22.1431 176.99 13.8617 169.584 8.32255C161.051 1.95116 151.365 2.48325 141.272 3.42463C131.179 4.36601 121.616 4.72073 112.554 8.9092C103.492 13.0977 96.1531 19.9056 89.6009 27.2184C82.6146 35.036 94.0911 46.6464 101.118 38.8015L101.105 38.7879Z" fill="#FF6021"/>
<path d="M26.5613 105.612C33.5069 99.9367 41.1986 101.806 48.836 104.644C56.4734 107.481 60.1226 94.9024 52.3088 91.9964C39.7606 87.3304 28.0535 87.5896 17.3503 96.3349C10.8388 101.656 20.1177 110.892 26.5749 105.612H26.5613Z" fill="black"/>
<path d="M105.106 96.3349C94.4029 87.5896 82.6958 87.3304 70.1476 91.9964C62.3339 94.9024 65.7117 107.591 73.6204 104.644C81.5292 101.697 88.9495 99.9367 95.8951 105.612C102.352 110.892 111.645 101.669 105.12 96.3349H105.106Z" fill="black"/>
<path d="M340.198 163.855C343.725 118.382 347.293 72.582 343.114 27.0136C342.328 18.432 342.477 7.38103 334.215 2.25118C326.876 -2.30566 318.005 0.477561 314.708 8.49978C311.127 17.2314 313.175 29.3057 313.135 38.5558C313.08 50.1252 313.026 61.7083 312.972 73.2778C312.917 83.8104 329.196 83.824 329.25 73.2778C329.332 55.4734 329.359 37.669 329.495 19.8646C329.495 18.7731 329.956 16.5356 329.562 15.5124C330.227 13.7115 329.617 13.7661 327.731 15.6898C325.913 15.949 325.289 16.7266 325.832 18.0227C325.032 21.0515 326.917 27.8322 327.175 31.0247C327.907 39.9338 328.342 48.8701 328.559 57.8064C329.4 93.2105 326.659 128.574 323.919 163.855C323.105 174.36 339.384 174.306 340.198 163.855Z" fill="#FF6021"/>
<path d="M311.534 163.855C315.061 118.382 318.629 72.582 314.45 27.0136C313.664 18.432 313.813 7.38103 305.551 2.25118C298.212 -2.30566 289.341 0.477561 286.044 8.49978C282.463 17.2314 284.511 29.3057 284.47 38.5558C284.416 50.1252 284.362 61.7083 284.308 73.2778C284.253 83.8104 300.532 83.824 300.586 73.2778C300.668 55.4734 300.695 37.669 300.831 19.8646C300.831 18.7731 301.292 16.5356 300.898 15.5124C301.563 13.7115 300.953 13.7661 299.067 15.6898C297.249 15.949 296.625 16.7266 297.168 18.0227C296.367 21.0515 298.253 27.8322 298.511 31.0247C299.243 39.9338 299.677 48.8701 299.895 57.8064C300.736 93.2105 297.995 128.574 295.255 163.855C294.441 174.36 310.72 174.306 311.534 163.855Z" fill="#FF6021"/>
<path d="M282.87 163.855C286.397 118.382 289.965 72.582 285.786 27.0136C285 18.432 285.149 7.38103 276.887 2.25118C269.548 -2.30566 260.676 0.477561 257.38 8.49978C253.799 17.2314 255.847 29.3057 255.806 38.5558C255.752 50.1252 255.698 61.7083 255.644 73.2778C255.589 83.8104 271.868 83.824 271.922 73.2778C272.004 55.4734 272.031 37.669 272.167 19.8646C272.167 18.7731 272.628 16.5356 272.234 15.5124C272.899 13.7115 272.289 13.7661 270.403 15.6898C268.585 15.949 267.961 16.7266 268.504 18.0227C267.703 21.0515 269.589 27.8322 269.847 31.0247C270.579 39.9338 271.013 48.8701 271.23 57.8064C272.072 93.2105 269.331 128.574 266.591 163.855C265.777 174.36 282.056 174.306 282.87 163.855Z" fill="#FF6021"/>
<path d="M320.189 66.5381C298.253 65.1329 276.358 63.1683 254.518 60.617C244.126 59.4027 244.221 75.7882 254.518 76.9888C276.358 79.5265 298.253 81.5048 320.189 82.91C330.648 83.5785 330.607 67.2067 320.189 66.5381Z" fill="#FF6021"/>
<path d="M331.909 157.347C297.208 155.274 262.44 154.973 227.712 156.474C217.28 156.924 217.226 173.296 227.712 172.846C262.44 171.345 297.208 171.632 331.909 173.719C342.368 174.347 342.341 157.975 331.909 157.347Z" fill="#FF6021"/>
<path d="M291.715 120.551C293.939 119.419 296.151 118.259 298.389 117.154L300.614 116.022C304.344 115.394 304.181 113.771 300.112 111.124L314.003 116.909C313.908 108.218 323.756 102.788 329.034 97.1395C335.016 90.7545 339.764 82.9097 338.733 73.8233C338.095 68.2023 332.14 62.9223 326.483 66.7561C315.509 74.2053 314.328 88.7762 312.836 100.946C310.923 116.472 309.567 132.08 308.17 147.66C307.41 156.119 319.416 158.275 323.336 151.794C331.448 138.383 331.692 122.352 324.652 108.463C321.627 102.501 310.951 103.484 309.77 110.414C307.152 125.913 306.976 141.535 310.055 156.992C311.168 162.572 313.826 168.303 320.311 168.644C327.161 168.998 331.489 162.545 329.929 156.256C329.156 153.118 325.506 149.83 322.074 150.253C290.575 154.086 258.981 157.784 227.197 156.378V172.75C248.25 172.095 269.508 171.181 289.748 164.728C296.164 162.682 298.077 153.254 291.687 149.761C286.777 147.074 282.151 145.805 276.602 145.232V161.604C289.259 160.362 301.916 159.735 314.627 159.721C323.472 159.721 326.117 145.068 316.797 143.636C302.133 141.398 287.536 141.589 272.75 142.176C262.06 142.599 262.535 157.374 272.75 158.548C284.471 159.885 296.056 158.984 307.491 156.119C315.251 154.182 315.237 142.285 307.491 140.334C297.507 137.81 287.333 136.664 277.037 137.032L281.147 152.285C291.66 146.951 301.387 140.034 309.77 131.711C318.154 123.389 326.89 113.757 328.315 101.969C328.939 96.7985 322.603 92.5008 318.005 94.0698C309.485 96.9895 302.336 102.201 297.439 109.882C292.854 117.072 289.883 128.246 298.809 133.485C316.282 143.731 335.409 110.073 315.617 101.328C299.406 94.1653 275.68 119.364 289.124 134.017C294.401 139.761 305.755 143.158 313.162 140.252C321.396 137.019 322.373 126.172 316.065 120.497C309.757 114.821 299.108 116.199 294.251 123.062C289.056 130.402 291.823 140.716 298.701 145.914C306.501 151.822 316.445 149.516 320.813 140.852C325.466 131.602 326.117 118.9 326.741 108.709C327.243 100.523 329.101 87.5893 318.832 84.7651C310.774 82.5549 301.482 88.6671 296.49 94.5473C291.498 100.428 286.153 111.247 294.224 117.141C304.046 124.317 311.697 112.447 315.007 104.63C318.534 96.3073 323.526 81.0542 317.72 72.7864C311.303 63.6454 298.443 68.5979 291.28 73.9461C287.726 76.6065 283.996 79.8263 283.44 84.5059C282.788 90.0587 286.912 94.0016 291.674 95.8025C302.92 100.073 315.644 98.0809 326.103 92.7328C333.632 88.8854 329.63 77.7389 321.993 77.4797C305.022 76.9066 288.16 79.1578 271.936 84.1648C262.725 87.0163 265.235 99.2952 274.106 100.25C282.978 101.205 292.556 101.137 301.807 99.9091C311.059 98.6812 312.945 87.2482 303.978 83.8238C291.674 79.1305 278.976 76.4564 265.872 75.3922V91.7641C269.752 91.805 273.645 91.8596 277.525 91.9005C286.424 92.0097 288.947 77.3296 279.695 75.8152C271.637 74.5054 263.58 73.1957 255.535 71.8859C245.347 70.2215 240.83 85.7338 251.208 87.6711C262.291 89.7449 278.135 93.2376 281.608 106.008C282.205 108.204 282.259 110.278 281.635 112.475C281.052 114.535 278.366 116.336 277.986 117.918L276.82 118.546L282.449 121.834C282.748 121.684 283.209 118.396 283.372 117.932C284.362 115.258 286.641 111.056 289.761 110.605L283.494 109.787C284.159 110.101 283.345 116.786 281.093 116.827C278.841 116.868 276.331 112.297 275.477 110.81C274.649 109.446 273.984 108 273.482 106.485C273.238 103.293 272.207 103.443 270.417 106.922L264.149 107.74C263.661 107.386 263.769 107.604 264.488 108.382C265.818 110.646 266.428 109.214 266.333 104.07L272.085 101.669C270.647 101.778 265.357 94.4791 264.136 92.5145C261.518 88.3397 259.917 83.9056 258.872 79.1032L253.188 89.1719C251.777 89.4448 255.861 91.2184 256.39 91.5595C258.316 92.7737 260.215 94.0698 262.006 95.4887C265.519 98.2719 268.64 101.505 271.583 104.862L279.506 91.1775C273.889 89.2947 262.684 87.9304 259.944 82.3366C255.305 72.8955 241.264 81.177 245.89 90.6044C251.303 101.615 264.57 103.402 275.178 106.963C283.399 109.719 288.106 98.995 283.1 93.2785C275.219 84.274 261.843 70.8763 248.888 73.373C244.411 74.2326 242.322 79.4033 243.204 83.4417C245.863 95.5979 252.564 107.045 262.521 114.589C272.479 122.134 285.596 114.262 279.546 101.833C277.145 96.9212 272.234 91.6686 266.347 91.6413C260.459 91.614 256.43 97.2078 256.295 102.774C256.01 114.112 265.072 128.205 275.653 132.121C287.17 136.377 297.249 128.287 299.162 116.868C300.953 106.171 295.472 89.3083 281.54 95.9253C271.882 100.509 263.987 115.544 266.659 126.118C269.983 139.283 285.067 135.054 291.742 127.373C300.627 117.154 300.112 102.338 292.515 91.5731C283.887 79.3488 269.643 74.4918 255.603 71.8723L251.276 87.6575C259.334 88.9672 267.391 90.277 275.436 91.5867L277.606 75.5014C273.727 75.4605 269.833 75.4059 265.954 75.365C255.345 75.2422 255.644 90.9046 265.954 91.7368C277.606 92.6782 288.812 95.4205 299.732 99.5817L301.902 83.4963C292.651 84.7242 283.48 84.8334 274.201 83.8374L276.372 99.9228C291.321 95.3113 306.474 93.2921 322.101 93.8242L317.991 78.5711C314.586 80.3174 310.964 81.4225 307.139 81.6545C305.674 81.75 304.127 81.7363 302.662 81.5863C301.807 81.4908 297.765 79.9764 298.565 81.4362L299.379 87.7394C298.769 89.7313 297.765 89.4448 299.732 88.0532C301.075 87.0981 302.241 86.1295 303.72 85.3791C304.1 85.1881 306.745 84.3695 306.854 84.1239C308.142 83.9875 307.736 83.4281 305.633 82.4458C304.168 80.372 303.557 80.2492 303.802 82.0774C303.055 83.2371 303.489 86.5115 303.205 88.0668C302.92 89.6221 302.553 91.1365 302.133 92.6373C301.238 95.8571 298.416 99.4862 298.023 102.583C296.449 104.589 297.738 105.858 301.902 106.39C304.303 109.951 305.918 110.619 306.759 108.395C307.708 107.604 308.468 105.612 309.363 104.657C309.974 104.016 315.468 100.823 315.481 100.714L310.734 96.1027L310.788 98.6267C310.422 100.496 310.788 102.965 310.72 104.916C310.598 108.695 310.327 112.461 309.879 116.213C309.472 119.651 308.861 123.075 308.156 126.459C307.763 128.328 307.017 130.279 306.813 132.162C306.501 134.999 305.945 132.448 307.125 133.24C309.35 134.74 307.315 129.338 307.179 132.489C305.796 134.399 305.674 133.253 306.813 129.051C308.414 126.05 308.034 124.535 305.674 124.535C304.832 124.003 302.269 124.249 301.699 123.307C301.197 122.461 301.902 123.457 302.079 122.393C302.621 119.282 307.437 118.982 308.739 116.95C309.608 115.599 307.681 116.363 306.732 117.086C304.805 118.805 305.728 120.524 309.513 122.243L310.177 120.633C314.138 116.008 316.2 111.983 322.454 109.841L312.144 101.942C311.67 105.83 306.84 110.687 304.398 113.58C301.522 116.977 298.43 120.169 295.147 123.171C288.513 129.228 281.025 134.072 273.035 138.124C265.804 141.794 269.264 153.65 277.145 153.377C286.058 153.063 294.618 153.909 303.272 156.106V140.32C293.18 142.844 283.182 143.349 272.858 142.162V158.534C286.071 158.016 299.447 157.415 312.578 159.407L314.749 143.322C302.038 143.322 289.368 143.963 276.725 145.205C266.252 146.242 266.266 160.512 276.725 161.576C279.316 161.836 281.323 162.627 283.589 163.869L285.529 148.902C266.618 154.932 247.002 155.724 227.305 156.337C216.819 156.665 216.846 172.245 227.305 172.709C259.089 174.115 290.684 170.417 322.183 166.584L314.328 160.581L314.573 161.576L316.662 153.609L315.848 154.509L321.6 152.108L320.392 152.231L326.144 154.632C324.34 153.2 324.177 139.843 324.068 136.186C323.865 128.996 324.34 121.834 325.534 114.739C320.569 115.394 315.617 116.049 310.652 116.69C315.075 125.422 314.356 135.204 309.336 143.499L324.503 147.633C325.601 135.341 326.782 123.048 328.084 110.769C328.694 105.012 329.251 99.2406 330.322 93.5514C331.001 89.9632 331.448 83.1279 334.758 80.8768L322.508 73.8096C323.553 82.896 314.288 88.2987 308.672 93.9607C302.377 100.305 297.683 107.658 297.792 116.895C297.873 123.539 306.935 128.273 311.683 122.68C317.286 116.104 319.85 106.049 310.951 100.659C302.052 95.2704 291.674 102.256 283.548 106.403C274.201 111.165 282.436 125.286 291.769 120.538L291.715 120.551Z" fill="#FF6021"/>
<path d="M258.533 166.652C258.506 182.956 258.492 199.259 258.465 215.563L264.434 207.664C262.67 208.332 256.607 208.278 255.698 209.696L256.58 216.736C258.058 216.354 259.496 216.491 260.893 217.105C263.986 217.978 268.707 216.614 270.091 213.339C274.269 203.434 267.608 194.566 256.824 195.535C246.039 196.503 242.078 208.005 242.336 217.637L256.227 211.852C255.847 214.062 256.268 214.813 257.488 214.103C258.275 213.776 259.103 213.544 259.957 213.421C270.145 211.006 265.831 195.221 255.63 197.636C244.072 200.378 234.725 213.107 244.723 223.435C249.566 228.442 258.804 224.745 258.614 217.65C258.452 216.191 258.533 214.744 258.872 213.312C260.473 210.87 259.455 209.751 255.82 209.956L256.634 203.653L256.023 205.085L265.221 201.32C254.572 198.332 234.915 204.621 243.177 219.206C250.014 231.28 268.544 225.782 272.18 213.885C276.467 199.832 259.903 192.997 250.801 202.82C246.134 207.855 245.062 215.549 249.96 220.802C254.857 226.055 262.209 225.946 268.734 223.449C272.139 222.153 274.703 219.397 274.703 215.549C274.73 199.246 274.744 182.942 274.771 166.638C274.785 156.106 258.506 156.092 258.492 166.638L258.533 166.652Z" fill="#FF6021"/>
<path d="M291.579 166.652C291.606 182.956 291.619 199.259 291.646 215.563C291.646 219.451 294.224 222.153 297.615 223.462C303.665 225.782 310.774 226.409 315.847 221.498C320.989 216.518 320.568 208.96 316.2 203.653C307.464 193.038 289.693 199.15 294.197 213.885C297.724 225.441 315.413 231.157 322.793 219.97C326.266 214.704 325.099 207.514 320.08 203.748C314.708 199.723 307.369 199.573 301.156 201.32L310.353 205.085L309.743 203.653L310.557 209.956C306.921 209.737 305.904 210.856 307.505 213.312C307.844 214.744 307.925 216.191 307.762 217.65C307.572 224.745 316.797 228.456 321.653 223.435C331.665 213.094 322.305 200.378 310.747 197.636C300.559 195.221 296.204 211.006 306.419 213.421C307.274 213.544 308.088 213.776 308.888 214.103C310.096 214.813 310.516 214.076 310.15 211.852L324.041 217.637C324.299 208.018 320.541 196.517 309.553 195.535C298.809 194.58 292.108 203.421 296.286 213.339C297.656 216.6 302.336 217.978 305.483 217.105C308.006 216.395 316.729 217.623 310.679 209.696C309.146 207.691 304.52 208.646 301.943 207.664L307.911 215.563C307.884 199.259 307.871 182.956 307.844 166.652C307.83 156.12 291.551 156.106 291.565 166.652H291.579Z" fill="#FF6021"/>
<path d="M235.784 160.908L236.462 142.135C236.638 137.128 231.063 132.435 226.152 134.236C214.648 138.452 202.589 144.577 190.447 146.679C189.905 146.774 187.083 146.61 187.775 147.292C188.426 147.934 187.816 146.788 187.883 146.337C188.141 144.509 188.874 143.964 190.339 142.736C194.517 139.243 199.672 136.774 204.176 133.731C225.392 119.378 247.816 100.824 247.396 72.6094C247.206 60.0304 243.272 45.7323 237.181 34.7222C230.791 23.1937 219.898 20.4105 207.635 20.2331C196.267 20.0694 185.143 19.7829 177.669 29.9334C176.99 30.8475 172.961 36.0865 173.314 36.987C175.39 42.3215 175.444 35.6636 175.24 36.1275C175.457 35.6363 175.376 33.6308 175.566 32.8395C177.126 26.5499 183.081 24.6944 188.738 23.5211C196.918 21.8294 204.135 22.9481 212.207 24.3397C218.42 25.4175 224.782 25.2538 230.656 27.887C242.444 33.1669 249.064 45.8414 248.345 58.4751C247.748 69.0076 264.027 68.9667 264.624 58.4751C265.411 44.7363 259.862 30.9976 249.919 21.5429C238.632 10.8193 225.257 10.1235 210.836 7.36755C196.416 4.61162 176.76 5.49843 166.246 16.8496C158.297 25.4175 154.281 46.1416 167.291 52.4857C173.273 55.4053 180.382 53.2088 184.845 48.5564C190.081 43.1128 190.122 36.7823 198.763 36.4413C204.203 36.223 212.478 35.4862 217.551 37.5737C224.592 40.4797 226.749 51.326 228.607 57.8748C233.518 75.0652 229.964 89.9227 217.456 102.72C206.767 113.648 193.228 120.156 181.236 129.242C175.539 133.567 171.496 139.093 171.618 146.61C171.74 153.527 175.552 160.704 182.525 162.764C189.091 164.701 196.687 162.3 202.914 160.144C212.152 156.938 221.309 153.405 230.493 150.035L220.183 142.135L219.505 160.908C219.125 171.441 235.404 171.427 235.784 160.908Z" fill="#FF6021"/>
<path d="M214.675 36.1956C227.088 33.6716 237.778 40.7388 240.464 53.0314C243.149 65.3239 243.217 80.6998 235.946 91.0277C232.216 96.335 226.423 99.7594 221.648 103.989C216.873 108.218 214.309 113.826 209.778 117.823C201.476 125.136 190.637 127.06 183.949 136.637C179.975 142.326 186.622 151.072 193.147 148.657C213.617 141.112 234.305 134.168 254.775 126.609C264.475 123.035 260.744 108.123 250.448 110.824C238.496 113.962 226.803 117.796 215.313 122.339L221.58 137.306C232.188 130.498 242.797 123.676 253.392 116.868L255.671 115.408C259.957 113.471 258.546 112.311 251.424 111.956C251.085 112.775 254.87 117.618 255.576 118.792C258.397 123.43 263.037 128.929 264.42 134.304C265.533 138.574 263.579 139.666 259.632 140.635C257.963 141.044 255.589 140.703 254.097 141.33C251.574 140.976 251.696 141.794 254.477 143.786C256.457 147.06 257.081 147.033 256.362 143.691C257.081 140.976 255.711 138.124 257.027 135.327C257.407 134.509 258.655 132.912 258.655 132.776C258.546 129.747 254.707 131.957 253.012 132.203C251.709 132.353 250.394 132.421 249.078 132.421C247.151 131.753 246.894 132.053 248.264 133.322C251.547 124.74 237.262 118.601 233.382 127.019C228.594 137.442 228.675 148.548 234.657 158.493C240.07 167.498 254.151 159.285 248.711 150.226C245.93 145.587 245.117 140.321 247.436 135.273L232.555 128.97C229.245 137.633 235.729 146.092 244.004 148.166C252.455 150.28 264.556 148.138 270.416 141.344C276.277 134.55 275.286 123.922 267.473 119.065C259.659 114.208 250.909 116.636 245.442 123.212C239.975 129.788 238.402 141.276 240.694 149.68C243.326 159.339 254.599 158.207 262.25 156.761C269.901 155.315 277.552 150.935 280.197 143.008C283.724 132.394 276.928 122.544 271.678 113.935C266.035 104.657 260.866 93.0742 248.562 100.537C236.652 107.768 225.067 115.626 213.332 123.158C205.98 127.878 210.619 141.671 219.6 138.124C231.09 133.581 242.783 129.747 254.735 126.609L250.407 110.824C229.937 118.369 209.249 125.313 188.779 132.872L197.976 144.891C201.354 140.048 208.666 137.783 213.563 134.904C220.197 130.989 223.805 125.982 228.567 120.142C233.83 113.689 241.508 109.801 246.853 103.402C252.198 97.0035 255.236 89.909 256.742 82.0914C259.645 66.9747 259.184 46.7282 249.688 33.9445C240.192 21.1608 224.836 17.4362 210.321 20.3831C200.065 22.4705 204.406 38.2558 214.648 36.1683L214.675 36.1956Z" fill="#FF6021"/>
<path d="M255.399 27.2185C248.847 19.9057 241.427 13.0568 232.446 8.90926C223.466 4.76172 213.509 4.33878 203.728 3.42468C193.947 2.51058 183.949 1.93757 175.417 8.3226C167.996 13.8617 161.417 22.1432 161.715 31.8299C161.878 37.0416 166.802 41.2573 172.025 39.7293C180.761 37.1644 183.095 27.8597 189.321 22.075C197.027 14.8986 185.496 3.34282 177.804 10.4919C175.525 12.6066 173.531 14.8577 171.686 17.3817C170.994 18.3231 168.539 23.6849 167.698 23.9304L178.008 31.8299C177.845 26.7546 184.139 20.9153 188.752 19.5373C195.358 17.5591 204.04 19.8238 210.755 20.4651C225.08 21.8294 234.4 28.1871 243.896 38.8016C250.923 46.6464 262.399 35.036 255.413 27.2185H255.399Z" fill="#FF6021"/>
<path d="M327.663 96.3349C316.96 87.5896 305.253 87.3304 292.705 91.9964C284.891 94.9024 288.269 107.591 296.178 104.644C304.086 101.697 311.507 99.9367 318.452 105.612C324.909 110.892 334.202 101.669 327.677 96.3349H327.663Z" fill="black"/>
<path d="M249.105 105.612C256.05 99.9367 263.742 101.806 271.379 104.644C279.017 107.481 282.666 94.9024 274.852 91.9964C262.304 87.3304 250.597 87.5896 239.894 96.3349C233.382 101.656 242.661 110.892 249.118 105.612H249.105Z" fill="black"/>
</g>
<defs>
<clipPath id="clip0_41_827">
<rect width="345" height="226" fill="white"/>
</clipPath>
</defs>
</svg>
