<svg width="177" height="244" viewBox="0 0 177 244" fill="none" xmlns="http://www.w3.org/2000/svg">
<g clip-path="url(#clip0_41_811)">
<path d="M22.8428 176.652C19.8716 138.63 16.9005 100.505 17.8124 62.3209C18.0331 53.1721 18.4596 44.0085 19.195 34.8891C19.5186 30.7413 21.3719 24.4753 20.563 20.4893L20.9601 18.3712C17.4006 14.5617 15.9444 13.8115 16.5916 16.0914C16.5181 16.1649 16.7975 22.1661 16.7975 21.4159C16.9593 40.6108 16.974 59.8057 17.0623 79.0006C17.1211 90.3557 34.7716 90.3851 34.7127 79.0006C34.6539 66.5276 34.5951 54.0399 34.5362 41.5669C34.4921 31.6385 36.3748 19.5038 33.1536 9.97254C30.2266 1.2944 20.5188 -2.64754 12.429 1.91216C2.83894 7.29556 2.91248 19.5479 2.02996 29.1233C-2.47091 78.2504 1.36807 127.613 5.19233 176.652C6.07486 187.904 23.7253 187.992 22.8428 176.652Z" fill="#FF6021"/>
<path d="M53.9221 176.652C50.9509 138.63 47.9798 100.505 48.8917 62.3207C49.1123 53.1718 49.5389 44.0083 50.2743 34.8889C50.5979 30.741 52.4512 24.4751 51.6422 20.4891L52.0394 18.371C48.4799 14.5614 47.0237 13.8113 47.6709 16.0911C47.5973 16.1647 47.8768 22.1658 47.8768 21.4157C48.0386 40.6106 48.0533 59.8055 48.1416 79.0004C48.2004 90.3555 65.8509 90.3849 65.792 79.0004C65.7332 66.5274 65.6744 54.0396 65.6155 41.5667C65.5714 31.6383 67.4541 19.5036 64.2329 9.97232C61.3059 1.30888 51.5981 -2.63306 43.5083 1.91194C33.9182 7.29533 33.9918 19.5624 33.124 29.1378C28.6231 78.2649 32.4621 127.627 36.2863 176.666C37.1689 187.918 54.8193 188.007 53.9368 176.666L53.9221 176.652Z" fill="#FF6021"/>
<path d="M85.0017 176.652C82.0305 138.63 79.0594 100.505 79.9713 62.3207C80.1919 53.1718 80.6185 44.0083 81.3539 34.8889C81.6775 30.741 83.5308 24.4751 82.7218 20.4891L83.119 18.371C79.5594 14.5614 78.1033 13.8113 78.7505 16.0911C78.6769 16.1647 78.9564 22.1658 78.9564 21.4157C79.1182 40.6106 79.1329 59.8055 79.2211 79.0004C79.28 90.3555 96.9305 90.3849 96.8716 79.0004C96.8128 66.5274 96.7539 54.0396 96.6951 41.5667C96.651 31.6383 98.5337 19.5036 95.3125 9.97232C92.3855 1.30888 82.6777 -2.63306 74.5879 1.91194C64.9978 7.29533 65.0714 19.5624 64.2035 29.1378C59.7027 78.2649 63.5416 127.627 67.3659 176.666C68.2484 187.918 85.8989 188.007 85.0164 176.666L85.0017 176.652Z" fill="#FF6021"/>
<path d="M26.9024 89.3851C50.6864 87.8701 74.4263 85.752 98.1073 83.0015C109.257 81.7071 109.389 64.0419 98.1073 65.351C74.4263 68.0868 50.6864 70.2196 26.9024 71.7346C15.6208 72.4553 15.5472 90.1058 26.9024 89.3851Z" fill="#FF6021"/>
<path d="M14.1791 187.286C51.8041 185.05 89.5025 184.727 127.157 186.345C138.512 186.83 138.497 169.18 127.157 168.694C89.5025 167.076 51.8041 167.385 14.1791 169.635C2.89754 170.312 2.80929 187.963 14.1791 187.286Z" fill="#FF6021"/>
<path d="M114.86 175.754C113.345 158.722 113.066 141.674 114.007 124.597L96.6657 126.951C97.4158 132.511 96.2244 138.012 93.7239 142.969C99.1073 143.675 104.476 144.381 109.859 145.072C108.109 132.437 115.978 120.111 118.714 108.079C121.215 97.0479 104.682 92.3706 101.696 103.387C99.5191 111.433 94.7388 117.728 89.6349 124.171C87.2815 127.127 84.9134 130.084 82.7365 133.173C82.0599 134.114 81.398 135.085 80.7655 136.07C79.427 137.732 80.133 137.644 82.8836 135.835C83.016 135.511 77.8973 130.437 77.6031 130.069C74.0436 134.688 70.4694 139.306 66.9099 143.925C71.4696 146.219 75.1762 149.087 77.8385 153.529C79.883 156.942 80.4125 160.81 81.9569 164.414C86.4284 174.842 95.9743 174.666 105.77 173.166C125.245 170.209 140.762 155.294 135.026 134.438C133.143 127.598 122.229 125.23 118.891 132.334C116.302 137.85 114.007 143.498 112.492 149.411C111.271 154.177 109.242 161.149 110.551 166.091C113.728 178.108 126.598 174.239 131.967 166.65C144.616 148.749 154.397 129.245 172.033 115.493C180.52 108.859 169.694 97.8569 161.34 101.637C142.469 110.183 122.685 117.92 102.52 122.847C91.4882 125.539 96.1656 142.571 107.212 139.865C128.848 134.57 149.985 126.039 170.239 116.875C166.679 112.257 163.105 107.638 159.545 103.02C150.205 110.315 142.675 119.288 135.806 128.892C132.57 133.423 129.525 138.085 126.51 142.763C124.774 145.44 123.068 148.131 121.332 150.794C120.185 152.559 118.508 156.604 116.655 157.663L123.45 156.78L122.068 156.501L127.348 160.56C128.584 162.928 127.981 161.546 128.378 159.325C128.775 157.104 129.29 154.986 129.878 152.838C130.966 148.852 132.393 145.013 134.143 141.262C128.76 140.556 123.391 139.85 118.008 139.159C119.494 144.542 117.861 149.911 112.963 152.853C110.095 154.574 106.623 155.265 103.358 155.824C101.99 156.059 100.181 155.956 98.9014 156.427L96.7686 156.604C98.2101 158.501 98.6366 158.707 98.0483 157.236C98.5778 155.574 96.1361 151.058 95.4743 149.514C94.1946 146.499 92.6208 143.733 90.6498 141.115C86.7078 135.85 81.7069 131.672 75.8234 128.716C66.6599 124.097 58.6877 134.879 65.1301 142.571C69.2927 147.543 74.9262 154.368 82.0158 154.559C89.6055 154.78 93.5327 148.528 97.3128 143.042C105.285 131.481 114.919 122.053 118.714 108.079L101.696 103.387C98.0336 119.508 90.4733 132.731 92.8414 149.764C93.8857 157.31 105.756 158.236 108.977 151.867C113.816 142.277 115.125 132.82 113.698 122.244C112.272 111.668 96.8863 115.199 96.3568 124.597C95.4154 141.674 95.7096 158.722 97.2099 175.754C98.2101 186.977 115.861 187.08 114.86 175.754Z" fill="#FF6021"/>
<path d="M66.6747 114.713C58.0113 110.33 46.7002 102.373 36.9631 108.521C27.2259 114.669 29.9764 125.024 36.1688 132.261C41.3169 138.291 51.157 133.231 51.2305 126.024C51.3482 116.111 46.259 108.109 39.4341 101.299C33.3447 95.2242 23.2987 89.326 24.4312 79.5741L11.1493 87.1932C14.7088 89.5907 15.2089 96.9304 15.959 100.858C17.1357 106.991 17.7388 113.213 18.386 119.42C19.7833 132.658 21.0777 145.91 22.2691 159.163L38.7134 154.706C33.2859 145.778 32.4916 135.232 37.2867 125.804C31.9033 125.098 26.5346 124.392 21.1512 123.7C22.4456 131.349 22.9604 139.071 22.7397 146.822C22.6368 150.47 22.3867 154.103 21.9308 157.722C21.666 159.81 20.7982 166.458 20.4893 166.709L26.7258 164.12L25.4167 163.987L31.6532 166.576L30.7707 165.605L33.0358 174.195L33.3006 173.122L24.7843 179.593C58.9379 183.727 93.1945 187.713 127.657 186.198C138.983 185.698 139.056 168.9 127.657 168.547C106.315 167.885 85.0459 167.032 64.5272 160.531L66.6306 176.666C69.0869 175.328 71.2638 174.489 74.0732 174.195C85.3842 173.048 85.443 157.663 74.0732 156.545C60.3499 155.206 46.6267 154.53 32.8446 154.515L35.198 171.857C49.4361 169.694 63.9242 170.342 78.2652 170.915V153.265C67.0718 154.544 56.2315 154 45.2882 151.279V168.297C54.6724 165.944 63.9536 165.032 73.6172 165.355C82.163 165.65 85.9137 152.868 78.074 148.911C69.4105 144.542 61.306 139.306 54.0987 132.79C50.5392 129.569 47.1709 126.112 44.0674 122.45C41.3904 119.302 36.1835 114.095 35.6687 109.903L24.4901 118.42C30.653 120.523 33.4918 124.318 37.3014 129.142C37.8015 129.981 38.2133 130.863 38.5222 131.79L42.3465 127.201C42.3465 125.774 38.6252 124.553 38.5075 125.73C38.5075 125.701 45.2441 130.054 45.9207 131.143C48.0093 134.526 46.1119 132.217 42.6701 134.261L41.1109 134.599L41.7434 143.689L40.302 142.027L39.9931 142.822C42.0817 142.66 41.5669 146.028 41.6552 143.366C41.714 141.748 40.6108 139.321 40.2578 137.688C39.3606 133.599 38.5957 129.466 38.0956 125.318C37.6691 121.729 37.3896 118.111 37.2278 114.493C37.1249 112.227 37.0954 109.962 37.0954 107.712C37.0954 104.388 38.6104 102.226 34.5803 106.123C30.5501 110.021 32.2122 107.918 34.6685 109.815C36.0658 110.889 37.3749 111.536 38.6546 112.875C39.5665 113.831 40.1402 115.184 41.0374 116.066L41.9199 117.728L51.5688 111.727C51.9366 110.08 47.5534 103.373 46.862 101.122C45.8177 97.6952 46.1266 92.856 44.7293 89.7819L44.641 87.252L40.7726 90.5762C40.8903 90.8262 43.5232 91.444 43.8468 91.5764C45.4353 92.2677 46.965 93.2679 48.3182 94.3416C50.1568 95.7978 50.5245 97.9894 49.4802 94.6358L50.3627 87.8404C51.4365 85.8547 48.2447 87.6345 47.1415 87.811C45.1411 88.1198 43.0966 88.2081 41.0668 88.0904C36.9189 87.8404 32.9917 86.6343 29.2998 84.7662L24.8431 101.211C41.7875 100.637 58.2172 102.814 74.4262 107.785L76.7796 90.4438C66.7188 91.5176 56.7757 91.3999 46.7444 90.0761L49.0978 107.418C60.9383 102.932 73.0877 99.9751 85.7225 98.9602C96.8864 98.0629 97.2394 81.1773 85.7225 81.3097C81.5158 81.3538 77.2944 81.4127 73.0877 81.4568L75.4411 98.7984C84.1781 97.3863 92.9151 95.9743 101.637 94.5623L96.9453 77.5443C83.2514 80.0889 69.1752 84.4574 59.6733 95.2683C51.3188 104.785 47.8769 117.846 52.9956 129.731C56.9228 138.88 69.7929 150.691 80.0743 143.307C90.9735 135.482 83.4426 117.831 76.559 109.903C72.4994 105.241 66.4246 100.622 59.8204 102.27C53.5839 103.829 50.5539 109.815 49.642 115.669C47.8328 127.319 52.4219 141.336 65.4392 143.542C79.4419 145.91 89.8556 132.334 94.0623 120.7C95.9892 115.39 97.4454 108.8 94.0329 103.755C89.8998 97.6511 82.4572 98.0188 77.0738 102.167C72.1169 105.976 67.4543 113.492 69.5429 119.964C71.8522 127.127 80.0596 128.966 86.2667 125.774C98.9309 119.243 107.418 103.358 110.345 90.032C111.301 85.6635 109.065 80.1183 104.182 79.1769C90.1351 76.4705 75.6323 90.9292 67.0865 100.637C61.659 106.8 66.7482 118.361 75.6764 115.39C87.1787 111.551 101.578 109.624 107.433 97.7541C112.448 87.605 97.2247 78.6474 92.1943 88.8406C89.2085 94.8859 77.0885 96.3273 70.9844 98.3718L79.5742 113.125C82.766 109.492 86.1638 106.02 89.9586 103.02C91.8855 101.49 93.9447 100.093 96.048 98.7837C96.9011 98.2542 101.328 96.5627 99.5193 96.2096L93.3563 85.3546C92.209 90.5615 90.5175 95.3124 87.6493 99.8133C86.149 102.167 80.7068 109.8 79.03 109.683L85.2665 112.272C85.1636 117.817 85.8255 119.361 87.2669 116.92C88.0318 116.081 88.1641 115.846 87.6346 116.228L80.8392 115.346C78.8976 111.595 77.7945 111.433 77.515 114.875C76.9708 116.508 76.2501 118.067 75.3528 119.538C74.4115 121.141 71.5874 126.054 69.2634 126.024C66.8218 125.98 65.9393 118.773 66.66 118.435L59.8646 119.317C63.0564 119.773 65.1597 123.538 66.3364 126.23C66.7629 127.216 66.9689 129.687 67.6013 130.393C67.6308 132.408 68.7192 132.172 70.8373 129.657C74.1173 128.907 74.9116 128.201 73.2495 127.539C72.9553 126.333 69.6017 124.039 68.9251 122.244C67.9544 119.655 67.9838 116.993 68.7045 114.36C72.4699 100.593 89.6644 96.8127 101.667 94.5917C112.904 92.503 108.036 75.7792 96.9747 77.5737C88.2377 78.9857 79.5007 80.3978 70.7784 81.8098C60.8353 83.413 63.3652 99.2543 73.1318 99.1514C77.3385 99.1073 81.5599 99.0484 85.7666 99.0043V81.3538C71.558 82.5011 57.7906 85.384 44.4498 90.4438C34.7715 94.1063 36.9337 106.476 46.8032 107.785C56.6728 109.094 66.7777 109.227 76.8384 108.153C86.3844 107.138 89.2526 93.9004 79.1918 90.8115C61.6002 85.4134 43.3025 82.9865 24.9166 83.6043C16.6503 83.8837 12.2818 95.9007 20.4599 100.049C30.3441 105.064 40.9638 106.962 51.9366 104.902C61.9826 103.02 72.0434 94.6358 63.5564 84.5162C58.1142 78.0149 47.7446 72.1903 39.0958 73.1905C26.8729 74.6172 26.4169 86.3107 27.7995 96.0625C29.1822 105.814 32.6387 119.288 40.6403 125.642C49.1566 132.408 61.4825 125.671 59.3939 114.64C57.7024 105.697 49.7008 97.5187 41.7728 93.6944C33.8448 89.8702 22.5779 89.576 19.9892 99.9898C17.4005 110.404 20.0922 124.95 21.9749 135.791C23.5193 144.69 25.152 156.721 34.9921 160.207C57.114 168.047 68.0279 128.363 43.3614 126.245C34.6979 125.495 26.108 131.834 26.8729 141.086C27.7848 151.912 38.8899 153.221 47.421 151.353C56.8051 149.293 65.4245 142.777 65.0126 132.364C64.6008 121.95 54.8489 113.551 46.156 109.903C35.8305 105.579 23.8723 110.242 22.7103 122.303C21.666 133.04 31.8886 146.322 43.2878 145.925C56.0697 145.484 58.2907 132.731 53.9664 123.112C49.2007 112.536 40.0813 105.167 29.241 101.475C24.2694 99.7839 17.3858 104.417 18.0624 109.992C19.6068 122.685 29.3292 133.32 38.1692 142.057C47.0091 150.794 57.8053 158.501 69.2046 164.237L73.6613 147.793C62.4974 147.411 51.4806 148.646 40.6403 151.353C32.2416 153.456 32.2122 166.282 40.6403 168.371C53.0397 171.459 65.601 172.445 78.3093 170.989C89.3703 169.724 89.9292 153.794 78.3093 153.338C62.2768 152.706 46.4649 152.5 30.5501 154.912C20.5481 156.427 23.1957 172.239 32.9035 172.254C46.6855 172.254 60.4235 172.945 74.132 174.284V156.633C68.1162 157.251 63.1005 158.619 57.7759 161.516C50.8334 165.282 52.922 175.431 59.8793 177.652C81.81 184.609 104.859 185.595 127.701 186.301V168.65C93.2386 170.165 58.982 166.179 24.8284 162.046C21.1218 161.605 17.1651 165.105 16.312 168.518C14.6499 175.225 18.9155 181.653 26.0786 181.814C33.433 181.976 36.6101 175.563 37.8603 169.327C41.1992 152.662 41.008 135.82 38.1692 119.111C36.9042 111.669 25.3285 110.536 22.0337 117.008C14.3999 131.981 14.6646 149.264 23.4605 163.723C27.7113 170.709 40.7285 168.4 39.9048 159.266C38.3898 142.469 36.9189 125.642 34.845 108.903C33.2271 95.7831 31.9327 80.0742 20.048 72.0432C13.9145 67.91 7.47208 73.6023 6.76606 79.6623C5.6482 89.3995 10.7963 97.96 17.2828 104.8C23.0045 110.83 33.683 116.787 33.5801 126.112L48.6418 119.876C44.5528 122.332 43.9203 123.906 46.7444 124.583C48.0387 125.098 49.3037 125.686 50.5245 126.377C52.9515 127.569 55.349 128.819 57.7612 130.04C67.8661 135.158 76.8237 119.935 66.6747 114.801V114.713Z" fill="#FF6021"/>
<path d="M76.1029 179.667C76.1323 197.244 76.147 214.821 76.1764 232.398C76.1764 236.59 78.9711 239.502 82.6482 240.914C89.2083 243.414 96.9157 244.091 102.417 238.796C107.918 233.501 107.535 225.279 102.799 219.557C93.3268 208.114 74.0583 214.703 78.9416 230.588C82.7659 243.047 101.946 249.21 109.948 237.149C113.713 231.471 112.448 223.72 107.006 219.66C101.181 215.321 93.2238 215.159 86.4872 217.042L96.4597 221.101L95.7978 219.557L96.6804 226.352C92.7384 226.117 91.6353 227.323 93.3709 229.971C93.7386 231.515 93.8269 233.074 93.6504 234.648C93.4444 242.297 103.446 246.297 108.712 240.885C119.567 229.735 109.418 216.027 96.8863 213.07C85.84 210.467 81.1185 227.485 92.1942 230.088C93.1208 230.221 94.0034 230.471 94.8712 230.824C96.1803 231.589 96.6362 230.794 96.2391 228.397L111.301 234.633C111.58 224.264 107.506 211.864 95.5919 210.805C83.6778 209.746 76.6765 219.307 81.2068 230C82.6924 233.516 87.7669 235.001 91.1793 234.06C93.9151 233.295 103.373 234.619 96.8127 226.073C95.1507 223.911 90.135 224.94 87.3403 223.881L93.8122 232.398C93.7827 214.821 93.768 197.244 93.7386 179.667C93.7239 168.312 76.0734 168.297 76.0881 179.667H76.1029Z" fill="#FF6021"/>
<path d="M40.2726 179.667C40.2431 197.244 40.2284 214.821 40.199 232.398L46.6709 223.881C44.7587 224.602 38.1839 224.543 37.1984 226.073L38.1545 233.663C39.7578 233.251 41.3169 233.398 42.8319 234.06C46.1855 235.001 51.3041 233.53 52.8044 230C57.3347 219.322 50.1127 209.761 38.4193 210.805C26.7258 211.85 22.4309 224.249 22.7103 234.633L37.7721 228.397C37.3602 230.78 37.8162 231.589 39.14 230.824C39.9931 230.471 40.8903 230.221 41.817 230.088C52.8632 227.485 48.1859 210.467 37.1249 213.07C24.5931 216.027 14.4588 229.75 25.2991 240.885C30.5501 246.283 40.5667 242.297 40.3608 234.648C40.1843 233.074 40.2726 231.515 40.6403 229.971C42.3759 227.338 41.2728 226.132 37.3308 226.352L38.2133 219.557L37.5515 221.101L47.524 217.042C35.9776 213.821 14.6647 220.601 23.6223 236.325C31.0355 249.342 51.1276 243.415 55.0695 230.589C59.7175 215.439 41.7581 208.069 31.8886 218.66C26.8288 224.087 25.6668 232.383 30.9766 238.046C36.2865 243.709 44.2586 243.591 51.3335 240.899C55.0254 239.502 57.8054 236.531 57.8054 232.383C57.8348 214.806 57.8495 197.229 57.8789 179.652C57.8936 168.297 40.2431 168.282 40.2284 179.652L40.2726 179.667Z" fill="#FF6021"/>
<path d="M136.968 176.387C138.644 169.636 144.631 163.458 148.852 158.104C153.794 151.823 158.766 145.558 163.708 139.277C170.709 130.378 184.815 111.257 171.327 101.431C160.781 93.7534 144.94 106.535 136.923 112.978C124.583 122.906 114.699 135.453 102.74 145.822C94.1357 153.28 106.668 165.709 115.228 158.31C123.789 150.912 131.319 142.351 139.439 134.423C142.954 130.981 146.572 127.584 150.514 124.627C152.456 123.171 154.486 121.818 156.56 120.582C157.692 119.906 163.473 117.479 162.428 116.699L158.369 111.419C160.207 116.934 154.368 122.788 151.235 126.804C147.146 132.055 142.983 137.262 138.85 142.498C131.952 151.235 122.715 160.634 119.964 171.71C117.214 182.785 134.232 187.433 136.982 176.402L136.968 176.387Z" fill="#FF6021"/>
<path d="M106.594 66.8068C107.477 57.5256 114.537 44.023 123.083 39.5957C132.599 34.6683 144.543 37.4188 152.338 44.4054C160.766 51.9657 158.06 68.5425 157.766 78.8533C157.736 80.0447 157.28 81.8833 157.53 83.0158C158.736 88.5757 158.222 82.5599 158.222 82.6187C158.516 80.0741 158.31 77.3236 158.428 74.7495C158.722 68.3365 159.663 61.6294 159.06 55.2311C156.957 32.9621 126.613 31.5647 114.14 45.6557C106.623 54.1426 105.02 65.6301 103.961 76.4999C102.902 87.3696 103.108 96.5332 106.491 106.594C109.874 116.655 115.096 125.068 126.157 126.921C135.158 128.422 145.572 128.907 153.309 123.288C162.414 116.684 153.618 101.358 144.395 108.05C139.497 111.61 128.172 111.904 125.127 106.064C120.273 96.7832 120.626 86.5901 121.612 76.4999C122.391 68.5277 125.995 48.3915 138.953 54.3927C143.484 56.496 141.248 64.5564 141.042 68.8808C140.762 74.9555 139.85 81.3832 141.13 87.3843C143.366 97.7834 154.133 105.961 164.561 100.593C176.578 94.4004 175.431 80.4712 175.357 68.8955C175.284 57.3197 176.063 45.0085 168.076 35.3743C160.766 26.5638 149.352 20.9891 138.085 19.7242C110.963 16.6942 91.3117 41.7137 88.9288 66.8068C87.8551 78.1031 105.52 78.0296 106.579 66.8068H106.594Z" fill="#FF6021"/>
<path d="M28.7997 113.86C36.3306 107.741 44.6704 109.756 52.9515 112.816C61.2325 115.875 65.1891 102.314 56.7169 99.1807C43.1113 94.1503 30.4177 94.4298 18.8125 103.858C11.7523 109.594 21.8131 119.552 28.8144 113.86H28.7997Z" fill="black"/>
<path d="M113.963 103.858C102.358 94.4298 89.6645 94.1503 76.0589 99.1807C67.5867 102.314 71.2491 115.993 79.8243 112.816C88.3995 109.639 96.4452 107.741 103.976 113.86C110.977 119.552 121.053 109.609 113.978 103.858H113.963Z" fill="black"/>
</g>
<defs>
<clipPath id="clip0_41_811">
<rect width="176.946" height="243.65" fill="white"/>
</clipPath>
</defs>
</svg>
