<svg width="188" height="244" viewBox="0 0 188 244" fill="none" xmlns="http://www.w3.org/2000/svg">
<g clip-path="url(#clip0_41_789)">
<path d="M23.0783 177.954C20.0765 140.473 17.0746 102.889 17.996 65.2484C18.2189 56.2296 18.6498 47.1963 19.3929 38.2065C19.7198 34.1176 21.5922 27.9408 20.7749 24.0114L21.1761 21.9234C17.5799 18.168 16.1087 17.4285 16.7626 19.676C16.6883 19.7485 16.9706 25.6643 16.9706 24.9249C17.1341 43.8469 17.1489 62.7689 17.2381 81.691C17.2975 92.8847 35.1301 92.9137 35.0707 81.691C35.0112 69.3953 34.9518 57.0851 34.8924 44.7894C34.8478 35.0021 36.7499 23.0399 33.4955 13.6441C30.5382 5.10385 20.7303 1.21794 12.557 5.69833C2.86801 11.0052 2.94231 23.0834 2.05069 32.5227C-2.49662 80.9515 1.38196 129.612 5.24569 177.954C6.13732 189.046 23.9699 189.133 23.0783 177.954Z" fill="#FF6021"/>
<path d="M54.4784 177.954C51.4766 140.473 48.4748 102.889 49.3962 65.2484C49.6191 56.2296 50.05 47.1963 50.793 38.2065C51.12 34.1176 52.9924 27.9408 52.1751 24.0114L52.5763 21.9234C48.9801 18.168 47.5089 17.4285 48.1627 19.676C48.0884 19.7485 48.3708 25.6643 48.3708 24.9249C48.5343 43.8469 48.5491 62.7689 48.6383 81.691C48.6977 92.8847 66.5303 92.9137 66.4709 81.691C66.4114 69.3953 66.352 57.0851 66.2925 44.7894C66.248 35.0021 68.1501 23.0399 64.8956 13.6441C61.9384 5.10385 52.1305 1.21794 43.9572 5.69833C34.2682 11.0052 34.3425 23.0979 33.4657 32.5372C28.9184 80.966 32.797 129.627 36.6607 177.969C37.5524 189.061 55.3849 189.148 54.4933 177.969L54.4784 177.954Z" fill="#FF6021"/>
<path d="M85.8788 177.954C82.877 140.473 79.8752 102.889 80.7966 65.2484C81.0195 56.2296 81.4504 47.1963 82.1934 38.2065C82.5204 34.1176 84.3928 27.9408 83.5755 24.0114L83.9767 21.9234C80.3805 18.168 78.9093 17.4285 79.5631 19.676C79.4888 19.7485 79.7712 25.6643 79.7712 24.9249C79.9346 43.8469 79.9495 62.7689 80.0387 81.691C80.0981 92.8847 97.9307 92.9137 97.8713 81.691C97.8118 69.3953 97.7524 57.0851 97.6929 44.7894C97.6483 35.0021 99.5505 23.0399 96.296 13.6441C93.3388 5.10385 83.5309 1.21794 75.3576 5.69833C65.6686 11.0052 65.7429 23.0979 64.8661 32.5372C60.3188 80.966 64.1974 129.627 68.0611 177.969C68.9527 189.061 86.7853 189.148 85.8937 177.969L85.8788 177.954Z" fill="#FF6021"/>
<path d="M27.1799 91.9277C51.2093 90.4342 75.1941 88.3463 99.1195 85.6348C110.384 84.3589 110.517 66.9448 99.1195 68.2353C75.1941 70.9322 51.2093 73.0347 27.1799 74.5281C15.7819 75.2386 15.7076 92.6382 27.1799 91.9277Z" fill="#FF6021"/>
<path d="M108.615 77.1671C107.902 62.45 109.388 47.9358 113.564 33.7552C115.198 28.2453 116.996 20.778 122.019 17.1386L120.191 16.9646L120.89 18.8205C120.593 20.3285 120.994 22.3874 120.979 23.9534C120.935 28.2018 120.741 32.4502 120.608 36.6841C119.567 68.2933 117.695 99.859 115.065 131.381C114.128 142.546 131.976 142.488 132.897 131.381C134.666 110.212 136.092 89.0133 137.147 67.8003C137.682 56.9546 138.128 46.1089 138.485 35.2631C138.767 26.4473 140.491 15.8916 135.513 7.97479C131.159 1.05846 122.391 -1.97196 114.767 1.33396C107.144 4.63987 102.879 12.0202 99.9218 19.038C92.2984 37.1481 89.8612 57.7231 90.7975 77.1526C91.3324 88.3028 109.18 88.3608 108.63 77.1526L108.615 77.1671Z" fill="#FF6021"/>
<path d="M131.411 136.166C137.563 127.829 145.336 120.564 154.267 115.084C157.15 113.315 165.145 107.428 168.681 109.153C170.777 110.183 169.751 109.559 169.231 111.807C168.681 114.228 165.427 117.186 163.941 119.143C149.868 137.529 134.755 155.132 120.756 173.575C113.92 182.579 129.39 191.265 136.152 182.362C146.376 168.906 157.194 155.9 167.745 142.691C175.918 132.469 193.454 116.794 186.291 102.425C179.128 88.0562 161.236 91.2316 149.392 97.6694C135.973 104.963 124.917 115.286 115.986 127.394C109.269 136.499 124.724 145.185 131.382 136.18L131.411 136.166Z" fill="#FF6021"/>
<path d="M14.3256 188.437C52.3387 186.233 90.4262 185.914 128.469 187.509C139.941 187.988 139.926 170.588 128.469 170.11C90.4262 168.515 52.3387 168.819 14.3256 171.038C2.92762 171.705 2.83846 189.104 14.3256 188.437Z" fill="#FF6021"/>
<path d="M67.3625 116.896C58.6097 112.575 47.182 104.731 37.3444 110.792C27.5067 116.853 30.2856 127.06 36.5419 134.194C41.7431 140.139 51.6847 135.151 51.759 128.046C51.8779 118.274 46.7362 110.386 39.8409 103.672C33.6887 97.6841 23.539 91.8698 24.6832 82.2565L11.2642 89.7673C14.8605 92.1308 15.3657 99.3661 16.1236 103.237C17.3124 109.284 17.9217 115.417 18.5756 121.536C19.9873 134.586 21.295 147.65 22.4987 160.714L39.1128 156.321C33.6292 147.519 32.8268 137.123 37.6713 127.829C32.2324 127.133 26.8083 126.437 21.3693 125.755C22.6771 133.295 23.1972 140.908 22.9743 148.549C22.8703 152.145 22.6176 155.726 22.1569 159.293C21.8895 161.352 21.0127 167.906 20.7006 168.152L27.0015 165.6L25.6789 165.47L31.9797 168.022L31.0881 167.065L33.3766 175.533L33.6441 174.474L25.0399 180.854C59.5459 184.928 94.156 188.858 128.974 187.364C140.417 186.871 140.491 170.313 128.974 169.965C107.412 169.312 85.9233 168.471 65.1929 162.063L67.318 177.969C69.7997 176.649 71.999 175.823 74.8374 175.533C86.2651 174.402 86.3245 159.235 74.8374 158.133C60.9725 156.814 47.1077 156.147 33.1834 156.132L35.5611 173.227C49.9461 171.096 64.5836 171.734 79.0726 172.299V154.9C67.7638 156.161 56.8116 155.625 45.7554 152.942V169.718C55.2364 167.398 64.6133 166.499 74.3767 166.818C83.0106 167.108 86.8001 154.508 78.8794 150.608C70.1266 146.301 61.9385 141.14 54.6568 134.716C51.0606 131.541 47.6575 128.133 44.522 124.523C41.8174 121.42 36.5568 116.287 36.0366 112.155L24.7427 120.55C30.9692 122.623 33.8373 126.364 37.6862 131.12C38.1914 131.947 38.6075 132.817 38.9196 133.73L42.7833 129.206C42.7833 127.8 39.0236 126.596 38.9047 127.756C38.9047 127.727 45.7108 132.019 46.3944 133.092C48.5046 136.427 46.5876 134.151 43.1102 136.166L41.535 136.5L42.174 145.46L40.7177 143.822L40.4056 144.605C42.5158 144.445 41.9957 147.766 42.0849 145.141C42.1443 143.546 41.0298 141.154 40.6731 139.545C39.7666 135.514 38.9939 131.439 38.4886 127.35C38.0577 123.812 37.7753 120.246 37.6119 116.679C37.5078 114.446 37.4781 112.213 37.4781 109.994C37.4781 106.717 39.0087 104.586 34.937 108.428C30.8652 112.271 32.5444 110.197 35.0261 112.068C36.4379 113.126 37.7605 113.764 39.0533 115.084C39.9747 116.026 40.5542 117.36 41.4607 118.23L42.3523 119.869L52.1008 113.953C52.4723 112.329 48.0439 105.717 47.3455 103.498C46.2904 100.12 46.6024 95.3497 45.1907 92.3192L45.1015 89.8253L41.1932 93.1022C41.3121 93.3487 43.9721 93.9577 44.2991 94.0882C45.904 94.7697 47.4495 95.7557 48.8167 96.8141C50.6742 98.2496 51.0457 100.41 49.9906 97.1041L50.8823 90.4053C51.9671 88.4478 48.7424 90.2023 47.6278 90.3763C45.6068 90.6808 43.5412 90.7678 41.4904 90.6518C37.2998 90.4053 33.332 89.2163 29.6021 87.3749L25.0993 103.585C42.2186 103.02 58.8178 105.166 75.194 110.067L77.5717 92.9717C67.4071 94.0302 57.3614 93.9142 47.2266 92.6092L49.6043 109.704C61.567 105.282 73.8417 102.368 86.6069 101.367C97.886 100.483 98.2426 83.837 86.6069 83.9675C82.3568 84.0109 78.0918 84.0689 73.8417 84.1124L76.2194 101.208C85.0465 99.8156 93.8736 98.4236 102.686 97.0316L97.9454 80.2555C84.1103 82.764 69.8888 87.0704 60.289 97.7276C51.8482 107.109 48.3708 119.985 53.5423 131.7C57.51 140.719 70.513 152.362 80.9004 145.083C91.9121 137.37 84.3035 119.97 77.3488 112.155C73.2473 107.558 67.1099 103.005 60.4376 104.629C54.1367 106.166 51.0755 112.068 50.1541 117.839C48.3263 129.322 52.9627 143.141 66.1143 145.315C80.2614 147.65 90.7827 134.267 95.0328 122.798C96.9795 117.563 98.4507 111.067 95.003 106.094C90.8272 100.077 83.3078 100.439 77.8689 104.528C72.8609 108.283 68.1501 115.693 70.2603 122.073C72.5934 129.134 80.8856 130.946 87.1567 127.8C99.9516 121.362 108.526 105.702 111.483 92.5657C112.449 88.2593 110.19 82.793 105.257 81.865C91.065 79.1971 76.4126 93.4502 67.7786 103.02C62.2951 109.095 67.4368 120.492 76.4572 117.563C85.0168 114.779 97.1281 113.025 103.86 106.804C110.592 100.584 113.118 89.8978 115.436 81.836C121.351 61.232 124.293 39.642 128.305 18.6321L110.785 16.3121C111.632 69.3953 109.314 122.653 98.4507 174.793L115.971 177.113C114.441 160.323 114.158 143.517 115.109 126.683L97.5888 129.003C98.3466 134.484 97.143 139.907 94.6167 144.793C100.056 145.489 105.48 146.185 110.919 146.867C108.749 132.802 111.81 118.665 114.708 104.934C117.011 94.0592 100.308 89.3613 97.5145 100.309C95.33 108.878 92.5065 117.273 88.613 125.248C86.8892 128.786 84.9871 132.237 82.9661 135.615C82.2973 136.746 81.5989 137.863 80.8856 138.965L83.6645 137.761C83.7982 137.457 78.6268 132.44 78.3296 132.077C74.7333 136.63 71.1222 141.183 67.526 145.736C72.1328 147.998 75.8776 150.825 78.5673 155.204C80.633 158.568 81.1679 162.382 82.7283 165.934C87.2459 176.214 96.8903 176.04 106.787 174.561C126.463 171.647 142.141 156.944 136.345 136.384C134.443 129.641 123.416 127.307 120.043 134.31C117.428 139.748 115.109 145.315 113.579 151.144C112.345 155.842 110.294 162.715 111.617 167.587C114.827 179.433 127.83 175.62 133.254 168.138C146.034 150.492 155.916 131.265 173.734 117.708C182.279 111.198 171.386 100.251 162.93 104.049C146.985 111.198 131.471 119.144 116.372 127.887C106.505 133.6 115.466 148.636 125.378 142.908C140.476 134.18 155.99 126.234 171.936 119.071C168.34 114.518 164.728 109.965 161.132 105.412C151.696 112.604 144.087 121.449 137.147 130.917C133.878 135.383 130.802 139.98 127.756 144.59C126.002 147.229 124.278 149.883 122.525 152.507C121.366 154.247 119.671 158.235 117.799 159.279L124.665 158.409L123.268 158.133L128.603 162.135C129.851 164.469 129.242 163.107 129.643 160.917C130.044 158.728 130.564 156.64 131.159 154.523C132.258 150.593 133.7 146.809 135.468 143.111C130.029 142.416 124.605 141.72 119.166 141.038C120.667 146.345 119.018 151.637 114.069 154.537C111.171 156.234 107.664 156.915 104.365 157.466C102.983 157.698 101.155 157.597 99.8624 158.061L97.7076 158.235C99.164 160.105 99.5949 160.308 99.0005 158.858C99.5355 157.22 97.0687 152.768 96.3999 151.246C95.1071 148.273 93.517 145.547 91.5257 142.966C87.5431 137.776 82.4905 133.658 76.5463 130.743C67.2882 126.19 59.2339 136.819 65.7428 144.402C69.7699 149.1 74.9563 155.262 81.6286 156.074C88.7765 156.93 93.517 152.043 97.0092 146.664C105.257 133.948 111.023 119.521 114.738 104.963L97.5442 100.338C93.9331 117.404 91.065 134.122 93.7548 151.521C94.899 158.916 106.787 159.917 110.057 153.595C114.946 144.141 116.268 134.818 114.827 124.392C113.385 113.967 97.8414 117.447 97.3064 126.712C96.3554 143.546 96.6526 160.352 98.1683 177.142C98.9856 186.219 113.534 189.771 115.689 179.462C126.864 125.799 129.539 71.0048 128.662 16.3556C128.513 6.91634 113.059 4.07441 111.142 14.0357C107.768 31.6382 104.796 49.3713 100.873 66.8869C99.0451 75.0647 97.0835 83.924 93.1603 91.4348C90.0396 97.4086 77.9729 98.8006 71.7315 100.831L80.41 115.374C83.6348 111.792 87.0675 108.37 90.9016 105.412C92.8483 103.904 94.9287 102.527 97.0538 101.237C97.9157 100.715 102.389 99.0471 100.561 98.6991L94.3343 87.9984C93.1752 93.1312 91.4662 97.8146 88.5685 102.251C87.0527 104.571 81.5543 112.097 79.8602 111.981L86.1611 114.533C86.057 119.999 86.7258 121.522 88.1821 119.115C88.9548 118.288 89.0886 118.056 88.5536 118.433L81.688 117.563C79.7265 113.866 78.6119 113.706 78.3296 117.099C77.7797 118.709 77.0516 120.246 76.1451 121.696C75.194 123.276 72.3408 128.119 69.9928 128.09C67.526 128.046 66.6344 120.942 67.3625 120.608L60.497 121.478C63.7217 121.928 65.8468 125.639 67.0356 128.293C67.4666 129.264 67.6746 131.7 68.3136 132.396C68.3433 134.383 69.443 134.151 71.5829 131.671C74.8968 130.932 75.6993 130.236 74.02 129.583C73.7228 128.394 70.3346 126.132 69.6511 124.363C68.6703 121.812 68.7 119.187 69.4282 116.592C73.2324 103.02 90.6043 99.2936 102.73 97.1041C114.084 95.0452 109.165 78.5591 97.99 80.328C89.1629 81.72 80.3357 83.112 71.5235 84.5039C61.4778 86.0844 64.0338 101.701 73.9012 101.599C78.1513 101.556 82.4162 101.498 86.6663 101.454V84.0545C72.3111 85.1854 58.4017 88.0274 44.9232 93.0152C35.145 96.6256 37.3295 108.82 47.3009 110.11C57.2723 111.401 67.4814 111.531 77.646 110.473C87.2905 109.472 90.1882 96.4227 80.0237 93.3777C62.2505 88.0564 43.7641 85.6639 25.1885 86.2729C16.8369 86.5484 12.4233 98.3946 20.6858 102.483C30.672 107.428 41.4013 109.298 52.4872 107.268C62.6369 105.412 72.8015 97.1476 64.227 87.1719C58.7286 80.763 48.252 75.0212 39.514 76.0071C27.1649 77.4136 26.7043 88.9408 28.1011 98.5541C29.498 108.167 32.9902 121.449 41.0743 127.713C49.6786 134.383 62.1317 127.742 60.0215 116.867C58.3125 108.051 50.2284 99.9896 42.2186 96.2197C34.2088 92.4497 22.8257 92.1597 20.2102 102.425C17.5948 112.691 20.3142 127.031 22.2164 137.718C23.7767 146.49 25.4263 158.351 35.3679 161.787C57.7181 169.515 68.7446 130.395 43.8235 128.307C35.0707 127.568 26.3922 133.817 27.1649 142.938C28.0863 153.609 39.3059 154.9 47.925 153.058C57.406 151.028 66.1143 144.605 65.6982 134.339C65.2821 124.073 55.4296 115.794 46.647 112.198C36.215 107.935 24.1334 112.532 22.9594 124.421C21.9043 135.006 32.2324 148.099 43.7492 147.708C56.663 147.273 58.9069 134.702 54.5379 125.219C49.7231 114.794 40.5096 107.529 29.5575 103.89C24.5346 102.223 17.5799 106.79 18.2635 112.285C19.8239 124.798 29.6466 135.282 38.5778 143.894C47.5089 152.507 58.4165 160.105 69.9334 165.76L74.4361 149.549C63.157 149.172 52.0265 150.39 41.0743 153.058C32.589 155.132 32.5593 167.775 41.0743 169.834C53.6017 172.879 66.2926 173.851 79.132 172.415C90.3071 171.168 90.8718 155.465 79.132 155.016C62.9341 154.392 46.9591 154.189 30.8801 156.567C20.7749 158.061 23.4498 173.648 33.2577 173.662C47.182 173.662 61.0617 174.344 74.9117 175.663V158.264C68.8337 158.873 63.7663 160.221 58.3868 163.078C51.3727 166.789 53.4829 176.794 60.5119 178.984C82.6688 185.842 105.955 186.813 129.034 187.509V170.11C94.2154 171.603 59.6054 167.674 25.0993 163.6C21.3545 163.165 17.357 166.615 16.4951 169.979C14.8159 176.591 19.1254 182.928 26.3625 183.087C33.7927 183.247 37.0026 176.925 38.2657 170.777C41.639 154.349 41.4459 137.747 38.5778 121.275C37.2998 113.938 25.6046 112.822 22.2758 119.202C14.5632 133.962 14.8307 150.999 23.7173 165.252C28.012 172.14 41.1635 169.863 40.3313 160.859C38.8007 144.3 37.3146 127.713 35.2193 111.212C33.5847 98.2786 32.2769 82.793 20.2697 74.8762C14.0728 70.8018 7.56395 76.4131 6.85065 82.387C5.72125 91.9858 10.9224 100.425 17.4759 107.167C23.2566 113.112 34.0453 118.984 33.9413 128.177L49.1585 122.029C45.0272 124.45 44.3882 126.002 47.2414 126.669C48.5492 127.176 49.8272 127.756 51.0606 128.438C53.5126 129.612 55.9348 130.845 58.3719 132.048C68.5811 137.094 77.6311 122.087 67.3774 117.027L67.3625 116.896Z" fill="#FF6021"/>
<path d="M76.8882 180.927C76.9179 198.254 76.9327 215.581 76.9625 232.908C76.9625 237.04 79.786 239.911 83.5011 241.303C90.1289 243.768 97.9157 244.435 103.474 239.215C109.031 233.995 108.645 225.89 103.86 220.25C94.2898 208.969 74.8226 215.465 79.7562 231.124C83.62 243.406 102.998 249.481 111.082 237.591C114.886 231.994 113.608 224.353 108.11 220.351C102.225 216.074 94.1858 215.914 87.3797 217.77L97.4551 221.772L96.7863 220.25L97.678 226.948C93.6954 226.716 92.5808 227.905 94.3344 230.515C94.7059 232.038 94.795 233.575 94.6167 235.126C94.4087 242.666 104.514 246.61 109.834 241.274C120.801 230.283 110.547 216.77 97.886 213.855C86.7258 211.289 81.9556 228.065 93.1455 230.631C94.0817 230.762 94.9734 231.008 95.8501 231.356C97.1727 232.11 97.6334 231.327 97.2322 228.964L112.449 235.112C112.732 224.89 108.615 212.666 96.5783 211.622C84.8088 210.607 77.4677 220.003 82.0447 230.544C83.5457 234.01 88.6725 235.474 92.1202 234.546C94.8842 233.792 104.44 235.097 97.8117 226.673C96.1325 224.542 91.0651 225.557 88.2416 224.513L94.7802 232.908C94.7505 215.581 94.7356 198.254 94.7059 180.927C94.691 169.733 76.8584 169.718 76.8733 180.927H76.8882Z" fill="#FF6021"/>
<path d="M40.6881 180.926C40.6584 198.254 40.6435 215.581 40.6138 232.908L47.1524 224.512C45.2205 225.223 38.5779 225.165 37.5822 226.673L38.5482 234.155C40.168 233.749 41.7432 233.894 43.2738 234.546C46.662 235.474 51.8335 234.024 53.3492 230.544C57.9263 220.018 50.6298 210.593 38.8157 211.622C27.0016 212.652 22.6623 224.875 22.9447 235.112L38.1618 228.964C37.7457 231.313 38.2064 232.11 39.5438 231.356C40.4057 231.008 41.3122 230.762 42.2484 230.631C53.4087 228.065 48.683 211.289 37.5079 213.855C24.8468 216.77 14.6079 230.298 25.5601 241.274C30.8653 246.595 40.9853 242.666 40.7773 235.126C40.5989 233.575 40.6881 232.038 41.0596 230.515C42.8131 227.92 41.6986 226.731 37.716 226.948L38.6076 220.249L37.9389 221.772L48.0143 217.77C36.3488 214.595 14.816 221.279 23.866 236.779C31.3557 249.611 51.6551 243.768 55.6377 231.124C60.3336 216.19 42.189 208.925 32.2176 219.365C27.1056 224.715 25.9316 232.893 31.2963 238.476C36.6609 244.058 44.7153 243.942 51.8632 241.288C55.5932 239.911 58.4018 236.982 58.4018 232.893C58.4315 215.566 58.4464 198.239 58.4761 180.912C58.4909 169.718 40.6584 169.704 40.6435 180.912L40.6881 180.926Z" fill="#FF6021"/>
<path d="M41.2527 98.2351C35.3977 98.8296 29.5575 98.4236 24.8616 102.556C20.1657 106.688 17.8326 112.807 17.2679 118.651C16.0047 131.889 27.9674 141.459 41.0298 141.125C54.0922 140.792 61.8047 131.207 62.6666 119.521C63.8109 103.803 50.065 96.0892 35.576 99.1196C24.3563 101.469 29.1117 118.245 40.3165 115.896C44.5666 115.011 46.2755 116.809 44.5517 121.043C43.6898 123.175 41.7431 123.986 39.3803 123.696C36.2893 123.319 34.5506 122.232 35.0707 119.347C35.2342 118.477 35.5165 117.65 35.9178 116.867C37.1066 115.388 37.1512 115.084 36.0515 115.939C37.1809 115.374 39.9598 115.751 41.2676 115.62C46.0526 115.127 50.1838 111.966 50.1838 106.92C50.1838 102.6 46.0824 97.7276 41.2676 98.2206L41.2527 98.2351Z" fill="black"/>
<path d="M98.6438 98.2351C92.7888 98.8296 86.9486 98.4236 82.2527 102.556C77.5568 106.688 75.2237 112.807 74.659 118.651C73.3958 131.889 85.3585 141.459 98.4209 141.125C111.483 140.792 119.196 131.207 120.058 119.521C121.202 103.803 107.456 96.0892 92.9671 99.1196C81.7474 101.469 86.5028 118.245 97.7076 115.896C101.958 115.011 103.667 116.809 101.943 121.043C101.081 123.175 99.1342 123.986 96.7714 123.696C93.6804 123.319 91.9417 122.232 92.4618 119.347C92.6253 118.477 92.9077 117.65 93.3089 116.867C94.4977 115.388 94.5423 115.084 93.4426 115.939C94.572 115.374 97.3509 115.751 98.6587 115.62C103.444 115.127 107.575 111.966 107.575 106.92C107.575 102.6 103.473 97.7276 98.6587 98.2206L98.6438 98.2351Z" fill="black"/>
<path d="M18.2785 127.698C29.7507 127.698 29.7656 110.299 18.2785 110.299C6.7913 110.299 6.7913 127.698 18.2785 127.698Z" fill="black"/>
<path d="M118.23 129.018C129.702 129.018 129.717 111.618 118.23 111.618C106.743 111.618 106.743 129.018 118.23 129.018Z" fill="black"/>
<path d="M60.4228 127.698H74.2431C78.9093 127.698 83.3823 123.696 83.1594 118.999C82.9365 114.301 79.2362 110.299 74.2431 110.299H60.4228C55.7566 110.299 51.2836 114.301 51.5065 118.999C51.7294 123.696 55.4297 127.698 60.4228 127.698Z" fill="black"/>
<path d="M40.4799 127.698C51.9522 127.698 51.967 110.299 40.4799 110.299C28.9927 110.299 28.9927 127.698 40.4799 127.698Z" fill="#AAE8DC"/>
<path d="M97.3659 128.133C108.838 128.133 108.853 110.734 97.3659 110.734C85.8787 110.734 85.8787 128.133 97.3659 128.133Z" fill="#AAE8DC"/>
</g>
<defs>
<clipPath id="clip0_41_789">
<rect width="188" height="244" fill="white"/>
</clipPath>
</defs>
</svg>
