<svg width="183" height="244" viewBox="0 0 183 244" fill="none" xmlns="http://www.w3.org/2000/svg">
<g clip-path="url(#clip0_41_328)">
<path d="M22.4645 177.954C19.5425 140.473 16.6206 102.889 17.5174 65.2484C17.7344 56.2296 18.1539 47.1963 18.8771 38.2065C19.1954 34.1176 21.018 27.9408 20.2224 24.0114L20.613 21.9234C17.1124 18.168 15.6803 17.4285 16.3168 19.676C16.2445 19.7485 16.5193 25.6643 16.5193 24.9249C16.6784 43.8469 16.6929 62.7689 16.7797 81.691C16.8375 92.8847 34.1959 92.9137 34.138 81.691C34.0801 69.3953 34.0223 57.0851 33.9644 44.7894C33.921 35.0021 35.7726 23.0399 32.6047 13.6441C29.7261 5.10385 20.179 1.21794 12.2231 5.69833C2.79178 11.0052 2.86411 23.0834 1.99619 32.5227C-2.43018 80.9515 1.34525 129.612 5.10622 177.954C5.97414 189.046 23.3324 189.133 22.4645 177.954Z" fill="#FF6021"/>
<path d="M53.0297 177.954C50.1077 140.473 47.1857 102.889 48.0825 65.2484C48.2995 56.2296 48.719 47.1963 49.4423 38.2065C49.7605 34.1176 51.5831 27.9408 50.7875 24.0114L51.1781 21.9234C47.6775 18.168 46.2454 17.4285 46.8819 19.676C46.8096 19.7485 47.0844 25.6643 47.0844 24.9249C47.2436 43.8469 47.258 62.7689 47.3448 81.691C47.4027 92.8847 64.761 92.9137 64.7031 81.691C64.6453 69.3953 64.5874 57.0851 64.5295 44.7894C64.4861 35.0021 66.3377 23.0399 63.1698 13.6441C60.2912 5.10385 50.7441 1.21794 42.7883 5.69833C33.3569 11.0052 33.4292 23.0979 32.5758 32.5372C28.1494 80.966 31.9248 129.627 35.6858 177.969C36.5537 189.061 53.912 189.148 53.0441 177.969L53.0297 177.954Z" fill="#FF6021"/>
<path d="M83.5947 177.954C80.6727 140.473 77.7508 102.889 78.6476 65.2484C78.8646 56.2296 79.2841 47.1963 80.0073 38.2065C80.3256 34.1176 82.1482 27.9408 81.3526 24.0114L81.7432 21.9234C78.2426 18.168 76.8105 17.4285 77.447 19.676C77.3747 19.7485 77.6495 25.6643 77.6495 24.9249C77.8086 43.8469 77.8231 62.7689 77.9099 81.691C77.9677 92.8847 95.326 92.9137 95.2682 81.691C95.2103 69.3953 95.1525 57.0851 95.0946 44.7894C95.0512 35.0021 96.9028 23.0399 93.7349 13.6441C90.8563 5.10385 81.3092 1.21794 73.3533 5.69833C63.922 11.0052 63.9943 23.0979 63.1408 32.5372C58.7145 80.966 62.4899 129.627 66.2509 177.969C67.1188 189.061 84.4771 189.148 83.6092 177.969L83.5947 177.954Z" fill="#FF6021"/>
<path d="M26.4569 91.9277C49.8473 90.4342 73.1942 88.3463 96.4832 85.6348C107.448 84.3589 107.578 66.9448 96.4832 68.2353C73.1942 70.9322 49.8473 73.0347 26.4569 74.5281C15.3621 75.2386 15.2897 92.6382 26.4569 91.9277Z" fill="#FF6021"/>
<path d="M105.727 77.1671C105.032 62.45 106.479 47.9358 110.544 33.7552C112.135 28.2453 113.885 20.778 118.774 17.1386L116.995 16.9646L117.675 18.8205C117.386 20.3285 117.776 22.3874 117.762 23.9534C117.718 28.2018 117.53 32.4502 117.4 36.6841C116.387 68.2933 114.565 99.859 112.004 131.381C111.093 142.546 128.466 142.488 129.363 131.381C131.084 110.212 132.473 89.0133 133.5 67.8003C134.021 56.9546 134.455 46.1089 134.802 35.2631C135.077 26.4473 136.755 15.8916 131.909 7.97479C127.67 1.05846 119.136 -1.97196 111.715 1.33396C104.295 4.63987 100.143 12.0202 97.2644 19.038C89.8437 37.1481 87.4714 57.7231 88.3827 77.1526C88.9035 88.3028 106.276 88.3608 105.741 77.1526L105.727 77.1671Z" fill="#FF6021"/>
<path d="M127.916 136.166C133.905 127.829 141.47 120.564 150.164 115.084C152.97 113.315 160.752 107.428 164.195 109.153C166.235 110.183 165.237 109.559 164.73 111.807C164.195 114.228 161.027 117.186 159.581 119.143C145.882 137.529 131.171 155.132 117.545 173.575C110.891 182.579 125.949 191.265 132.531 182.362C142.483 168.906 153.014 155.9 163.284 142.691C171.24 132.469 188.309 116.794 181.337 102.425C174.364 88.0562 156.948 91.2316 145.419 97.6694C132.357 104.963 121.595 115.286 112.901 127.394C106.363 136.499 121.407 145.185 127.887 136.18L127.916 136.166Z" fill="#FF6021"/>
<path d="M13.9445 188.437C50.9467 186.233 88.0211 185.914 125.052 187.509C136.219 187.988 136.205 170.588 125.052 170.11C88.0211 168.515 50.9467 168.819 13.9445 171.038C2.84969 171.705 2.76289 189.104 13.9445 188.437Z" fill="#FF6021"/>
<path d="M65.571 116.896C57.0509 112.575 45.9271 104.731 36.3511 110.792C26.7751 116.853 29.4801 127.06 35.57 134.194C40.6329 140.139 50.3101 135.151 50.3825 128.046C50.4982 118.274 45.4932 110.386 38.7813 103.672C32.7927 97.6841 22.9129 91.8698 24.0267 82.2565L10.9646 89.7673C14.4652 92.1308 14.957 99.3661 15.6948 103.237C16.852 109.284 17.4451 115.417 18.0815 121.536C19.4557 134.586 20.7287 147.65 21.9004 160.714L38.0725 156.321C32.7348 147.519 31.9537 137.123 36.6694 127.829L20.801 125.755C22.0739 133.295 22.5802 140.908 22.3632 148.549C22.262 152.145 22.0161 155.726 21.5676 159.293C21.3073 161.352 20.4538 167.906 20.1501 168.152L26.2833 165.6L24.9959 165.47L31.1292 168.022L30.2613 167.065L32.4889 175.533L32.7493 174.474L24.3739 180.854C57.9622 184.928 91.6518 188.858 125.544 187.364C136.682 186.871 136.755 170.313 125.544 169.965C104.555 169.312 83.6381 168.471 63.459 162.063L65.5276 177.969C67.9433 176.649 70.0841 175.823 72.847 175.533C83.9708 174.402 84.0286 159.235 72.847 158.133C59.3509 156.814 45.8548 156.147 32.3009 156.132L34.6153 173.227C48.6177 171.096 62.866 171.734 76.9696 172.299V154.9C65.9615 156.161 55.3006 155.625 44.5385 152.942V169.718C53.7673 167.398 62.8949 166.499 72.3986 166.818C80.8029 167.108 84.4915 154.508 76.7815 150.608C68.2615 146.301 60.2911 141.14 53.2032 134.716C49.7026 131.541 46.39 128.133 43.3379 124.523C40.7052 121.42 35.5845 116.287 35.0782 112.155L24.0846 120.55C30.1455 122.623 32.9373 126.364 36.6838 131.12C37.1757 131.947 37.5807 132.817 37.8845 133.73L41.6454 129.206C41.6454 127.8 37.9857 126.596 37.87 127.756C37.87 127.727 44.4951 132.019 45.1605 133.092C47.2146 136.427 45.3485 134.151 41.9637 136.166L40.4304 136.5L41.0524 145.46L39.6348 143.822L39.331 144.605C41.3851 144.445 40.8788 147.766 40.9656 145.141C41.0234 143.546 39.9385 141.154 39.5914 139.545C38.709 135.514 37.9568 131.439 37.465 127.35C37.0455 123.812 36.7706 120.246 36.6115 116.679C36.5103 114.446 36.4813 112.213 36.4813 109.994C36.4813 106.717 37.9713 104.586 34.0078 108.428C30.0443 112.271 31.6789 110.197 34.0946 112.068C35.4688 113.126 36.7562 113.764 38.0147 115.084C38.9115 116.026 39.4756 117.36 40.358 118.23L41.2259 119.869L50.7152 113.953C51.0768 112.329 46.7661 105.717 46.0863 103.498C45.0592 100.12 45.363 95.3497 43.9888 92.3192L43.902 89.8253L40.0976 93.1022C40.2134 93.3487 42.8027 93.9577 43.1209 94.0882C44.6831 94.7697 46.1875 95.7557 47.5183 96.8141C49.3265 98.2496 49.6881 100.41 48.6611 97.1041L49.529 90.4053C50.585 88.4478 47.446 90.2023 46.3611 90.3763C44.3938 90.6808 42.3832 90.7678 40.387 90.6518C36.3077 90.4053 32.4455 89.2163 28.8147 87.3749L24.4318 103.585C41.0958 103.02 57.2534 105.166 73.1942 110.067L75.5086 92.9717C65.6144 94.0302 55.8359 93.9142 45.9705 92.6092L48.285 109.704C59.9295 105.282 71.8778 102.368 84.3035 101.367C95.2826 100.483 95.6298 83.837 84.3035 83.9675C80.1664 84.0109 76.0149 84.0689 71.8778 84.1124L74.1923 101.208C82.7846 99.8156 91.377 98.4236 99.9549 97.0316L95.3405 80.2555C81.8733 82.764 68.0301 87.0704 58.6855 97.7276C50.4692 107.109 47.0844 119.985 52.1183 131.7C55.9805 140.719 68.6376 152.362 78.7488 145.083C89.4676 137.37 82.0614 119.97 75.2916 112.155C71.2992 107.558 65.3251 103.005 58.8302 104.629C52.6969 106.166 49.717 112.068 48.8202 117.839C47.041 129.322 51.5541 143.141 64.3559 145.315C78.1268 147.65 88.3682 134.267 92.5053 122.798C94.4002 117.563 95.8323 111.067 92.4764 106.094C88.4116 100.077 81.0922 100.439 75.7979 104.528C70.9231 108.283 66.3376 115.693 68.3917 122.073C70.6627 129.134 78.7344 130.946 84.8387 127.8C97.2933 121.362 105.64 105.702 108.518 92.5657C109.459 88.2593 107.26 82.793 102.457 81.865C88.6431 79.1971 74.3803 93.4502 65.976 103.02C60.6383 109.095 65.6433 120.492 74.4237 117.563C82.7557 114.779 94.5449 113.025 101.098 106.804C107.65 100.584 110.11 89.8978 112.366 81.836C118.123 61.232 120.987 39.642 124.893 18.6321L107.838 16.3121C108.663 69.3953 106.406 122.653 95.8323 174.793L112.887 177.113C111.397 160.323 111.122 143.517 112.048 126.683L94.9933 129.003C95.731 134.484 94.5593 139.907 92.1003 144.793L107.969 146.867C105.857 132.802 108.837 118.665 111.657 104.934C113.899 94.0592 97.6405 89.3613 94.921 100.309C92.7946 108.878 90.0462 117.273 86.2563 125.248C84.5783 128.786 82.7268 132.237 80.7595 135.615C80.1086 136.746 79.4287 137.863 78.7344 138.965L81.4394 137.761C81.5695 137.457 76.5356 132.44 76.2463 132.077L65.7301 145.736C70.2143 147.998 73.8596 150.825 76.4778 155.204C78.4884 158.568 79.0092 162.382 80.528 165.934C84.9255 176.214 94.3134 176.04 103.947 174.561C123.099 171.647 138.36 156.944 132.719 136.384C130.867 129.641 120.134 127.307 116.85 134.31C114.304 139.748 112.048 145.315 110.558 151.144C109.357 155.842 107.361 162.715 108.649 167.587C111.773 179.433 124.43 175.62 129.71 168.138C142.15 150.492 151.769 131.265 169.113 117.708C177.431 111.198 166.828 100.251 158.597 104.049C143.076 111.198 127.974 119.144 113.277 127.887C103.672 133.6 112.395 148.636 122.043 142.908C136.74 134.18 151.842 126.234 167.363 119.071L156.847 105.412C147.661 112.604 140.255 121.449 133.5 130.917C130.317 135.383 127.323 139.98 124.358 144.59C122.651 147.229 120.973 149.883 119.266 152.507C118.138 154.247 116.489 158.235 114.666 159.279L121.349 158.409L119.989 158.133L125.182 162.135C126.397 164.469 125.804 163.107 126.195 160.917C126.585 158.728 127.092 156.64 127.67 154.523C128.741 150.593 130.144 146.809 131.865 143.111L115.997 141.038C117.458 146.345 115.852 151.637 111.035 154.537C108.215 156.234 104.801 156.915 101.589 157.466C100.244 157.698 98.465 157.597 97.2065 158.061L95.109 158.235C96.5266 160.105 96.9461 160.308 96.3675 158.858C96.8883 157.22 94.487 152.768 93.8361 151.246C92.5776 148.273 91.0298 145.547 89.0915 142.966C85.2148 137.776 80.2966 133.658 74.5105 130.743C65.4986 126.19 57.6585 136.819 63.9943 144.402C67.9143 149.1 72.9627 155.262 79.4576 156.074C86.4154 156.93 91.0298 152.043 94.4292 146.664C102.457 133.948 108.07 119.521 111.686 104.963L94.9499 100.338C91.4349 117.404 88.6431 134.122 91.2613 151.521C92.3751 158.916 103.947 159.917 107.13 153.595C111.889 144.141 113.176 134.818 111.773 124.392C110.37 113.967 95.2392 117.447 94.7185 126.712C93.7927 143.546 94.082 160.352 95.5574 177.142C96.353 186.219 110.515 189.771 112.612 179.462C123.49 125.799 126.094 71.0048 125.24 16.3556C125.096 6.91634 110.052 4.07441 108.186 14.0357C104.902 31.6382 102.009 49.3713 98.1901 66.8869C96.4109 75.0647 94.5015 83.924 90.6827 91.4348C87.645 97.4086 75.8992 98.8006 69.8238 100.831L78.2715 115.374C81.4104 111.792 84.7519 108.37 88.4839 105.412C90.3789 103.904 92.404 102.527 94.4726 101.237C95.3115 100.715 99.6656 99.0471 97.8864 98.6991L91.8254 87.9984C90.6971 93.1312 89.0336 97.8146 86.2129 102.251C84.7374 104.571 79.3853 112.097 77.7363 111.981L83.8695 114.533C83.7683 119.999 84.4192 121.522 85.8368 119.115C86.589 118.288 86.7192 118.056 86.1984 118.433L79.5155 117.563C77.6061 113.866 76.5212 113.706 76.2463 117.099C75.7111 118.709 75.0023 120.246 74.1199 121.696C73.1942 123.276 70.4168 128.119 68.1313 128.09C65.7301 128.046 64.8622 120.942 65.571 120.608L58.888 121.478C62.027 121.928 64.0955 125.639 65.2527 128.293C65.6722 129.264 65.8747 131.7 66.4967 132.396C66.5257 134.383 67.5961 134.151 69.6791 131.671C72.9049 130.932 73.686 130.236 72.0514 129.583C71.7621 128.394 68.464 126.132 67.7986 124.363C66.8439 121.812 66.8728 119.187 67.5816 116.592C71.2848 103.02 88.1946 99.2936 99.9983 97.1041C111.05 95.0452 106.262 78.5591 95.3839 80.328C86.7915 81.72 78.1991 83.112 69.6212 84.5039C59.8427 86.0844 62.3308 101.701 71.9357 101.599C76.0727 101.556 80.2243 101.498 84.3613 101.454V84.0545C70.3879 85.1854 56.8484 88.0274 43.7284 93.0152C34.2103 96.6256 36.3367 108.82 46.0429 110.11C55.7491 111.401 65.6867 111.531 75.5809 110.473C84.9689 109.472 87.7896 96.4227 77.8954 93.3777C60.5949 88.0564 42.6001 85.6639 24.5186 86.2729C16.3891 86.5484 12.0929 98.3946 20.1356 102.483C29.8562 107.428 40.3002 109.298 51.0912 107.268C60.971 105.412 70.8653 97.1476 62.5188 87.1719C57.1667 80.763 46.9686 75.0212 38.4631 76.0071C26.4424 77.4136 25.994 88.9408 27.3538 98.5541C28.7135 108.167 32.1128 121.449 39.9819 127.713C48.3573 134.383 60.4792 127.742 58.4251 116.867C56.7616 108.051 48.8925 99.9896 41.0957 96.2197C33.299 92.4497 22.2186 92.1597 19.6727 102.425C17.1268 112.691 19.774 127.031 21.6255 137.718C23.1444 146.49 24.75 158.351 34.4273 161.787C56.183 169.515 66.9162 130.395 42.658 128.307C34.138 127.568 25.6903 133.817 26.4424 142.938C27.3393 153.609 38.2606 154.9 46.6504 153.058C55.8792 151.028 64.3559 144.605 63.9509 134.339C63.5458 124.073 53.9554 115.794 45.4064 112.198C35.2518 107.935 23.4915 112.532 22.3488 124.421C21.3217 135.006 31.3751 148.099 42.5857 147.708C55.156 147.273 57.3402 134.702 53.0875 125.219C48.4007 114.794 39.4322 107.529 28.7713 103.89C23.8821 102.223 17.1124 106.79 17.7778 112.285C19.2966 124.798 28.8581 135.282 37.5518 143.894C46.2454 152.507 56.8629 160.105 68.0735 165.76L72.4564 149.549C61.4773 149.172 50.6428 150.39 39.9819 153.058C31.7223 155.132 31.6933 167.775 39.9819 169.834C52.1761 172.879 64.5295 173.851 77.0275 172.415C87.9053 171.168 88.455 155.465 77.0275 155.016C61.2603 154.392 45.7102 154.189 30.0588 156.567C20.2224 158.061 22.8261 173.648 32.3732 173.662C45.9271 173.662 59.4377 174.344 72.9193 175.663V158.264C67.003 158.873 62.0704 160.221 56.834 163.078C50.0064 166.789 52.0604 176.794 58.9025 178.984C80.4702 185.842 103.137 186.813 125.602 187.509V170.11C91.7097 171.603 58.0201 167.674 24.4318 163.6C20.7865 163.165 16.8954 166.615 16.0564 169.979C14.4218 176.591 18.6167 182.928 25.6613 183.087C32.7059 183.247 36.0184 176.925 37.248 170.777C40.5316 154.349 40.3436 137.747 37.5518 121.275C36.3077 113.938 24.9236 112.822 21.6834 119.202C14.1759 133.962 14.4363 150.999 23.0865 165.252C27.267 172.14 40.0687 169.863 39.2587 160.859C37.7687 144.3 36.3222 127.713 34.2826 111.212C32.6914 98.2786 31.4185 82.793 19.7306 74.8762C13.6985 70.8018 7.36276 76.4131 6.66843 82.387C5.56907 91.9858 10.6319 100.425 17.0111 107.167C22.6381 113.112 33.1399 118.984 33.0386 128.177L47.851 122.029C43.8297 124.45 43.2077 126.002 45.985 126.669C47.258 127.176 48.502 127.756 49.7026 128.438C52.0893 129.612 54.4472 130.845 56.8195 132.048C66.7571 137.094 75.5665 122.087 65.5854 117.027L65.571 116.896Z" fill="#FF6021"/>
<path d="M74.8432 180.927C74.8721 198.254 74.8866 215.581 74.9155 232.908C74.9155 237.04 77.6639 239.911 81.2802 241.303C87.7318 243.768 95.3115 244.435 100.722 239.215C106.132 233.995 105.755 225.89 101.098 220.25C91.782 208.969 72.8325 215.465 77.635 231.124C81.396 243.406 100.259 249.481 108.128 237.591C111.831 231.994 110.587 224.353 105.235 220.351C99.5065 216.074 91.6808 215.914 85.0557 217.77L94.8631 221.772L94.2122 220.25L95.0801 226.948C91.2034 226.716 90.1185 227.905 91.8254 230.515C92.1871 232.038 92.2738 233.575 92.1003 235.126C91.8977 242.666 101.734 246.61 106.913 241.274C117.588 230.283 107.607 216.77 95.2826 213.855C84.4192 211.289 79.7759 228.065 90.6682 230.631C91.5795 230.762 92.4474 231.008 93.3009 231.356C94.5883 232.11 95.0367 231.327 94.6462 228.964L109.459 235.112C109.733 224.89 105.727 212.666 94.0097 211.622C82.2928 210.578 75.4074 220.003 79.8627 230.544C81.3236 234.01 86.3142 235.474 89.6701 234.546C92.3606 233.792 101.662 235.097 95.2103 226.673C93.5757 224.542 88.6431 225.557 85.8947 224.513L92.2594 232.908C92.2305 215.581 92.216 198.254 92.1871 180.927C92.1726 169.733 74.8143 169.718 74.8287 180.927H74.8432Z" fill="#FF6021"/>
<path d="M39.6059 180.926C39.577 198.254 39.5625 215.581 39.5336 232.908L45.8983 224.512C44.0178 225.223 37.5518 225.165 36.5826 226.673L37.5229 234.155C39.0996 233.749 40.6329 233.894 42.1228 234.546C45.4209 235.474 50.4548 234.024 51.9303 230.544C56.3856 220.018 49.2831 210.593 37.7833 211.622C26.2834 212.652 22.0595 224.875 22.3344 235.112L37.1468 228.964C36.7418 231.313 37.1902 232.11 38.4921 231.356C39.331 231.008 40.2134 230.762 41.1247 230.631C51.9881 228.065 47.3882 211.289 36.5103 213.855C24.1859 216.77 14.2194 230.298 24.8803 241.274C30.0443 246.595 39.8952 242.666 39.6927 235.126C39.5191 233.575 39.6059 232.038 39.9675 230.515C41.6744 227.92 40.5895 226.731 36.7128 226.948L37.5807 220.249L36.9298 221.772L46.7373 217.77C35.382 214.595 14.4219 221.279 23.2312 236.779C30.5217 249.611 50.2812 243.768 54.1579 231.124C58.729 216.19 41.0669 208.925 31.3607 219.365C26.3846 224.715 25.2419 232.893 30.4638 238.476C35.6858 244.058 43.526 243.942 50.4838 241.288C54.1145 239.911 56.8485 236.982 56.8485 232.893C56.8774 215.566 56.8919 198.239 56.9208 180.912C56.9353 169.718 39.577 169.704 39.5625 180.912L39.6059 180.926Z" fill="#FF6021"/>
<path d="M42.7449 133.208C36.3946 129.772 33.0821 134.962 27.0067 135.992C21.4231 136.92 16.5483 133.092 15.9841 127.495C15.1886 119.781 20.4105 114.996 26.8331 113.054C35.8305 109.197 47.909 108.443 54.9391 115.663C63.5893 124.523 54.2158 139.399 42.7449 133.194V133.208Z" fill="white"/>
<mask id="mask0_41_328" style="mask-type:luminance" maskUnits="userSpaceOnUse" x="15" y="110" width="44" height="27">
<path d="M42.7449 133.208C36.3946 129.772 33.0821 134.962 27.0067 135.992C21.4231 136.92 16.5483 133.092 15.9841 127.495C15.1886 119.781 20.4105 114.996 26.8331 113.054C35.8305 109.197 47.909 108.443 54.9391 115.663C63.5893 124.523 54.2158 139.399 42.7449 133.194V133.208Z" fill="white"/>
</mask>
<g mask="url(#mask0_41_328)">
<path d="M18.3131 117.592C20.5696 120.129 22.1753 123.116 25.0105 125.103C28.0771 127.249 31.5777 127.974 35.2519 128.22C42.9329 128.742 50.4983 126.147 54.346 119.027C62.9962 103.034 36.3657 98.032 26.9922 105.76C21.7124 110.11 20.5552 117.636 26.5004 121.985C31.2305 125.436 42.2531 127.814 46.9398 123.044C52.0026 117.882 49.4568 108.53 43.4681 105.456C37.4795 102.382 28.0771 102.063 22.6382 105.775C15.6948 110.502 15.7672 120.608 23.0866 124.972C30.406 129.337 40.3002 127.887 47.504 124.972C55.1705 121.884 51.8146 109.269 44.0468 112.401C41.6166 113.387 39.172 114.185 36.5537 114.417C35.194 114.533 33.516 114.083 32.2286 114.373L30.7966 114.112L30.001 116.432C29.8853 116.302 34.6733 116.65 35.1362 116.606C35.6424 116.65 36.1487 116.722 36.6405 116.838C37.5519 117.172 37.5374 116.737 36.5971 115.533L40.2279 112.445L38.521 112.401L36.8141 112.3C35.1217 111.401 34.5865 111.908 35.2374 113.851C35.1217 117.273 35.2085 115.069 36.8431 115.171C37.899 115.229 39.8518 115.098 40.8499 114.982L42.8027 115.185L42.8461 113.054C43.0197 113.17 40.199 114.953 39.7795 115.084C33.328 116.998 31.1148 112.474 27.4985 108.385C21.9438 102.092 12.7729 111.343 18.3131 117.592Z" fill="black"/>
</g>
<path d="M87.7608 133.368C94.0098 129.743 97.467 134.832 103.571 135.688C109.169 136.456 113.928 132.483 114.348 126.872C114.912 119.129 109.56 114.518 103.065 112.764C93.9664 109.183 81.8734 108.777 75.0458 116.2C66.656 125.321 76.4779 139.907 87.7608 133.368Z" fill="white"/>
<mask id="mask1_41_328" style="mask-type:luminance" maskUnits="userSpaceOnUse" x="71" y="110" width="44" height="26">
<path d="M87.7608 133.368C94.0098 129.743 97.467 134.832 103.571 135.688C109.169 136.456 113.928 132.483 114.348 126.872C114.912 119.129 109.56 114.518 103.065 112.764C93.9664 109.183 81.8734 108.777 75.0458 116.2C66.656 125.321 76.4779 139.907 87.7608 133.368Z" fill="white"/>
</mask>
<g mask="url(#mask1_41_328)">
<path d="M102.4 107.95C98.899 112.155 96.8449 116.708 90.3645 115.2C90.133 115.142 86.5312 113.315 86.9651 113.112V115.389C87.6161 115.287 88.2526 115.186 88.9035 115.07C90.2054 115.287 91.5796 114.823 92.9248 115.113C92.9682 115.113 95.1235 115.853 94.9934 115.911L94.8487 111.822L93.2141 112.228C92.3752 112.344 91.5362 112.431 90.6972 112.46C89.1349 112.344 89.4387 112.895 91.6085 114.098C93.3443 114.62 93.8217 115.374 93.0261 116.331C92.3318 117.23 92.6645 117.332 94.0531 116.679C95.2248 116.708 96.4688 116.23 97.6405 116.157C99.6367 116.882 100.273 116.505 99.5644 115.026C99.738 113.939 99.4197 113.605 98.6097 114.04C97.8286 113.794 95.2393 114.446 94.4437 114.432C91.4928 114.417 88.7733 113.678 86.0249 112.663C78.1703 109.763 74.7709 122.348 82.5677 125.234C89.2362 127.699 97.3512 128.511 104.15 125.973C110.949 123.436 114.941 115.853 110.876 109.212C103.904 97.8151 77.2734 102.542 80.6872 118.1C84.0142 133.339 114.478 123.349 106.204 109.342C99.7958 98.4821 74.0332 98.801 74.1779 114.214C74.2502 122.696 83.884 128.264 91.3481 128.337C95.1814 128.38 99.5499 127.931 103.007 126.162C107.028 124.103 108.822 120.464 111.585 117.143C116.908 110.749 107.766 101.483 102.4 107.936V107.95Z" fill="black"/>
</g>
</g>
<defs>
<clipPath id="clip0_41_328">
<rect width="183" height="244" fill="white"/>
</clipPath>
</defs>
</svg>
