<svg width="156" height="250" viewBox="0 0 156 250" fill="none" xmlns="http://www.w3.org/2000/svg">
<g clip-path="url(#clip0_41_731)">
<path d="M22.1795 182.406C18.9366 153.781 15.664 125.022 16.4673 96.1596C16.6607 89.4521 17.0623 82.7447 17.7317 76.0818C18.1334 72.0306 18.5796 67.9498 19.3234 63.9431C19.4721 62.9341 19.6804 61.9398 19.9482 60.9604C18.2672 59.5358 17.8656 60.2778 18.7284 63.1715C17.3598 69.1666 18.8176 77.4915 18.8623 83.6054C18.9069 91.3961 18.9664 99.172 19.011 106.963C19.0854 117.514 35.5229 117.543 35.4485 106.963C35.3741 96.3821 35.3146 86.5288 35.2402 76.3044C35.1956 68.7066 37.0848 58.0074 32.8899 51.1515C28.9776 44.7557 20.6027 43.0937 13.9533 45.7797C6.64942 48.7327 4.1057 55.1137 2.99003 62.4147C-3.12382 102.333 1.19009 142.548 5.69738 182.377C6.87255 192.749 23.3249 192.868 22.1349 182.377L22.1795 182.406Z" fill="#FF6021"/>
<path d="M26.4042 94.3639C50.458 92.8354 74.4671 90.6986 98.4168 87.9236C109.692 86.6177 109.826 68.7956 98.4168 70.1163C74.4671 72.8764 50.458 75.0281 26.4042 76.5566C14.9946 77.2837 14.9202 95.091 26.4042 94.3639Z" fill="#FF6021"/>
<path d="M107.937 79.2574C107.223 64.1953 108.711 49.3411 112.891 34.8281C114.527 29.1891 116.327 21.5468 121.355 17.8221L119.525 17.644L120.224 19.5435C119.927 21.0868 120.328 23.194 120.314 24.7966C120.269 29.1446 120.076 33.4925 119.942 37.8257C118.9 70.1756 117.026 102.481 114.393 134.742C113.456 146.168 131.322 146.109 132.244 134.742C134.014 113.076 135.442 91.3812 136.498 69.6711C137.034 58.5712 137.48 47.4713 137.837 36.3714C138.12 27.349 139.845 16.5459 134.862 8.44358C130.503 1.36517 121.727 -1.73628 114.096 1.64711C106.464 5.03051 102.195 12.5838 99.235 19.7661C91.6038 38.3005 89.1642 59.3577 90.1014 79.2425C90.6369 90.6541 108.502 90.7134 107.952 79.2425L107.937 79.2574Z" fill="#FF6021"/>
<path d="M13.5516 193.136C51.6033 190.88 89.7293 190.553 127.811 192.186C139.295 192.675 139.28 174.868 127.811 174.378C89.7293 172.746 51.6033 173.058 13.5516 175.328C2.14205 176.011 2.0528 193.818 13.5516 193.136Z" fill="#FF6021"/>
<path d="M65.9434 117.053C57.0775 112.394 45.5341 104.084 35.4782 110.509C25.5711 116.846 28.3528 127.708 34.6303 135.321C39.8963 141.702 50.205 136.226 50.2794 128.851C50.3984 118.508 45.2217 110.109 38.2004 102.852C31.8188 96.2633 21.8076 90.0901 22.953 79.7619L9.14847 87.6565C12.793 90.2089 13.2393 98.2518 13.9682 102.199C15.2326 109.099 15.8574 116.104 16.5565 123.078C17.9399 136.671 19.2044 150.264 20.3795 163.872L37.4715 159.257C31.923 149.804 31.1346 138.467 36.0137 128.539L19.249 126.358C20.5729 134.46 21.0935 142.637 20.8555 150.843C20.7514 154.627 20.5134 158.426 20.0671 162.195C19.8291 164.213 19.5316 166.202 19.1746 168.205C19.011 169.11 18.0292 172.479 18.6242 171.989L25.1099 169.303L23.7711 169.155L30.2569 171.841L29.3644 170.817L31.7296 179.72L31.9973 178.578L23.1613 185.3C57.9552 189.663 92.8681 193.877 128.019 192.289C139.786 191.755 139.86 174.363 128.019 173.992C106.256 173.295 84.5824 172.375 63.7269 165.519L65.9136 182.243C68.3532 180.863 70.5845 179.898 73.4109 179.602C85.1626 178.355 85.2221 162.507 73.4109 161.305C59.4279 159.88 45.43 159.168 31.3874 159.153L33.827 177.123C48.3158 174.853 63.0724 175.521 77.6653 176.114V157.817C66.2558 159.168 55.233 158.574 44.106 155.71V173.354C53.6562 170.861 63.0724 169.882 72.9349 170.238C81.9048 170.564 85.594 157.387 77.5612 153.187C68.3532 148.379 59.8741 142.562 52.362 135.365C48.9109 132.056 45.6085 128.539 42.6185 124.8C39.9855 121.52 34.8386 116.104 34.4369 111.8L22.834 120.615C29.7958 123.078 31.9825 127.738 36.2964 132.991L37.0104 134.861C41.3838 133.11 42.5887 131.344 40.6549 129.563C39.9558 127.96 39.4351 127.441 38.0963 127.782C35.5823 128.42 39.8665 129.667 40.7144 130.275C41.9045 131.121 42.9458 132.175 43.9424 133.243C46.739 136.27 46.1886 136.374 42.4995 137.413C41.3689 137.71 40.2384 137.947 39.0781 138.14L40.4764 147.281C40.64 147.029 38.1558 145.501 38.6765 146.361C39.093 147.044 40.0153 148.706 40.8185 147.786C40.8334 147.771 39.2566 141.806 39.4351 142.562C38.4831 138.303 37.6947 133.985 37.1443 129.667C36.5939 125.349 36.2369 120.971 36.0584 116.593C35.984 114.679 35.9394 112.765 35.9245 110.851C35.8947 107.304 38.1707 103.089 33.2618 107.66C28.9032 111.711 30.718 109.47 33.1874 111.489C34.5411 112.587 36.0286 113.418 37.2038 114.753C38.1558 115.807 38.7211 117.098 39.6136 118.166L40.4913 119.977C49.5207 119.101 52.7041 116.682 50.0711 112.705C49.1786 109.263 46.858 105.953 45.8316 102.422C44.8052 98.8899 44.0614 95.2246 43.7937 91.5147C43.5854 88.7991 44.8647 86.8106 41.5772 89.4817C38.2897 92.1528 40.1491 91.1141 42.559 92.227C43.8383 92.8206 45.192 93.6368 46.3225 94.4826C47.1555 95.1356 47.9439 95.8478 48.6728 96.6195C49.9224 97.9699 49.7736 97.6137 48.2414 95.5659L49.1637 88.5172C50.2199 86.499 47.2448 88.3688 46.0101 88.5617C43.9722 88.8881 41.9045 88.992 39.8368 88.8585C35.5972 88.5914 31.6701 87.2855 27.9363 85.3267L23.31 102.377C40.5954 101.754 57.3304 104.084 73.7977 109.337L76.2373 91.3663C66.8805 92.4051 57.4197 92.5832 48.0629 91.307V108.951C60.0824 104.232 72.4589 101.086 85.3411 100.003C96.9292 99.0383 97.3159 81.5575 85.3411 81.7059C81.0421 81.7652 76.7579 81.8097 72.4589 81.8691L74.8985 99.8397C83.794 98.3409 92.7045 96.8569 101.6 95.3581L96.7209 77.7141C82.9313 80.3703 68.8292 84.9112 59.2345 95.7291C50.562 105.508 46.62 119.027 51.3653 131.552C55.114 141.435 68.502 154.909 79.6735 146.91C90.8451 138.912 83.3775 120.585 76.4753 112.29C72.2209 107.17 66.0177 102.244 58.8923 103.861C52.4215 105.345 49.3274 111.83 48.42 117.736C46.7093 128.836 50.2645 143.364 62.5815 146.762C76.981 150.724 88.2865 137.383 93.0913 125.556C95.4714 119.71 97.6283 112.587 94.6681 106.577C91.7078 100.567 84.0916 98.786 78.2752 102.273C72.4589 105.761 67.178 114.056 68.5168 121.134C69.8556 128.213 77.2339 131.522 83.8238 129.281C98.2828 124.354 107.744 104.366 110.63 90.6837C111.596 86.1132 109.32 80.4445 104.218 79.4354C89.6996 76.5417 74.8241 91.9599 66.2409 102.066C60.841 108.432 65.7649 120.6 75.1662 117.35C83.8089 114.367 96.1259 112.364 102.894 105.864C109.663 99.3648 112.697 86.6326 115.018 77.6399C120.641 55.9594 123.631 33.4332 127.603 11.4115L109.588 8.97778C110.451 65.8722 108.13 122.974 97.1523 178.934L115.167 181.368C113.62 163.367 113.337 145.337 114.289 127.293H95.9474C96.8399 134.134 96.349 140.515 93.2995 146.792L110.064 148.973C107.863 133.896 110.957 118.671 113.887 103.92C116.163 92.4793 98.9671 87.5081 96.2003 99.0532C93.9243 108.536 90.9641 117.825 86.8435 126.669C85.2518 130.082 81.4288 134.683 80.7743 138.289C78.5876 140.411 78.9744 141.271 81.9643 140.841C85.1626 141.731 85.3411 141.212 82.5296 139.283C81.3693 137.146 78.6917 135.098 77.1447 133.199L66.0326 147.563C70.7184 150.012 74.4671 153.128 77.1 157.773C79.1677 161.423 79.6884 165.504 81.2801 169.318C85.8022 180.106 95.6499 180.032 105.765 178.444C126.219 175.254 141.407 159.212 135.695 137.725C133.821 130.661 122.292 128.153 118.93 135.543C114.467 145.382 110.064 156.853 110.094 167.834C110.124 179.379 123.408 182.718 130.444 174.512C138.075 165.608 125.148 152.609 117.472 161.572L116.714 162.373L123.78 161.453L122.366 161.156L127.841 165.356C129.358 168.383 128.674 165.311 129.06 163.16C129.447 161.008 129.908 158.99 130.459 156.927C131.559 152.757 132.988 148.706 134.773 144.788L118.008 142.607C119.495 148.201 118.008 154.063 112.935 157.283C110.049 159.123 106.509 159.835 103.192 160.444C101.808 160.696 100.008 160.607 98.6993 161.082L96.5275 161.275C98.1341 163.174 98.625 163.352 98.0002 161.809C98.6101 160.162 96.0218 155.235 95.3672 153.677C94.0582 150.516 92.4665 147.578 90.4434 144.818C86.427 139.327 81.3098 134.92 75.2703 131.774C65.6459 126.744 57.7469 138.214 64.1583 146.139C68.383 151.362 74.0803 158.559 81.5032 158.767C88.9261 158.975 93.2847 153.173 96.6019 147.534C104.545 134.03 110.228 119.131 113.887 103.92L96.2003 99.0532C92.5706 117.321 89.655 135.232 92.3772 153.826C93.5078 161.542 105.869 162.729 109.142 156.007C113.575 146.895 115.628 137.383 114.304 127.263C112.816 115.866 96.6019 115.169 95.9622 127.263C94.9953 145.308 95.2928 163.338 96.8399 181.338C97.6581 190.88 112.727 194.619 114.854 183.771C126.145 126.194 128.822 67.4897 127.945 8.9481C127.796 -0.964638 111.82 -3.97704 109.93 6.51444C106.583 25.0934 103.593 43.7763 99.7704 62.2662C97.9556 71.0215 95.8284 79.8806 92.3772 88.1462C90.5029 92.6425 89.0005 93.2064 84.3593 94.8239C79.7181 96.4414 74.9877 98.0589 70.3168 99.6764L79.2421 114.961C82.4999 111.132 85.951 107.497 89.8186 104.277C91.7822 102.644 93.835 101.16 95.9771 99.7655C96.9143 99.157 101.541 97.4653 99.3688 97.035L92.9574 85.7867C91.7971 91.2625 90.0864 96.3227 87.1559 101.116C85.9212 103.134 84.5973 105.004 83.0503 106.785C82.2172 107.749 78.2306 111.607 78.5132 111.622L84.999 114.308C85.0138 119.947 85.713 121.505 87.0815 118.968C87.8848 118.137 87.9741 117.884 87.3344 118.196L80.2685 117.276C77.0108 115.777 79.0934 112.898 76.9959 116.356C76.1034 117.84 75.6869 119.932 74.839 121.52C73.8423 123.36 70.9713 128.791 68.4722 128.866C65.9731 128.94 65.6905 120.689 66.0029 120.541L58.937 121.461C61.7782 121.891 63.8162 125.423 64.9616 127.797C65.6161 129.148 65.75 131.462 66.6128 132.62L66.8954 134.43L73.3365 130.854C73.3068 131.121 68.6656 125.527 68.3978 124.77C67.4458 122.099 67.4309 119.324 68.1003 116.593C71.6258 102.036 89.0154 97.7473 101.645 95.3136C113.307 93.0729 108.264 75.7404 96.7655 77.6695C87.8699 79.1683 78.9595 80.6523 70.0639 82.151C59.7403 83.8873 62.3584 100.24 72.5035 100.122C76.8025 100.062 81.0867 100.018 85.3857 99.9584V81.6613C70.8523 82.8782 56.8098 85.9203 43.2284 91.2625C35.9989 94.1116 33.1576 107.541 43.2284 108.907C54.3107 110.42 65.1401 110.851 76.2819 109.619C86.2336 108.521 89.1195 94.9723 78.7215 91.6483C60.8262 85.9351 42.1276 83.3679 23.3546 84.0357C14.6822 84.3473 10.3385 96.664 18.7283 101.086C29.0668 106.532 40.64 108.61 52.1537 105.968C62.1501 103.683 71.2986 94.72 62.8641 84.9409C56.9585 78.0999 46.0101 71.2144 36.579 73.188C24.4852 75.7256 24.7678 87.7307 26.1959 97.5989C27.6239 107.467 31.1048 121.609 39.2566 128.153C48.2117 135.336 60.722 127.96 58.6543 116.697C56.9585 107.423 48.8513 98.7267 40.6252 94.6607C31.804 90.2979 20.1415 90.9063 17.9994 102.422C15.8574 113.937 18.2821 127.56 20.1861 138.956C21.7629 148.394 23.5331 162.165 34.6452 165.118C56.5569 170.935 66.9698 133.154 43.3623 129.266C33.9758 127.723 24.3513 134.579 25.1695 144.581C26.0917 155.74 37.4418 157.283 46.3374 155.28C56.4528 152.995 65.5417 145.486 64.2624 134.312C63.117 124.28 53.9834 115.629 45.073 111.815C33.8122 106.992 21.3018 113.017 20.7663 126.002C20.3349 136.478 30.3164 149.285 41.2351 149.492C55.0396 149.745 57.6428 136.018 53.1206 125.705C48.2712 114.664 39.0781 106.903 27.8024 102.926C22.5216 101.056 15.664 106.043 16.1995 111.741C17.4044 124.622 27.4454 135.825 36.1179 144.848C45.4597 154.553 56.4676 162.685 68.4127 168.917L73.039 151.867C61.6443 151.436 50.3687 152.742 39.331 155.636C30.6288 157.906 30.5693 171.024 39.331 173.28C51.9603 176.545 64.8128 177.569 77.7694 176.04C89.2385 174.69 89.8633 158.233 77.7694 157.743C61.4063 157.075 45.2663 156.853 29.052 159.405C18.654 161.037 21.4059 177.361 31.4916 177.376C45.549 177.376 59.5469 178.103 73.515 179.527V161.23C67.3268 161.883 62.1947 163.293 56.7503 166.365C49.5802 170.401 51.6777 180.7 58.937 183.089C81.2503 190.434 104.798 191.473 128.108 192.215V173.918C92.9723 175.521 58.0593 171.292 23.2505 166.929C19.4275 166.454 15.2623 170.104 14.4144 173.651C12.7484 180.596 17.0474 187.303 24.5447 187.467C32.042 187.63 35.4633 180.878 36.7129 174.393C40.1194 156.793 39.926 139.06 37.0253 121.416C35.7757 113.744 23.5926 112.453 20.2605 119.235C12.4657 135.083 12.7186 153.098 21.7183 168.428C26.062 175.832 39.6136 173.176 38.8103 163.812C37.3079 146.525 35.8055 129.207 33.8122 111.949C32.1758 97.8215 31.1346 80.6374 18.4903 71.7783C12.198 67.371 5.38496 73.4848 4.68581 79.6729C3.55526 89.8675 8.77659 98.8157 15.4557 106.117C21.4506 112.676 32.1163 118.864 32.0122 128.762L47.6613 122.292C43.3771 124.651 42.6631 126.209 45.5341 126.981C46.8431 127.545 48.1224 128.168 49.3571 128.88C51.8265 130.142 54.2809 131.462 56.7354 132.754C67.178 138.229 76.4604 122.44 65.988 116.95L65.9434 117.053Z" fill="#FF6021"/>
<path d="M41.6665 75.1172C41.2352 72.6538 43.3029 63.676 47.4085 64.6405C50.6216 65.3974 51.3505 80.4742 51.8117 83.3086C53.5075 93.8297 68.5913 90.2682 69.35 80.9342C69.6772 76.8237 71.3433 73.1435 73.2771 69.5672C74.0655 68.113 76.4456 62.2217 78.2456 61.7765C84.0321 60.3519 82.5148 75.3101 82.3215 77.996L99.8597 75.6217C97.0929 67.1632 92.8087 56.6272 83.3627 53.7484C71.3582 50.0831 66.8211 64.9967 65.2443 73.8707L73.8573 67.3413C72.578 67.4304 60.5585 67.9349 60.5139 68.3059C60.5139 68.3801 67.5054 74.1675 62.3882 67.7865C61.0494 66.1245 59.6809 64.5515 58.0594 63.1566C53.0315 58.8086 46.3226 57.0428 40.5806 61.1681C35.5824 64.7593 33.7379 71.5112 35.4932 77.3134C36.4601 80.4891 38.5724 83.3679 41.2947 85.2525C44.0169 87.1371 47.1259 86.9294 49.7737 88.3836C59.8445 93.9039 68.8739 78.5303 58.7883 73.01C54.3405 70.5763 52.2133 69.493 48.5688 73.2474C44.9243 77.0018 46.5011 76.4676 49.2233 79.7619C50.2349 80.9936 51.053 82.255 52.2877 83.2937C57.9404 88.072 67.1186 85.6235 73.8721 85.1486C77.5018 84.8815 81.7711 82.5963 82.4851 78.6193C82.9909 75.7404 83.4966 70.6802 85.6238 68.3801L76.9365 70.6653C80.2835 71.1847 81.7859 77.6844 82.6636 80.3703C85.847 90.1199 99.4581 88.0127 100.202 77.996C101.303 63.1714 96.3937 42.7672 77.3679 43.8505C61.3469 44.7557 52.5852 67.6233 51.5142 80.9342L69.0525 78.5599C66.8806 65.0264 63.132 43.2421 43.9425 47.2042C29.0521 50.276 22.0159 66.0503 24.4704 79.8361C26.4786 91.0993 43.6896 86.321 41.6814 75.1023L41.6665 75.1172Z" fill="#FF6021"/>
<path d="M39.688 113.106C30.8519 113.106 22.6853 112.335 18.6094 120.882C14.5335 129.43 16.973 135.44 25.2736 139.803C32.6073 143.646 42.9755 142.414 50.0563 138.704C57.1371 134.995 60.6626 127.219 55.7983 120.749C52.7934 116.757 46.3969 112.082 39.688 113.106Z" fill="white"/>
<mask id="mask0_41_731" style="mask-type:luminance" maskUnits="userSpaceOnUse" x="16" y="112" width="43" height="31">
<path d="M39.688 113.106C30.8519 113.106 22.6853 112.335 18.6094 120.882C14.5335 129.43 16.973 135.44 25.2736 139.803C32.6073 143.646 42.9755 142.414 50.0563 138.704C57.1371 134.995 60.6626 127.219 55.7983 120.749C52.7934 116.757 46.3969 112.082 39.688 113.106Z" fill="white"/>
</mask>
<g mask="url(#mask0_41_731)">
<path d="M36.341 120.541C35.5824 120.674 34.794 120.541 34.0205 120.496C33.2469 120.452 32.399 120.571 31.8486 121.075C31.1792 121.684 31.1792 122.737 31.685 123.464C32.1908 124.191 33.0833 124.622 34.0056 124.815C34.9279 125.008 35.8799 124.963 36.8171 124.948C38.9889 124.904 41.4434 124.859 42.8863 123.375C43.2879 122.96 43.5854 122.366 43.3772 121.832C43.154 121.253 42.4251 120.986 41.7706 120.853C40.8632 120.674 39.9261 120.645 39.0038 120.734" fill="white"/>
<path d="M36.341 111.266C33.2617 111.489 30.4503 111.177 27.609 112.765C24.1579 114.694 21.9563 118.538 22.0158 122.5C22.1646 130.543 29.6619 134.357 36.8021 134.238C43.1242 134.119 50.086 132.145 52.1835 125.379C53.5966 120.823 51.7669 115.867 47.6762 113.344C45.1473 111.786 41.9193 111.266 38.974 111.459C34.1245 111.786 29.4387 115.496 29.6767 120.734C29.885 125.483 33.7824 130.365 38.974 130.009C39.4351 129.964 39.8962 129.949 40.3574 129.964C39.6136 129.949 38.9145 129.741 38.2748 129.356L34.9427 126.032L35.3146 126.521L34.0502 121.832C34.2435 118.731 35.4782 116.742 37.7244 115.852C38.4682 115.555 38.4384 115.525 37.6352 115.763C39.9557 115.228 38.1558 115.644 37.4567 115.659C37.0996 115.659 35.5377 115.881 35.389 115.689L36.46 115.881C39.3756 117.143 40.7144 119.844 40.4764 123.969L38.0814 128.065L35.2997 129.549C33.8716 129.712 33.5593 129.801 34.3923 129.816C34.9724 129.964 35.746 129.875 36.3261 129.816C41.1755 129.474 45.8613 125.794 45.6233 120.541C45.4151 115.807 41.5177 110.895 36.3261 111.266H36.341Z" fill="black"/>
</g>
<path d="M89.2981 113.106C98.1341 113.106 106.301 112.335 110.377 120.882C114.453 129.43 112.013 135.44 103.712 139.803C96.3788 143.646 86.0106 142.414 78.9298 138.704C71.849 134.995 68.3235 127.219 73.1878 120.749C76.1927 116.757 82.5892 112.082 89.2981 113.106Z" fill="white"/>
<mask id="mask1_41_731" style="mask-type:luminance" maskUnits="userSpaceOnUse" x="70" y="112" width="43" height="31">
<path d="M89.2981 113.106C98.1341 113.106 106.301 112.335 110.377 120.882C114.453 129.43 112.013 135.44 103.712 139.803C96.3788 143.646 86.0106 142.414 78.9298 138.704C71.849 134.995 68.3235 127.219 73.1878 120.749C76.1927 116.757 82.5892 112.082 89.2981 113.106Z" fill="white"/>
</mask>
<g mask="url(#mask1_41_731)">
<path d="M92.645 120.541C93.4037 120.674 94.1921 120.541 94.9656 120.496C95.7391 120.452 96.587 120.571 97.1374 121.075C97.8068 121.684 97.8068 122.737 97.3011 123.464C96.7953 124.191 95.9028 124.622 94.9805 124.815C94.0582 125.008 93.1061 124.963 92.169 124.948C89.9972 124.904 87.5427 124.859 86.0998 123.375C85.6981 122.96 85.4006 122.366 85.6089 121.832C85.832 121.253 86.5609 120.986 87.2154 120.853C88.1228 120.674 89.06 120.645 89.9823 120.734" fill="white"/>
<path d="M92.6451 129.816C93.255 129.86 93.9839 129.979 94.5789 129.816C95.1888 129.816 95.0996 129.756 94.3112 129.667C93.0319 129.489 91.9013 128.955 90.8749 128.064L88.4799 123.969C88.1824 119.992 89.3725 117.38 92.0501 116.104C92.5112 115.807 93.017 115.674 93.5823 115.674C93.5823 115.659 91.6336 115.659 91.5146 115.644C90.8303 115.629 88.9262 115.214 91.3361 115.748L90.7113 115.599C93.2253 116.475 94.6236 118.552 94.9211 121.817L93.6566 126.506L94.0285 126.017L90.6964 129.341C90.0568 129.726 89.3725 129.934 88.6138 129.949C89.075 129.934 89.5361 129.949 89.9973 129.994C94.8616 130.32 99.5176 125.482 99.2945 120.719C99.0565 115.406 95.2037 111.8 89.9973 111.444C87.0668 111.237 83.8388 111.756 81.2951 113.329C77.2043 115.852 75.3746 120.808 76.7878 125.364C78.9001 132.116 85.847 134.104 92.1691 134.223C99.3094 134.356 106.807 130.543 106.955 122.485C107.03 118.538 104.828 114.694 101.362 112.75C98.5209 111.162 95.7095 111.474 92.6302 111.251C87.7659 110.91 83.1099 115.763 83.333 120.526C83.571 125.853 87.4238 129.43 92.6302 129.801L92.6451 129.816Z" fill="black"/>
</g>
<path d="M76.1628 185.449C76.1926 203.182 76.2075 220.915 76.2372 238.648C76.2372 242.877 79.0636 245.816 82.7825 247.24C89.417 249.763 97.2117 250.445 102.775 245.103C108.339 239.761 107.952 231.466 103.162 225.693C93.5821 214.148 74.0951 220.796 79.0338 236.823C82.9015 249.392 102.299 255.61 110.391 243.441C114.2 237.713 112.92 229.893 107.416 225.797C101.526 221.419 93.478 221.256 86.665 223.156L96.7506 227.251L96.0812 225.693L96.9737 232.549C92.9871 232.312 91.8714 233.528 93.6267 236.2C93.9986 237.758 94.0879 239.331 93.9094 240.918C93.7011 248.635 103.817 252.671 109.142 247.21C120.12 235.962 109.856 222.132 97.182 219.149C86.0105 216.522 81.2354 233.692 92.4367 236.318C93.3739 236.452 94.2664 236.704 95.1441 237.06C96.468 237.832 96.9291 237.031 96.5275 234.612L111.76 240.904C112.043 230.442 107.922 217.932 95.8729 216.864C83.8237 215.795 76.743 225.441 81.3247 236.229C82.8271 239.776 87.9592 241.275 91.4103 240.325C94.1771 239.553 103.742 240.889 97.1076 232.267C95.4267 230.086 90.3541 231.124 87.5278 230.056L94.073 238.648C94.0433 220.915 94.0284 203.182 93.9986 185.449C93.9838 173.993 76.1331 173.978 76.148 185.449H76.1628Z" fill="#FF6021"/>
<path d="M39.9259 185.448C39.8962 203.182 39.8813 220.915 39.8515 238.648L46.3968 230.056C44.463 230.783 37.8136 230.724 36.8169 232.267L37.7838 239.924C39.4053 239.508 40.9821 239.657 42.5143 240.325C45.9059 241.274 51.0826 239.79 52.5999 236.229C57.1816 225.456 49.8777 215.81 38.0516 216.863C26.2255 217.917 21.8819 230.427 22.1645 240.903L37.3971 234.611C36.9806 237.015 37.4417 237.832 38.7805 237.06C39.6433 236.704 40.5507 236.452 41.4879 236.318C52.6594 233.691 47.929 216.522 36.7425 219.149C24.0686 222.131 13.8193 235.977 24.7826 247.21C30.0932 252.656 40.2234 248.635 40.0152 240.918C39.8367 239.33 39.9259 237.757 40.2978 236.199C42.0531 233.543 40.9375 232.326 36.9508 232.549L37.8433 225.693L37.1739 227.251L47.2596 223.155C35.5823 219.906 14.0276 226.747 23.0868 242.61C30.5841 255.743 50.9041 249.762 54.8907 236.823C59.5914 221.538 41.4283 214.103 31.4468 224.788C26.3297 230.263 25.1545 238.633 30.5246 244.346C35.8946 250.059 43.9572 249.941 51.1123 247.225C54.8461 245.815 57.6576 242.818 57.6576 238.633C57.6873 220.9 57.7022 203.167 57.732 185.434C57.7468 173.977 39.8962 173.963 39.8813 185.434L39.9259 185.448Z" fill="#FF6021"/>
<path d="M132.11 137.398C136.156 137.265 139.057 143.111 138.149 146.881C137.242 150.65 130.845 149.196 127.722 148.988V166.795C137.227 166.721 146.138 161.23 148.815 151.733C151.18 143.364 147.893 132.813 138.73 130.379C128.54 127.664 121.459 136.849 120.7 145.975C120.284 151.08 120.849 156.229 121.266 161.305C121.652 165.964 123.809 175.135 121.905 179.379L127.246 175.283C126.115 175.372 124.999 175.343 123.869 175.194C119.064 174.541 114.348 176.352 112.891 181.412C111.701 185.567 114.348 191.711 119.124 192.364C124.494 193.105 131.604 194.5 135.933 190.152C140.262 185.804 139.89 178.607 139.86 173.191C139.83 166.543 138.819 159.954 138.536 153.321C138.372 149.403 140.634 141.405 131.812 145.827C131.812 146.762 131.455 147.563 130.756 148.231C129.864 148.914 128.852 149.166 127.722 148.973C116.134 149.077 116.357 166.009 127.722 166.78C141.467 167.7 155.926 163.026 156 146.866C156.06 133.228 146.896 119.072 132.11 119.576C120.656 119.962 120.596 137.769 132.11 137.383V137.398Z" fill="#FF6021"/>
</g>
<defs>
<clipPath id="clip0_41_731">
<rect width="156" height="250" fill="white"/>
</clipPath>
</defs>
</svg>
